<?xml version="1.0" encoding="UTF-8"?>
<svg id="Camada_1" xmlns="http://www.w3.org/2000/svg" version="1.1" xmlns:xlink="http://www.w3.org/1999/xlink" viewBox="0 0 89 89">
  <!-- Generator: Adobe Illustrator 29.1.0, SVG Export Plug-In . SVG Version: 2.1.0 Build 142)  -->
  <defs>
    <style>
      .st0 {
        fill: #caaf66;
      }

      .st1 {
        fill: #c7ab63;
      }

      .st2 {
        fill: #926e33;
      }

      .st3 {
        fill: #855f26;
      }

      .st4 {
        fill: #a07e3f;
      }

      .st5 {
        fill: #ac8c4a;
      }

      .st6 {
        fill: #9d7a39;
      }

      .st7 {
        fill: #bea15a;
      }

      .st8 {
        fill: #9c7838;
      }

      .st9 {
        fill: #9e7a3a;
      }

      .st10 {
        fill: #8c662b;
      }

      .st11 {
        fill: #a48242;
      }

      .st12 {
        fill: #b08f4b;
      }

      .st13 {
        fill: #cdb369;
      }

      .st14 {
        fill: #9c793c;
      }

      .st15 {
        fill: #a58343;
      }

      .st16 {
        fill: #926d30;
      }

      .st17 {
        fill: #a38142;
      }

      .st18 {
        fill: #d8c073;
      }

      .st19 {
        fill: #997536;
      }

      .st20 {
        fill: #c9ae66;
      }

      .st21 {
        fill-rule: evenodd;
      }

      .st21, .st22 {
        fill: #e3d8ce;
      }

      .st23 {
        fill: #89652d;
      }

      .st24 {
        fill: #aa8948;
      }

      .st25 {
        fill: #8e692d;
      }

      .st26 {
        fill: #86612b;
      }

      .st27 {
        fill: #c5a962;
      }

      .st28 {
        fill: #ad8c48;
      }

      .st29 {
        fill: #825b24;
      }

      .st30 {
        fill: #ab8946;
      }

      .st31 {
        fill: #a17e3d;
      }

      .st32 {
        fill: #9c7939;
      }

      .st33 {
        fill: #a07c3b;
      }

      .st34 {
        fill: #cbb067;
      }

      .st35 {
        fill: #896429;
      }

      .st36 {
        fill: #c9ae65;
      }

      .st37 {
        fill: #9b783b;
      }

      .st38 {
        fill: #c3a75f;
      }

      .st39 {
        fill: #b69751;
      }

      .st40 {
        fill: #88632c;
      }

      .st41 {
        fill: #c8ad65;
      }

      .st42 {
        fill: #916d33;
      }

      .st43 {
        fill: #866027;
      }

      .st44 {
        fill: #b1904c;
      }

      .st45 {
        fill: #ba9c57;
      }

      .st46 {
        fill: #c7ac64;
      }

      .st47 {
        fill: #c6aa62;
      }

      .st48 {
        fill: #9f7b3b;
      }

      .st49 {
        fill: #89642c;
      }

      .st50 {
        fill: #977438;
      }

      .st51 {
        fill: #ceb46a;
      }

      .st52 {
        fill: #946f32;
      }

      .st53 {
        fill: #bc9e59;
      }

      .st54 {
        fill: #b79854;
      }

      .st55 {
        fill: #b29350;
      }

      .st56 {
        fill: #b1924f;
      }

      .st57 {
        fill: #a17d3c;
      }

      .st58 {
        fill: #906a2e;
      }

      .st59 {
        fill: #cfb56b;
      }

      .st60 {
        fill: #967133;
      }

      .st61 {
        fill: #ac8b48;
      }

      .st62 {
        fill: none;
      }

      .st63 {
        fill: #845e26;
      }

      .st64 {
        fill: #946f31;
      }

      .st65 {
        fill: #896329;
      }

      .st66 {
        fill: #b99a54;
      }

      .st67 {
        fill: #b79852;
      }

      .st68 {
        fill: #bea15b;
      }

      .st69 {
        fill: #9b7737;
      }

      .st70 {
        fill: #8a652d;
      }

      .st71 {
        fill: #d1b86d;
      }

      .st72 {
        fill: #997639;
      }

      .st73 {
        fill: #8d682c;
      }

      .st74 {
        fill: #d6be72;
      }

      .st75 {
        fill: #af8f4d;
      }

      .st76 {
        fill: #b3934e;
      }

      .st77 {
        fill: #c2a55e;
      }

      .st78 {
        fill: #8d6930;
      }

      .st79 {
        fill: #87622b;
      }

      .st80 {
        fill: #906b2f;
      }

      .st81 {
        fill: #9b773a;
      }

      .st82 {
        fill: #ae8d49;
      }

      .st83 {
        fill: #c6aa63;
      }

      .st84 {
        fill: #865f27;
      }

      .st85 {
        fill: #c1a45d;
      }

      .st86 {
        fill: #bfa25c;
      }

      .st87 {
        fill: #b59652;
      }

      .st88 {
        clip-path: url(#clippath-1);
      }

      .st89 {
        fill: #bb9d58;
      }

      .st90 {
        fill: #a98744;
      }

      .st91 {
        fill: #c1a55e;
      }

      .st92 {
        fill: #b69753;
      }

      .st93 {
        fill: #a88643;
      }

      .st94 {
        fill: #bc9f5a;
      }

      .st95 {
        fill: #d9c174;
      }

      .st96 {
        fill: #c4a861;
      }

      .st97 {
        fill: #a68442;
      }

      .st98 {
        fill: #dbc376;
      }

      .st99 {
        fill: #dec678;
      }

      .st100 {
        fill: #dcc477;
      }

      .st101 {
        fill: #a07d3f;
      }

      .st102 {
        fill: #b0904d;
      }

      .st103 {
        fill: #987538;
      }

      .st104 {
        fill: #b49552;
      }

      .st105 {
        fill: #a78543;
      }

      .st106 {
        fill: #a4813f;
      }

      .st107 {
        fill: #ccb168;
      }

      .st108 {
        fill: #967236;
      }

      .st109 {
        fill: #b2924d;
      }

      .st110 {
        fill: #916c2f;
      }

      .st111 {
        fill: #8f6a31;
      }

      .st112 {
        fill: #876128;
      }

      .st113 {
        fill: #a17f40;
      }

      .st114 {
        fill: #ae8e4c;
      }

      .st115 {
        fill: #d4bb70;
      }

      .st116 {
        fill: #8b652a;
      }

      .st117 {
        fill: #b1914e;
      }

      .st118 {
        fill: #8f6b32;
      }

      .st119 {
        fill: #0d0c25;
      }

      .st120 {
        fill: #957136;
      }

      .st121 {
        fill: #d2b96e;
      }

      .st122 {
        fill: #d3ba6f;
      }

      .st123 {
        fill: #9a773a;
      }

      .st124 {
        fill: #af8e4a;
      }

      .st125 {
        fill: #b39451;
      }

      .st126 {
        fill: #b59650;
      }

      .st127 {
        fill: #a78645;
      }

      .st128 {
        fill: #d0b66c;
      }

      .st129 {
        fill: #8c672f;
      }

      .st130 {
        fill: #936f35;
      }

      .st131 {
        fill: #aa8a48;
      }

      .st132 {
        fill: #c5a961;
      }

      .st133 {
        fill: #bfa25b;
      }

      .st134 {
        fill: #c8ac64;
      }

      .st135 {
        display: none;
      }

      .st136 {
        fill: #ad8d4b;
      }

      .st137 {
        fill: #a98847;
      }

      .st138 {
        fill: #835c25;
      }

      .st139 {
        fill: #ba9b55;
      }

      .st140 {
        fill: #dbc375;
      }

      .st141 {
        fill: #886228;
      }

      .st142 {
        fill: #8c682f;
      }

      .st143 {
        fill: #a58240;
      }

      .st144 {
        fill: #a3803f;
      }

      .st145 {
        fill: #8f692d;
      }

      .st146 {
        fill: #ab8b49;
      }

      .st147 {
        fill: #936f34;
      }

      .st148 {
        fill: #bb9c56;
      }

      .st149 {
        fill: #a88746;
      }

      .st150 {
        fill: #835d25;
      }

      .st151 {
        fill: #b3944f;
      }

      .st152 {
        fill: #a27f3e;
      }

      .st153 {
        fill: #d1b76d;
      }

      .st154 {
        fill: #c0a35c;
      }

      .st155 {
        fill: #9f7c3e;
      }

      .st156 {
        fill: #8a642a;
      }

      .st157 {
        fill: #bd9f58;
      }

      .st158 {
        fill: #d5bd71;
      }

      .st159 {
        fill: #aa8845;
      }

      .st160 {
        fill: #b89953;
      }

      .st161 {
        fill: #ab8a47;
      }

      .st162 {
        fill: #8b662e;
      }

      .st163 {
        fill: #977337;
      }

      .st164 {
        fill: #a68341;
      }

      .st165 {
        fill: #c4a860;
      }

      .st166 {
        fill: #957032;
      }

      .st167 {
        fill: #815b24;
      }

      .st168 {
        fill: #987334;
      }

      .st169 {
        fill: #d4bc70;
      }

      .st170 {
        fill: #c3a760;
      }

      .st171 {
        fill: #8e6930;
      }

      .st172 {
        fill: #977234;
      }

      .st173 {
        fill: #a58444;
      }

      .st174 {
        fill: #bea059;
      }

      .st175 {
        fill: #b99b56;
      }

      .st176 {
        clip-path: url(#clippath);
      }

      .st177 {
        fill: #906c32;
      }

      .st178 {
        fill: #b4954f;
      }

      .st179 {
        fill: #d7be72;
      }

      .st180 {
        fill: #cdb269;
      }

      .st181 {
        fill: #9e7b3d;
      }

      .st182 {
        fill: #936e31;
      }

      .st183 {
        fill: #c0a45d;
      }

      .st184 {
        fill: #9d7a3c;
      }

      .st185 {
        fill: #c2a65f;
      }

      .st186 {
        fill: #bda05a;
      }

      .st187 {
        fill: #a28041;
      }

      .st188 {
        fill: #947035;
      }

      .st189 {
        fill: #987435;
      }

      .st190 {
        fill: #b89a55;
      }

      .st191 {
        fill: #bc9e57;
      }

      .st192 {
        fill: #a68545;
      }

      .st193 {
        fill: #9a7636;
      }

      .st194 {
        fill: #8d672c;
      }
    </style>
    <clipPath id="clippath">
      <path class="st62" d="M41.7,53.2c-.9,0-1.8-.3-2.6-.8-1.2-.8-1.8-1.9-1.8-3.3s.3-2.4.6-3.2c0-.2.1-.4.2-.6.4-1.5-.5-2.1-.5-2.1-.4-.2-1.5-.6-1.9-.3-.2.2-.3.8,0,1.6.7,2.5-.6,3.5-1.4,3.8-.8.4-1.8.3-2.6-.2-1.1-.7-1.4-2-.8-3.5,0-.2.1-.4.1-.6,0-.3-.2-.5-.5-.5h-10.9c1.2,11,10.5,19.6,21.8,19.6s20.9-8.8,21.8-20h-10.9c-.2,0-.4,0-.6.2s-.2.3,0,.7c.2.3.4.7.5,1,.3.8.2,1.7-.3,2.4-.6.8-1.5,1.2-2.7,1-.7-.1-1.4-.5-1.8-1.1-.4-.5-.7-1.4-.2-2.5v-.2c.2-.5,0-1-.3-1.3-.3-.3-.8-.4-1.2-.2-1.1.6-.7,2.4-.6,2.5,1.3,4,0,5.8-1.2,6.7-.7.5-1.5.7-2.4.7l.2.2Z"/>
    </clipPath>
    <clipPath id="clippath-1">
      <rect class="st62" x="19.6" y="42.6" width="43.7" height="20.5"/>
    </clipPath>
  </defs>
  <g id="fundo" class="st135">
    <rect class="st22" x="-85.1" y="-79.5" width="259.2" height="259.2"/>
  </g>
  <g>
    <g class="st176">
      <g class="st88">
        <g>
          <polygon class="st26" points="25 42.6 19.6 52.1 19.6 42.6 25 42.6"/>
          <polygon class="st26" points="25.2 42.6 19.6 52.5 19.6 52.1 25 42.6 25.2 42.6"/>
          <polygon class="st79" points="25.4 42.6 19.6 52.9 19.6 52.5 25.2 42.6 25.4 42.6"/>
          <polygon class="st40" points="25.6 42.6 19.6 53.3 19.6 52.9 25.4 42.6 25.6 42.6"/>
          <polygon class="st49" points="25.9 42.6 19.6 53.7 19.6 53.3 25.6 42.6 25.9 42.6"/>
          <polygon class="st23" points="26.1 42.6 19.6 54.1 19.6 53.7 25.9 42.6 26.1 42.6"/>
          <polygon class="st70" points="26.3 42.6 19.6 54.5 19.6 54.1 26.1 42.6 26.3 42.6"/>
          <polygon class="st162" points="26.5 42.6 19.6 54.9 19.6 54.5 26.3 42.6 26.5 42.6"/>
          <polygon class="st129" points="26.8 42.6 19.6 55.3 19.6 54.9 26.5 42.6 26.8 42.6"/>
          <polygon class="st142" points="27 42.6 19.6 55.7 19.6 55.3 26.8 42.6 27 42.6"/>
          <polygon class="st78" points="27.2 42.6 19.6 56.1 19.6 55.7 27 42.6 27.2 42.6"/>
          <polygon class="st171" points="27.4 42.6 19.6 56.4 19.6 56.1 27.2 42.6 27.4 42.6"/>
          <polygon class="st111" points="27.6 42.6 19.6 56.8 19.6 56.4 27.4 42.6 27.6 42.6"/>
          <polygon class="st118" points="27.9 42.6 19.6 57.2 19.6 56.8 27.6 42.6 27.9 42.6"/>
          <polygon class="st177" points="28.1 42.6 19.6 57.6 19.6 57.2 27.9 42.6 28.1 42.6"/>
          <polygon class="st42" points="28.3 42.6 19.6 58 19.6 57.6 28.1 42.6 28.3 42.6"/>
          <polygon class="st2" points="28.5 42.6 19.6 58.4 19.6 58 28.3 42.6 28.5 42.6"/>
          <polygon class="st147" points="28.8 42.6 19.6 58.8 19.6 58.4 28.5 42.6 28.8 42.6"/>
          <polygon class="st130" points="29 42.6 19.6 59.2 19.6 58.8 28.8 42.6 29 42.6"/>
          <polygon class="st188" points="29.2 42.6 19.6 59.6 19.6 59.2 29 42.6 29.2 42.6"/>
          <polygon class="st120" points="29.4 42.6 19.6 60 19.6 59.6 29.2 42.6 29.4 42.6"/>
          <polygon class="st108" points="29.6 42.6 19.6 60.4 19.6 60 29.4 42.6 29.6 42.6"/>
          <polygon class="st163" points="29.9 42.6 19.6 60.8 19.6 60.4 29.6 42.6 29.9 42.6"/>
          <polygon class="st50" points="30.1 42.6 19.6 61.2 19.6 60.8 29.9 42.6 30.1 42.6"/>
          <polygon class="st103" points="30.3 42.6 19.6 61.6 19.6 61.2 30.1 42.6 30.3 42.6"/>
          <polygon class="st72" points="30.5 42.6 19.6 62 19.6 61.6 30.3 42.6 30.5 42.6"/>
          <polygon class="st123" points="30.8 42.6 19.6 62.4 19.6 62 30.5 42.6 30.8 42.6"/>
          <polygon class="st81" points="31 42.6 19.6 62.8 19.6 62.4 30.8 42.6 31 42.6"/>
          <polygon class="st37" points="31.2 42.6 19.6 63.1 19.6 63.1 19.6 62.8 31 42.6 31.2 42.6"/>
          <polygon class="st14" points="31.4 42.6 19.8 63.1 19.6 63.1 31.2 42.6 31.4 42.6"/>
          <polygon class="st184" points="31.7 42.6 20.1 63.1 19.8 63.1 31.4 42.6 31.7 42.6"/>
          <polygon class="st181" points="31.9 42.6 20.3 63.1 20.1 63.1 31.7 42.6 31.9 42.6"/>
          <polygon class="st155" points="32.1 42.6 20.5 63.1 20.3 63.1 31.9 42.6 32.1 42.6"/>
          <polygon class="st101" points="32.3 42.6 20.7 63.1 20.5 63.1 32.1 42.6 32.3 42.6"/>
          <polygon class="st4" points="32.5 42.6 21 63.1 20.7 63.1 32.3 42.6 32.5 42.6"/>
          <polygon class="st113" points="32.8 42.6 21.2 63.1 21 63.1 32.5 42.6 32.8 42.6"/>
          <polygon class="st187" points="33 42.6 21.4 63.1 21.2 63.1 32.8 42.6 33 42.6"/>
          <polygon class="st17" points="33.2 42.6 21.6 63.1 21.4 63.1 33 42.6 33.2 42.6"/>
          <polygon class="st11" points="33.4 42.6 21.9 63.1 21.6 63.1 33.2 42.6 33.4 42.6"/>
          <polygon class="st15" points="33.7 42.6 22.1 63.1 21.9 63.1 33.4 42.6 33.7 42.6"/>
          <polygon class="st173" points="33.9 42.6 22.3 63.1 22.1 63.1 33.7 42.6 33.9 42.6"/>
          <polygon class="st192" points="34.1 42.6 22.5 63.1 22.3 63.1 33.9 42.6 34.1 42.6"/>
          <polygon class="st127" points="34.3 42.6 22.7 63.1 22.5 63.1 34.1 42.6 34.3 42.6"/>
          <polygon class="st149" points="34.6 42.6 23 63.1 22.7 63.1 34.3 42.6 34.6 42.6"/>
          <polygon class="st137" points="34.8 42.6 23.2 63.1 23 63.1 34.6 42.6 34.8 42.6"/>
          <polygon class="st24" points="35 42.6 23.4 63.1 23.2 63.1 34.8 42.6 35 42.6"/>
          <polygon class="st131" points="35.2 42.6 23.6 63.1 23.4 63.1 35 42.6 35.2 42.6"/>
          <polygon class="st146" points="35.4 42.6 23.9 63.1 23.6 63.1 35.2 42.6 35.4 42.6"/>
          <polygon class="st5" points="35.7 42.6 24.1 63.1 23.9 63.1 35.4 42.6 35.7 42.6"/>
          <polygon class="st136" points="35.9 42.6 24.3 63.1 24.1 63.1 35.7 42.6 35.9 42.6"/>
          <polygon class="st114" points="36.1 42.6 24.5 63.1 24.3 63.1 35.9 42.6 36.1 42.6"/>
          <polygon class="st75" points="36.3 42.6 24.7 63.1 24.5 63.1 36.1 42.6 36.3 42.6"/>
          <polygon class="st102" points="36.6 42.6 25 63.1 24.7 63.1 36.3 42.6 36.6 42.6"/>
          <polygon class="st117" points="36.8 42.6 25.2 63.1 25 63.1 36.6 42.6 36.8 42.6"/>
          <polygon class="st56" points="37 42.6 25.4 63.1 25.2 63.1 36.8 42.6 37 42.6"/>
          <polygon class="st55" points="37.2 42.6 25.6 63.1 25.4 63.1 37 42.6 37.2 42.6"/>
          <polygon class="st125" points="37.4 42.6 25.9 63.1 25.6 63.1 37.2 42.6 37.4 42.6"/>
          <polygon class="st104" points="37.7 42.6 26.1 63.1 25.9 63.1 37.4 42.6 37.7 42.6"/>
          <polygon class="st87" points="37.9 42.6 26.3 63.1 26.1 63.1 37.7 42.6 37.9 42.6"/>
          <polygon class="st92" points="38.1 42.6 26.5 63.1 26.3 63.1 37.9 42.6 38.1 42.6"/>
          <polygon class="st54" points="38.3 42.6 26.8 63.1 26.5 63.1 38.1 42.6 38.3 42.6"/>
          <polygon class="st190" points="38.6 42.6 27 63.1 26.8 63.1 38.3 42.6 38.6 42.6"/>
          <polygon class="st175" points="38.8 42.6 27.2 63.1 27 63.1 38.6 42.6 38.8 42.6"/>
          <polygon class="st45" points="39 42.6 27.4 63.1 27.2 63.1 38.8 42.6 39 42.6"/>
          <polygon class="st89" points="39.2 42.6 27.6 63.1 27.4 63.1 39 42.6 39.2 42.6"/>
          <polygon class="st53" points="39.5 42.6 27.9 63.1 27.6 63.1 39.2 42.6 39.5 42.6"/>
          <polygon class="st94" points="39.7 42.6 28.1 63.1 27.9 63.1 39.5 42.6 39.7 42.6"/>
          <polygon class="st186" points="39.9 42.6 28.3 63.1 28.1 63.1 39.7 42.6 39.9 42.6"/>
          <polygon class="st68" points="40.1 42.6 28.5 63.1 28.3 63.1 39.9 42.6 40.1 42.6"/>
          <polygon class="st86" points="40.3 42.6 28.8 63.1 28.5 63.1 40.1 42.6 40.3 42.6"/>
          <polygon class="st183" points="40.6 42.6 29 63.1 28.8 63.1 40.3 42.6 40.6 42.6"/>
          <polygon class="st91" points="40.8 42.6 29.2 63.1 29 63.1 40.6 42.6 40.8 42.6"/>
          <polygon class="st185" points="41 42.6 29.4 63.1 29.2 63.1 40.8 42.6 41 42.6"/>
          <polygon class="st170" points="41.2 42.6 29.7 63.1 29.4 63.1 41 42.6 41.2 42.6"/>
          <polygon class="st96" points="41.5 42.6 29.9 63.1 29.7 63.1 41.2 42.6 41.5 42.6"/>
          <polygon class="st27" points="41.7 42.6 30.1 63.1 29.9 63.1 41.5 42.6 41.7 42.6"/>
          <polygon class="st83" points="41.9 42.6 30.3 63.1 30.1 63.1 41.7 42.6 41.9 42.6"/>
          <polygon class="st46" points="42.1 42.6 30.5 63.1 30.3 63.1 41.9 42.6 42.1 42.6"/>
          <polygon class="st41" points="42.4 42.6 30.8 63.1 30.5 63.1 42.1 42.6 42.4 42.6"/>
          <polygon class="st20" points="42.6 42.6 31 63.1 30.8 63.1 42.4 42.6 42.6 42.6"/>
          <polygon class="st0" points="42.8 42.6 31.2 63.1 31 63.1 42.6 42.6 42.8 42.6"/>
          <polygon class="st34" points="43 42.6 31.4 63.1 31.2 63.1 42.8 42.6 43 42.6"/>
          <polygon class="st107" points="43.2 42.6 31.7 63.1 31.4 63.1 43 42.6 43.2 42.6"/>
          <polygon class="st13" points="43.5 42.6 31.9 63.1 31.7 63.1 43.2 42.6 43.5 42.6"/>
          <polygon class="st51" points="43.7 42.6 32.1 63.1 31.9 63.1 43.5 42.6 43.7 42.6"/>
          <polygon class="st59" points="43.9 42.6 32.3 63.1 32.1 63.1 43.7 42.6 43.9 42.6"/>
          <polygon class="st128" points="44.1 42.6 32.5 63.1 32.3 63.1 43.9 42.6 44.1 42.6"/>
          <polygon class="st71" points="44.4 42.6 32.8 63.1 32.5 63.1 44.1 42.6 44.4 42.6"/>
          <polygon class="st121" points="44.6 42.6 33 63.1 32.8 63.1 44.4 42.6 44.6 42.6"/>
          <polygon class="st122" points="44.8 42.6 33.2 63.1 33 63.1 44.6 42.6 44.8 42.6"/>
          <polygon class="st169" points="45 42.6 33.4 63.1 33.2 63.1 44.8 42.6 45 42.6"/>
          <polygon class="st158" points="45.2 42.6 33.7 63.1 33.4 63.1 45 42.6 45.2 42.6"/>
          <polygon class="st179" points="45.5 42.6 33.9 63.1 33.7 63.1 45.2 42.6 45.5 42.6"/>
          <polygon class="st18" points="45.7 42.6 34.1 63.1 33.9 63.1 45.5 42.6 45.7 42.6"/>
          <polygon class="st95" points="45.9 42.6 34.3 63.1 34.1 63.1 45.7 42.6 45.9 42.6"/>
          <polygon class="st98" points="46.1 42.6 34.6 63.1 34.3 63.1 45.9 42.6 46.1 42.6"/>
          <polygon class="st100" points="46.4 42.6 34.8 63.1 34.6 63.1 46.1 42.6 46.4 42.6"/>
          <polygon class="st99" points="46.6 42.6 35 63.1 34.8 63.1 46.4 42.6 46.6 42.6"/>
          <polygon class="st99" points="46.8 42.6 35.2 63.1 35 63.1 46.6 42.6 46.8 42.6"/>
          <polygon class="st100" points="47 42.6 35.4 63.1 35.2 63.1 46.8 42.6 47 42.6"/>
          <polygon class="st140" points="47.2 42.6 35.6 63.1 35.4 63.1 47 42.6 47.2 42.6"/>
          <polygon class="st95" points="47.5 42.6 35.9 63.1 35.6 63.1 47.2 42.6 47.5 42.6"/>
          <polygon class="st18" points="47.7 42.6 36.1 63.1 35.9 63.1 47.5 42.6 47.7 42.6"/>
          <polygon class="st74" points="47.9 42.6 36.3 63.1 36.1 63.1 47.7 42.6 47.9 42.6"/>
          <polygon class="st158" points="48.1 42.6 36.5 63.1 36.3 63.1 47.9 42.6 48.1 42.6"/>
          <polygon class="st115" points="48.3 42.6 36.7 63.1 36.5 63.1 48.1 42.6 48.3 42.6"/>
          <polygon class="st122" points="48.5 42.6 36.9 63.1 36.7 63.1 48.3 42.6 48.5 42.6"/>
          <polygon class="st121" points="48.8 42.6 37.2 63.1 36.9 63.1 48.5 42.6 48.8 42.6"/>
          <polygon class="st153" points="49 42.6 37.4 63.1 37.2 63.1 48.8 42.6 49 42.6"/>
          <polygon class="st128" points="49.2 42.6 37.6 63.1 37.4 63.1 49 42.6 49.2 42.6"/>
          <polygon class="st59" points="49.4 42.6 37.8 63.1 37.6 63.1 49.2 42.6 49.4 42.6"/>
          <polygon class="st51" points="49.6 42.6 38 63.1 37.8 63.1 49.4 42.6 49.6 42.6"/>
          <polygon class="st180" points="49.8 42.6 38.2 63.1 38 63.1 49.6 42.6 49.8 42.6"/>
          <polygon class="st107" points="50 42.6 38.5 63.1 38.2 63.1 49.8 42.6 50 42.6"/>
          <polygon class="st34" points="50.3 42.6 38.7 63.1 38.5 63.1 50 42.6 50.3 42.6"/>
          <polygon class="st0" points="50.5 42.6 38.9 63.1 38.7 63.1 50.3 42.6 50.5 42.6"/>
          <polygon class="st36" points="50.7 42.6 39.1 63.1 38.9 63.1 50.5 42.6 50.7 42.6"/>
          <polygon class="st134" points="50.9 42.6 39.3 63.1 39.1 63.1 50.7 42.6 50.9 42.6"/>
          <polygon class="st1" points="51.1 42.6 39.5 63.1 39.3 63.1 50.9 42.6 51.1 42.6"/>
          <polygon class="st47" points="51.3 42.6 39.8 63.1 39.5 63.1 51.1 42.6 51.3 42.6"/>
          <polygon class="st132" points="51.6 42.6 40 63.1 39.8 63.1 51.3 42.6 51.6 42.6"/>
          <polygon class="st165" points="51.8 42.6 40.2 63.1 40 63.1 51.6 42.6 51.8 42.6"/>
          <polygon class="st38" points="52 42.6 40.4 63.1 40.2 63.1 51.8 42.6 52 42.6"/>
          <polygon class="st77" points="52.2 42.6 40.6 63.1 40.4 63.1 52 42.6 52.2 42.6"/>
          <polygon class="st85" points="52.4 42.6 40.8 63.1 40.6 63.1 52.2 42.6 52.4 42.6"/>
          <polygon class="st154" points="52.6 42.6 41.1 63.1 40.8 63.1 52.4 42.6 52.6 42.6"/>
          <polygon class="st133" points="52.9 42.6 41.3 63.1 41.1 63.1 52.6 42.6 52.9 42.6"/>
          <polygon class="st7" points="53.1 42.6 41.5 63.1 41.3 63.1 52.9 42.6 53.1 42.6"/>
          <polygon class="st174" points="53.3 42.6 41.7 63.1 41.5 63.1 53.1 42.6 53.3 42.6"/>
          <polygon class="st157" points="53.5 42.6 41.9 63.1 41.7 63.1 53.3 42.6 53.5 42.6"/>
          <polygon class="st191" points="53.7 42.6 42.1 63.1 41.9 63.1 53.5 42.6 53.7 42.6"/>
          <polygon class="st148" points="53.9 42.6 42.4 63.1 42.1 63.1 53.7 42.6 53.9 42.6"/>
          <polygon class="st139" points="54.2 42.6 42.6 63.1 42.4 63.1 53.9 42.6 54.2 42.6"/>
          <polygon class="st66" points="54.4 42.6 42.8 63.1 42.6 63.1 54.2 42.6 54.4 42.6"/>
          <polygon class="st160" points="54.6 42.6 43 63.1 42.8 63.1 54.4 42.6 54.6 42.6"/>
          <polygon class="st67" points="54.8 42.6 43.2 63.1 43 63.1 54.6 42.6 54.8 42.6"/>
          <polygon class="st39" points="55 42.6 43.4 63.1 43.2 63.1 54.8 42.6 55 42.6"/>
          <polygon class="st126" points="55.2 42.6 43.7 63.1 43.4 63.1 55 42.6 55.2 42.6"/>
          <polygon class="st178" points="55.5 42.6 43.9 63.1 43.7 63.1 55.2 42.6 55.5 42.6"/>
          <polygon class="st151" points="55.7 42.6 44.1 63.1 43.9 63.1 55.5 42.6 55.7 42.6"/>
          <polygon class="st76" points="55.9 42.6 44.3 63.1 44.1 63.1 55.7 42.6 55.9 42.6"/>
          <polygon class="st109" points="56.1 42.6 44.5 63.1 44.3 63.1 55.9 42.6 56.1 42.6"/>
          <polygon class="st44" points="56.3 42.6 44.7 63.1 44.5 63.1 56.1 42.6 56.3 42.6"/>
          <polygon class="st12" points="56.5 42.6 45 63.1 44.7 63.1 56.3 42.6 56.5 42.6"/>
          <polygon class="st124" points="56.8 42.6 45.2 63.1 45 63.1 56.5 42.6 56.8 42.6"/>
          <polygon class="st82" points="57 42.6 45.4 63.1 45.2 63.1 56.8 42.6 57 42.6"/>
          <polygon class="st28" points="57.2 42.6 45.6 63.1 45.4 63.1 57 42.6 57.2 42.6"/>
          <polygon class="st61" points="57.4 42.6 45.8 63.1 45.6 63.1 57.2 42.6 57.4 42.6"/>
          <polygon class="st161" points="57.6 42.6 46 63.1 45.8 63.1 57.4 42.6 57.6 42.6"/>
          <polygon class="st30" points="57.8 42.6 46.2 63.1 46 63.1 57.6 42.6 57.8 42.6"/>
          <polygon class="st159" points="58.1 42.6 46.5 63.1 46.2 63.1 57.8 42.6 58.1 42.6"/>
          <polygon class="st90" points="58.3 42.6 46.7 63.1 46.5 63.1 58.1 42.6 58.3 42.6"/>
          <polygon class="st93" points="58.5 42.6 46.9 63.1 46.7 63.1 58.3 42.6 58.5 42.6"/>
          <polygon class="st105" points="58.7 42.6 47.1 63.1 46.9 63.1 58.5 42.6 58.7 42.6"/>
          <polygon class="st97" points="58.9 42.6 47.3 63.1 47.1 63.1 58.7 42.6 58.9 42.6"/>
          <polygon class="st164" points="59.1 42.6 47.5 63.1 47.3 63.1 58.9 42.6 59.1 42.6"/>
          <polygon class="st143" points="59.4 42.6 47.8 63.1 47.5 63.1 59.1 42.6 59.4 42.6"/>
          <polygon class="st106" points="59.6 42.6 48 63.1 47.8 63.1 59.4 42.6 59.6 42.6"/>
          <polygon class="st144" points="59.8 42.6 48.2 63.1 48 63.1 59.6 42.6 59.8 42.6"/>
          <polygon class="st152" points="60 42.6 48.4 63.1 48.2 63.1 59.8 42.6 60 42.6"/>
          <polygon class="st31" points="60.2 42.6 48.6 63.1 48.4 63.1 60 42.6 60.2 42.6"/>
          <polygon class="st57" points="60.4 42.6 48.8 63.1 48.6 63.1 60.2 42.6 60.4 42.6"/>
          <polygon class="st33" points="60.6 42.6 49.1 63.1 48.8 63.1 60.4 42.6 60.6 42.6"/>
          <polygon class="st48" points="60.9 42.6 49.3 63.1 49.1 63.1 60.6 42.6 60.9 42.6"/>
          <polygon class="st9" points="61.1 42.6 49.5 63.1 49.3 63.1 60.9 42.6 61.1 42.6"/>
          <polygon class="st6" points="61.3 42.6 49.7 63.1 49.5 63.1 61.1 42.6 61.3 42.6"/>
          <polygon class="st32" points="61.5 42.6 49.9 63.1 49.7 63.1 61.3 42.6 61.5 42.6"/>
          <polygon class="st8" points="61.7 42.6 50.1 63.1 49.9 63.1 61.5 42.6 61.7 42.6"/>
          <polygon class="st69" points="61.9 42.6 50.4 63.1 50.1 63.1 61.7 42.6 61.9 42.6"/>
          <polygon class="st193" points="62.2 42.6 50.6 63.1 50.4 63.1 61.9 42.6 62.2 42.6"/>
          <polygon class="st19" points="62.4 42.6 50.8 63.1 50.6 63.1 62.2 42.6 62.4 42.6"/>
          <polygon class="st189" points="62.6 42.6 51 63.1 50.8 63.1 62.4 42.6 62.6 42.6"/>
          <polygon class="st168" points="62.8 42.6 51.2 63.1 51 63.1 62.6 42.6 62.8 42.6"/>
          <polygon class="st172" points="63 42.6 51.4 63.1 51.2 63.1 62.8 42.6 63 42.6"/>
          <polygon class="st60" points="63.2 42.6 51.7 63.1 51.4 63.1 63 42.6 63.2 42.6"/>
          <polygon class="st166" points="63.3 43 51.9 63.1 51.7 63.1 63.2 42.6 63.3 42.6 63.3 43"/>
          <polygon class="st52" points="63.3 43.3 52.1 63.1 51.9 63.1 63.3 43 63.3 43.3"/>
          <polygon class="st64" points="63.3 43.7 52.3 63.1 52.1 63.1 63.3 43.3 63.3 43.7"/>
          <polygon class="st182" points="63.3 44.1 52.5 63.1 52.3 63.1 63.3 43.7 63.3 44.1"/>
          <polygon class="st16" points="63.3 44.5 52.7 63.1 52.5 63.1 63.3 44.1 63.3 44.5"/>
          <polygon class="st110" points="63.3 44.9 53 63.1 52.7 63.1 63.3 44.5 63.3 44.9"/>
          <polygon class="st80" points="63.3 45.3 53.2 63.1 53 63.1 63.3 44.9 63.3 45.3"/>
          <polygon class="st58" points="63.3 45.6 53.4 63.1 53.2 63.1 63.3 45.3 63.3 45.6"/>
          <polygon class="st145" points="63.3 46 53.6 63.1 53.4 63.1 63.3 45.6 63.3 46"/>
          <polygon class="st25" points="63.3 46.4 53.8 63.1 53.6 63.1 63.3 46 63.3 46.4"/>
          <polygon class="st73" points="63.3 46.8 54 63.1 53.8 63.1 63.3 46.4 63.3 46.8"/>
          <polygon class="st194" points="63.3 47.2 54.3 63.1 54 63.1 63.3 46.8 63.3 47.2"/>
          <polygon class="st10" points="63.3 47.6 54.5 63.1 54.3 63.1 63.3 47.2 63.3 47.6"/>
          <polygon class="st116" points="63.3 47.9 54.7 63.1 54.5 63.1 63.3 47.6 63.3 47.9"/>
          <polygon class="st156" points="63.3 48.3 54.9 63.1 54.7 63.1 63.3 47.9 63.3 48.3"/>
          <polygon class="st35" points="63.3 48.7 55.1 63.1 54.9 63.1 63.3 48.3 63.3 48.7"/>
          <polygon class="st65" points="63.3 49.1 55.3 63.1 55.1 63.1 63.3 48.7 63.3 49.1"/>
          <polygon class="st141" points="63.3 49.5 55.6 63.1 55.3 63.1 63.3 49.1 63.3 49.5"/>
          <polygon class="st112" points="63.3 49.9 55.8 63.1 55.6 63.1 63.3 49.5 63.3 49.9"/>
          <polygon class="st43" points="63.3 50.2 56 63.1 55.8 63.1 63.3 49.9 63.3 50.2"/>
          <polygon class="st84" points="63.3 50.6 56.2 63.1 56 63.1 63.3 50.2 63.3 50.6"/>
          <polygon class="st3" points="63.3 51 56.4 63.1 56.2 63.1 63.3 50.6 63.3 51"/>
          <polygon class="st63" points="63.3 51.4 56.6 63.1 56.4 63.1 63.3 51 63.3 51.4"/>
          <polygon class="st150" points="63.3 51.8 56.8 63.1 56.6 63.1 63.3 51.4 63.3 51.8"/>
          <polygon class="st138" points="63.3 52.2 57.1 63.1 56.8 63.1 63.3 51.8 63.3 52.2"/>
          <polygon class="st29" points="63.3 52.5 57.3 63.1 57.1 63.1 63.3 52.2 63.3 52.5"/>
          <polygon class="st167" points="63.3 52.9 57.5 63.1 57.3 63.1 63.3 52.5 63.3 52.9"/>
          <polygon class="st167" points="57.5 63.1 63.3 52.9 63.3 63.1 57.5 63.1"/>
        </g>
      </g>
    </g>
    <path class="st119" d="M47,50.4c0,.8.7,1.5,1.5,1.5s1.5-.7,1.5-1.5-.7-1.5-1.5-1.5-1.5.7-1.5,1.5M24,49.2c0,.6.5,1.1,1.1,1.1s1.1-.5,1.1-1.1-.5-1.1-1.1-1.1-1.1.5-1.1,1.1ZM31.2,49.3c0,.3.2.5.5.5s.5-.2.5-.5-.2-.5-.5-.5-.5.2-.5.5ZM57.2,45.5c0,.3.2.5.5.5s.5-.2.5-.5-.2-.5-.5-.5-.5.2-.5.5ZM28.3,50.4c0,.3.2.5.5.5s.5-.2.5-.5-.2-.5-.5-.5-.5.2-.5.5ZM27.5,45.8c0,.3.2.5.5.5s.5-.2.5-.5-.2-.5-.5-.5-.5.2-.5.5ZM53.4,48.4c0,.3.2.5.5.5s.5-.2.5-.5-.2-.5-.5-.5-.5.2-.5.5ZM54.4,12.6s-11.3,9.6-14.9,32.7c0,.4-.2.8-.4,1.2-.4.9-1,2.9.4,4.2.9.8,2.2,1,3.3.5,1.1-.5,2.2-1.7,1.4-4.9-1.4-5.6.8-22.6,10.1-33.7h0ZM38.3,31.4s-4.6,3.9-6.1,13.3c0,.2,0,.3-.1.5-.2.4-.4,1.2.2,1.7.4.3.9.4,1.3.2s.9-.7.6-2c-.6-2.3.3-9.2,4.1-13.7ZM52.3,30.6s-3.8,4.6-3.6,14.1v.5c0,.4-.2,1.2.5,1.6.4.3,1,.2,1.4,0,.4-.3.7-.9.2-2.1-1-2.1-1.3-9.1,1.6-14.2h-.1ZM63.3,43.1c-1,11.2-10.4,20-21.8,20s-20.6-8.6-21.8-19.6h10.9c.3,0,.5.2.5.5h0c0,.2,0,.4-.1.6-.6,1.5-.3,2.8.8,3.5.8.5,1.7.6,2.6.2.8-.4,2-1.3,1.4-3.8-.2-.8-.2-1.4,0-1.6.4-.3,1.4,0,1.9.3,0,0,.9.5.5,2.1,0,.2-.1.4-.2.6-.3.9-.6,2-.6,3.2s.6,2.6,1.8,3.3c.8.5,1.7.8,2.6.8s1.7-.2,2.4-.7c1.3-.9,2.5-2.7,1.2-6.7,0,0-.5-1.9.6-2.5.4-.2.9,0,1.2.2s.5.7.3,1.3v.2c-.5,1.1,0,2,.2,2.5.4.6,1,1,1.8,1.1,1.2.2,2.1-.2,2.7-1,.5-.7.6-1.6.3-2.4,0-.3-.3-.7-.5-1-.2-.4,0-.5,0-.7s.3-.2.6-.2h10.9l-.2-.2ZM37.5,18.6c-10.8,1.8-19.1,11.3-19.1,22.6s10.3,22.9,22.9,22.9,10.5-1.9,14.4-5.1l1.4,1.7c-.7.6-.9,1.6-.2,2.4l10.9,12.8c.6.7,1.6.8,2.3.2l1.2-1c.7-.6.8-1.6.2-2.3l-10.9-12.8c-.6-.7-1.6-.8-2.3-.2h0l-1.4-1.6c4.6-4.2,7.5-10.2,7.5-16.9s-.9-7.4-2.6-10.6h-1.1c1.7,3.1,2.7,6.7,2.7,10.6s0,.7,0,1.1h-10.9c-.5,0-.9.2-1.2.6-.2.3-.5.9,0,1.7.2.3.3.5.4.8.2.6,0,1.2-.2,1.7-.4.6-1,.8-1.9.7-.5,0-.9-.3-1.2-.7-.3-.5-.4-1.1,0-1.7v-.2c.3-.8,0-1.6-.5-2.2-.6-.5-1.4-.7-2.1-.3-1.8.9-1.1,3.3-1.1,3.4h0c.5,1.6.6,2.9.4,4-.2.8-.6,1.4-1.3,1.8-1.2.8-2.8.8-4,0-2.1-1.4-1.4-3.9-.9-5.6,0-.2.1-.4.2-.6.5-2.2-.9-3-1-3-.2,0-1.9-.9-2.8-.2-.5.4-.6,1.2-.3,2.4.4,1.5,0,2.4-.9,2.9-.6.3-1.3.2-1.8,0-1-.6-.7-1.8-.4-2.5.1-.3.2-.6.2-.9h0c0-.7-.6-1.3-1.3-1.3h-11v-1.5c0-10.8,7.8-19.8,18.1-21.6v-1l-.3-.4ZM32.6,50.4c0,.6.5,1.1,1.1,1.1s1.1-.5,1.1-1.1-.5-1.1-1.1-1.1-1.1.5-1.1,1.1Z"/>
    <path class="st21" d="M26.1,49.2c0,.6-.5,1.1-1.1,1.1s-1.1-.5-1.1-1.1.5-1.1,1.1-1.1,1.1.5,1.1,1.1M57.7,46c-.3,0-.5-.2-.5-.5s.2-.5.5-.5.5.2.5.5-.2.5-.5.5ZM29.3,50.4c0,.3-.2.5-.5.5s-.5-.2-.5-.5.2-.5.5-.5.5.2.5.5ZM28,46.3c-.3,0-.5-.2-.5-.5s.2-.5.5-.5.5.2.5.5-.2.5-.5.5ZM32.2,49.3c0,.3-.2.5-.5.5s-.5-.2-.5-.5.2-.5.5-.5.5.2.5.5ZM53.9,48.9c-.3,0-.5-.2-.5-.5s.2-.5.5-.5.5.2.5.5-.2.5-.5.5ZM33.7,51.4c-.6,0-1.1-.5-1.1-1.1s.5-1.1,1.1-1.1,1.1.5,1.1,1.1-.5,1.1-1.1,1.1ZM48.5,51.8c-.8,0-1.5-.7-1.5-1.5s.7-1.5,1.5-1.5,1.5.7,1.5,1.5-.7,1.5-1.5,1.5Z"/>
    <path class="st119" d="M19.8,43.5c.2,2.1.7,4.1,1.5,5.9,1.1,2.6,2.7,5,4.7,7,3.9,3.9,9.3,6.3,15.3,6.3s5.7-.6,8.3-1.6c2.6-1.1,5-2.7,7-4.7s3.6-4.4,4.7-7c.8-2,1.4-4.1,1.6-6.3h.4c-1,11.2-10.4,20-21.8,20s-20.6-8.6-21.8-19.6h.2-.1ZM50.9,20.3h0c2.7,1.2,4.6,2.6,6.6,4.6s3.1,3.6,4.2,5.7h-1.1c1.7,3.1,2.7,6.7,2.7,10.6s0,.7,0,1.1h-.4v-1.1c0-2.9-.6-5.7-1.6-8.3-1.1-2.6-2.7-5-4.7-7-1.9-1.9-3.7-3.3-6.2-4.3,0,0,.3.1,0,0,.2-.4.3-.9.5-1.3ZM41.3,18.2c1.9,0,3.8.2,5.6.7-.2.4-.4.8-.6,1.3-1.6-.4-3.3-.6-5-.6-2.9,0-5.7.6-8.3,1.6-2.6,1.1-5,2.7-7,4.7-3.9,3.9-6.3,9.3-6.3,15.3s0,1,0,1.5h-.2v-1.5c0-10.8,7.8-19.8,18.1-21.6v-1c-10.8,1.8-19.1,11.3-19.1,22.6s10.3,22.9,22.9,22.9,8.1-1.1,11.5-3.1c-.9.5-1.8,1-2.7,1.4-2.7,1.1-5.7,1.7-8.8,1.7s-6.1-.6-8.8-1.7c-2.8-1.2-5.3-2.9-7.5-5-2.1-2.1-3.8-4.7-5-7.5-1.1-2.7-1.7-5.7-1.7-8.8s.6-6.1,1.7-8.8c1.2-2.8,2.9-5.3,5-7.5,2.1-2.1,4.6-3.8,7.5-5,2.7-1.1,5.7-1.7,8.8-1.7h-.1ZM51.5,19.1c8.4,3.4,14,13.1,14,22s-2.7,12.7-7.1,17.1c-.3.3-.6.5-.9.8l-.2-.3c.3-.3.6-.5.8-.8,4.3-4.3,7-10.3,7-16.9s-5.5-18.4-13.8-21.7l.2-.3h0ZM41.4,16.9c2,0,4,.2,5.9.7v.3c-2-.5-3.9-.7-5.9-.7-6.6,0-12.5,2.7-16.9,7-4.3,4.3-7,10.3-7,16.9s2.7,12.5,7,16.9c4.3,4.3,10.3,7,16.9,7s10.9-2,15-5.3l.2.3c-4.1,3.3-9.4,5.4-15.2,5.4s-12.7-2.7-17.1-7.1-7.1-10.4-7.1-17.1,2.7-12.7,7.1-17.1,10.4-7.1,17.1-7.1h0Z"/>
  </g>
</svg>