<?xml version="1.0" encoding="UTF-8"?>
<svg xmlns="http://www.w3.org/2000/svg" version="1.1" xmlns:xlink="http://www.w3.org/1999/xlink" viewBox="0 0 259.2 82.9">
  <!-- Generator: Adobe Illustrator 29.1.0, SVG Export Plug-In . SVG Version: 2.1.0 Build 142)  -->
  <defs>
    <style>
      .st0 {
        fill: #845e25;
      }

      .st1 {
        fill: #d0b05a;
      }

      .st2 {
        fill: #9b7737;
      }

      .st3 {
        fill: #a07e3f;
      }

      .st4 {
        fill: #a78645;
      }

      .st5 {
        fill: #a07b3a;
      }

      .st6 {
        fill: #c5a961;
      }

      .st7 {
        fill: #a07b36;
      }

      .st8 {
        fill: #a7833e;
      }

      .st9 {
        fill: #b79854;
      }

      .st10 {
        fill: #b69348;
      }

      .st11 {
        fill: #dfc166;
      }

      .st12 {
        fill: #997435;
      }

      .st13 {
        fill: #ddbe65;
      }

      .st14 {
        fill: #a58444;
      }

      .st15 {
        fill: #cdb269;
      }

      .st16 {
        fill: #aa853d;
      }

      .st17 {
        fill: #b08c41;
      }

      .st18 {
        fill: #c09f50;
      }

      .st19 {
        fill: #bc9a4d;
      }

      .st20 {
        fill: #ccac59;
      }

      .st21 {
        fill: #916b2c;
      }

      .st22 {
        fill: #977130;
      }

      .st23 {
        fill: #ba9b55;
      }

      .st24 {
        fill: #cfae59;
      }

      .st25 {
        fill: #8d6930;
      }

      .st26 {
        fill: #ad8c48;
      }

      .st27 {
        fill: #ac8b48;
      }

      .st28 {
        fill: #caaf66;
      }

      .st29 {
        fill: #916c2f;
      }

      .st30 {
        fill: #b28f46;
      }

      .st31 {
        fill: #896329;
      }

      .st32 {
        fill: #dbc376;
      }

      .st33 {
        fill: #946f31;
      }

      .st34 {
        fill: #9f7935;
      }

      .st35 {
        fill: #c7ac64;
      }

      .st36, .st37 {
        fill: #0d0c25;
      }

      .st38 {
        fill: #e4c669;
      }

      .st39 {
        fill: #dec066;
      }

      .st40 {
        fill: #b2924d;
      }

      .st41 {
        fill: #c5a351;
      }

      .st42 {
        fill: #997639;
      }

      .st43 {
        fill: #bc9e59;
      }

      .st44 {
        fill: #cbb067;
      }

      .st45 {
        fill: #8a642a;
      }

      .st46 {
        fill: #957136;
      }

      .st47 {
        fill: #ad883f;
      }

      .st48 {
        fill: #c9ae65;
      }

      .st49 {
        fill: #a9843c;
      }

      .st50 {
        fill: #ac8942;
      }

      .st51 {
        fill: #a27d37;
      }

      .st52 {
        fill: #bc9f5a;
      }

      .st53 {
        fill: #946f32;
      }

      .st54 {
        fill: #dcbd64;
      }

      .st55 {
        fill: #8b6428;
      }

      .st56 {
        fill: #aa8640;
      }

      .st57 {
        fill: #9d7a3c;
      }

      .st58 {
        fill: #8e672a;
      }

      .st59 {
        fill: #d3b35c;
      }

      .st60 {
        fill: #bea15b;
      }

      .st61 {
        fill: #a17e3d;
      }

      .st62 {
        fill: #b29350;
      }

      .st63 {
        fill: #946e2e;
      }

      .st64 {
        fill: #a4813f;
      }

      .st65 {
        fill: #b69753;
      }

      .st66 {
        fill: #d3b35e;
      }

      .st67 {
        fill: #b28e43;
      }

      .st68 {
        fill: #ccb168;
      }

      .st69 {
        fill: #a88643;
      }

      .st70 {
        fill: #8c672e;
      }

      .st71 {
        fill: #d4b45d;
      }

      .st72 {
        fill: #ae893f;
      }

      .st73 {
        fill: #ae8b43;
      }

      .st74 {
        fill: #bfa25c;
      }

      .st75 {
        fill: #cdb369;
      }

      .st76 {
        fill: #a68341;
      }

      .st77 {
        fill: #815b24;
      }

      .st78 {
        fill: #977234;
      }

      .st79 {
        fill: #cdac57;
      }

      .st80 {
        fill: #aa8845;
      }

      .st81 {
        fill: #ad8a43;
      }

      .st82 {
        fill: #9a7432;
      }

      .st83 {
        fill: #8a6328;
      }

      .st84 {
        fill: #9d7734;
      }

      .st85 {
        fill: #d4b55f;
      }

      .st86 {
        fill: #ad8d4b;
      }

      .st87 {
        fill: #aa8741;
      }

      .st88 {
        fill: #8b652a;
      }

      .st89 {
        fill: #be9d4f;
      }

      .st90 {
        fill: #edd070;
      }

      .st91 {
        fill: #c4a353;
      }

      .st92 {
        fill: #c4a860;
      }

      .st93 {
        fill: #c3a14f;
      }

      .st94 {
        fill: #c5a962;
      }

      .st95 {
        fill: #b99a54;
      }

      .st96 {
        fill: #cead58;
      }

      .st97 {
        fill: #bd9a4b;
      }

      .st98 {
        fill: #a17c36;
      }

      .st99 {
        fill: #926d30;
      }

      .st100 {
        fill: #a37e38;
      }

      .st101 {
        fill: #a6813a;
      }

      .st102 {
        fill: #967234;
      }

      .st103 {
        fill: #af8a40;
      }

      .st104 {
        fill: #ccab56;
      }

      .st105 {
        fill: #c09d4d;
      }

      .st106 {
        fill: #8e692f;
      }

      .st107 {
        fill: #866027;
      }

      .st108 {
        fill: #987538;
      }

      .st109 {
        fill: #be9b4b;
      }

      .st110 {
        fill: #987435;
      }

      .st111 {
        fill: #a98744;
      }

      .st112 {
        fill: #d2b96e;
      }

      .st113 {
        fill: #86612b;
      }

      .st114 {
        fill: #c3a760;
      }

      .st115 {
        fill: #96702f;
      }

      .st116 {
        fill: #a4803d;
      }

      .st117 {
        fill: #d1b15b;
      }

      .st118 {
        fill: #bda05a;
      }

      .st119 {
        fill: #af8e4a;
      }

      .st120 {
        fill: #9c793c;
      }

      .st121 {
        fill: #967236;
      }

      .st122 {
        fill: #a8843f;
      }

      .st123 {
        fill: #b49552;
      }

      .st124 {
        fill: #a17c3a;
      }

      .st125 {
        fill: #d6b760;
      }

      .st126 {
        fill: #977438;
      }

      .st127 {
        fill: #a98540;
      }

      .st128 {
        fill: #c9a957;
      }

      .st129 {
        fill: #906b2f;
      }

      .st130 {
        fill: #9a7536;
      }

      .st131 {
        fill: #e5c86b;
      }

      .st132 {
        fill: #c9ae66;
      }

      .st133 {
        fill: #a37f3c;
      }

      .st134 {
        fill: #9e7a39;
      }

      .st135 {
        fill: #8f6a30;
      }

      .st136 {
        fill: #af8c44;
      }

      .st137 {
        fill: #89652d;
      }

      .st138, .st139 {
        fill: none;
      }

      .st140 {
        fill: #946d2e;
      }

      .st141 {
        fill: #e9cc6d;
      }

      .st142 {
        fill: #d5b65f;
      }

      .st143 {
        fill: #d1b76d;
      }

      .st144 {
        fill: #b18e45;
      }

      .st145 {
        fill: #dcbd63;
      }

      .st146 {
        fill: #835c25;
      }

      .st147 {
        fill: #d2b25d;
      }

      .st148 {
        fill: #e8ca6d;
      }

      .st149 {
        fill: #b49044;
      }

      .st150 {
        fill: #9e7834;
      }

      .st151 {
        fill: #d9bb63;
      }

      .st152 {
        fill: #916d33;
      }

      .st153 {
        fill: #e5c76a;
      }

      .st154 {
        fill: #b89953;
      }

      .st155 {
        fill: #daba61;
      }

      .st156 {
        fill: #9a773a;
      }

      .st157 {
        fill: #c1a051;
      }

      .st158 {
        fill: #957033;
      }

      .st159 {
        fill: #cdae5a;
      }

      .st160 {
        fill: #9f7c3e;
      }

      .st161 {
        fill: #c7a552;
      }

      .st162 {
        fill: #d1b86d;
      }

      .st163 {
        fill: #c29f4e;
      }

      .st164 {
        fill: #d0b05c;
      }

      .st165 {
        fill: #bea15a;
      }

      .st166 {
        fill: #8b6529;
      }

      .st167 {
        fill: #c19e4e;
      }

      .st168 {
        fill: #dfc167;
      }

      .st169 {
        fill: #a6823e;
      }

      .st170 {
        fill: #c6aa63;
      }

      .st171 {
        fill: #dec678;
      }

      .st172 {
        fill: #b1924f;
      }

      .st173 {
        fill: #825b24;
      }

      .st174 {
        clip-path: url(#clippath-1);
      }

      .st175 {
        fill: #bb9c56;
      }

      .st176 {
        fill: #b08f4b;
      }

      .st177 {
        fill: #845e26;
      }

      .st178 {
        fill: #bfa25b;
      }

      .st179 {
        fill: #b59650;
      }

      .st180 {
        fill: #efd271;
      }

      .st181 {
        fill: #bb994d;
      }

      .st182 {
        fill: #9e7b3d;
      }

      .st183 {
        fill: #c7a755;
      }

      .st184 {
        fill: #a17f40;
      }

      .st185 {
        fill: #d5bd71;
      }

      .st186 {
        fill: #b49147;
      }

      .st187 {
        fill: #936e31;
      }

      .st188 {
        fill: #b39451;
      }

      .st189 {
        fill: #a5813d;
      }

      .st190 {
        fill: #ab8946;
      }

      .st191 {
        fill: #b1914e;
      }

      .st192 {
        fill: #ba9c57;
      }

      .st193 {
        fill: #906c32;
      }

      .st194 {
        fill: #d7be72;
      }

      .st195 {
        fill: #bd9f58;
      }

      .st196 {
        fill: #926c2d;
      }

      .st197 {
        fill: #d3ba6f;
      }

      .st198 {
        fill: #957032;
      }

      .st199 {
        fill: #e2c468;
      }

      .st200 {
        fill: #a27d3b;
      }

      .st201 {
        fill: #b99b56;
      }

      .st202 {
        fill: #88632c;
      }

      .st203 {
        fill: #936c2d;
      }

      .st204 {
        fill: #b59145;
      }

      .st205 {
        fill: #916c31;
      }

      .st206 {
        fill: #caa955;
      }

      .st207 {
        fill: #a68442;
      }

      .st208 {
        fill: #b18d42;
      }

      .st209 {
        fill: #ab8b49;
      }

      .st210 {
        fill: #d8b962;
      }

      .st211 {
        fill: #d6b75f;
      }

      .st212 {
        fill: #997536;
      }

      .st213 {
        fill: #b4954f;
      }

      .st37, .st214 {
        fill-rule: evenodd;
      }

      .st215 {
        fill: #9d7a39;
      }

      .st216 {
        fill: #c2a152;
      }

      .st217 {
        fill: #896429;
      }

      .st218 {
        fill: #9c7939;
      }

      .st219 {
        fill: #d5b55e;
      }

      .st220 {
        fill: #d0b66c;
      }

      .st221, .st214 {
        fill: #e3d8ce;
      }

      .st222 {
        fill: #a3803f;
      }

      .st223 {
        fill: #d9c174;
      }

      .st224 {
        fill: #a38142;
      }

      .st225 {
        fill: #b8954a;
      }

      .st226 {
        fill: #e2c368;
      }

      .st227 {
        fill: #a17d3c;
      }

      .st228 {
        fill: #d8b961;
      }

      .st229 {
        clip-path: url(#clippath-3);
      }

      .st230 {
        fill: #cfaf5b;
      }

      .st231 {
        fill: #8f6a31;
      }

      .st232 {
        fill: #9b7533;
      }

      .st233 {
        fill: #9b7636;
      }

      .st234 {
        fill: #8c672f;
      }

      .st235 {
        fill: #c6a452;
      }

      .st236 {
        fill: #a28041;
      }

      .st237 {
        fill: #eccf6f;
      }

      .st238 {
        fill: #dbbc62;
      }

      .st239 {
        fill: #c6aa62;
      }

      .st240 {
        fill: #835d25;
      }

      .st241 {
        fill: #a78543;
      }

      .st242 {
        fill: #ba974b;
      }

      .st243 {
        fill: #9d7938;
      }

      .st244 {
        fill: #977337;
      }

      .st245 {
        fill: #b38f43;
      }

      .st246 {
        fill: #906a2e;
      }

      .st247 {
        fill: #ceb46a;
      }

      .st248 {
        fill: #d2b25b;
      }

      .st249 {
        fill: #debf65;
      }

      .st250 {
        fill: #886228;
      }

      .st139 {
        clip-rule: evenodd;
      }

      .st251 {
        fill: #cbab58;
      }

      .st252 {
        fill: #ba9748;
      }

      .st253 {
        fill: #997332;
      }

      .st254 {
        fill: #8e6930;
      }

      .st255 {
        fill: #865f26;
      }

      .st256 {
        fill: #af8f4d;
      }

      .st257 {
        fill: #e0c267;
      }

      .st258 {
        fill: #d4bc70;
      }

      .st259 {
        fill: #a47e38;
      }

      .st260 {
        fill: #cbaa56;
      }

      .st261 {
        fill: #a98847;
      }

      .st262 {
        fill: #9f7b3b;
      }

      .st263 {
        fill: #a68545;
      }

      .st264 {
        fill: #b69245;
      }

      .st265 {
        fill: #bf9e4f;
      }

      .st266 {
        fill: #b79446;
      }

      .st267 {
        fill: #aa8a48;
      }

      .st268 {
        fill: #c0a45d;
      }

      .st269 {
        fill: #e6c96c;
      }

      .st270 {
        fill: #c8a653;
      }

      .st271 {
        fill: #926e33;
      }

      .st272 {
        fill: #a88746;
      }

      .st273 {
        fill: #9b773a;
      }

      .st274 {
        fill: #dbc375;
      }

      .st275 {
        fill: #bc994a;
      }

      .st276 {
        fill: #bb9d58;
      }

      .st277 {
        fill: #906a2c;
      }

      .st278 {
        fill: #e4c66a;
      }

      .st279 {
        fill: #987335;
      }

      .st280 {
        fill: #f2d573;
      }

      .st281 {
        fill: #ddbe64;
      }

      .st282 {
        fill: #bf9c4c;
      }

      .st283 {
        fill: #9e7a3a;
      }

      .st284 {
        display: none;
      }

      .st285 {
        fill: #8f682b;
      }

      .st286 {
        fill: #89642c;
      }

      .st287 {
        fill: #a68039;
      }

      .st288 {
        fill: #bb984c;
      }

      .st289 {
        fill: #9c7737;
      }

      .st290 {
        fill: #c5a454;
      }

      .st291 {
        fill: #ae8e4c;
      }

      .st292 {
        fill: #9a7636;
      }

      .st293 {
        fill: #ab863d;
      }

      .st294 {
        fill: #c9a754;
      }

      .st295 {
        fill: #a8833b;
      }

      .st296 {
        fill: #a27e3b;
      }

      .st297 {
        fill: #b79852;
      }

      .st298 {
        fill: #a48242;
      }

      .st299 {
        fill: #c8a856;
      }

      .st300 {
        fill: #8f692d;
      }

      .st301 {
        fill: #bea059;
      }

      .st302 {
        fill: #967133;
      }

      .st303 {
        fill: #b08d45;
      }

      .st304 {
        fill: #b59652;
      }

      .st305 {
        fill: #876026;
      }

      .st306 {
        fill: #c8ac64;
      }

      .st307 {
        fill: #a57f39;
      }

      .st308 {
        fill: #d4bb70;
      }

      .st309 {
        fill: #8d672a;
      }

      .st310 {
        fill: #b9964b;
      }

      .st311 {
        fill: #bb9849;
      }

      .st312 {
        fill: #b1904c;
      }

      .st313 {
        fill: #e9cc6e;
      }

      .st314 {
        fill: #af8b41;
      }

      .st315 {
        fill: #845d25;
      }

      .st316 {
        fill: #9c7633;
      }

      .st317 {
        fill: #956f2f;
      }

      .st318 {
        fill: #d1b15c;
      }

      .st319 {
        fill: #b89a55;
      }

      .st320 {
        fill: #c3a252;
      }

      .st321 {
        fill: #ab8a47;
      }

      .st322 {
        fill: #c0a35c;
      }

      .st323 {
        fill: #8c6629;
      }

      .st324 {
        fill: #8f6b32;
      }

      .st325 {
        fill: #c7ab63;
      }

      .st326 {
        clip-path: url(#clippath-2);
      }

      .st327 {
        fill: #8d682e;
      }

      .st328 {
        fill: #bd9c4e;
      }

      .st329 {
        fill: #a58343;
      }

      .st330 {
        fill: #8a652d;
      }

      .st331 {
        fill: #8d682f;
      }

      .st332 {
        fill: #8f692b;
      }

      .st333 {
        fill: #916d31;
      }

      .st334 {
        fill: #f1d472;
      }

      .st335 {
        fill: #dcc477;
      }

      .st336 {
        fill: #936e32;
      }

      .st337 {
        fill: #b99648;
      }

      .st338 {
        fill: #c1a55e;
      }

      .st339 {
        fill: #d7b860;
      }

      .st340 {
        fill: #c6a655;
      }

      .st341 {
        fill: #936f34;
      }

      .st342 {
        fill: #ae8d49;
      }

      .st343 {
        fill: #ab8841;
      }

      .st344 {
        fill: #9c7838;
      }

      .st345 {
        fill: #b69751;
      }

      .st346 {
        fill: #9f7b39;
      }

      .st347 {
        fill: #8d682c;
      }

      .st348 {
        fill: #a07d3f;
      }

      .st349 {
        fill: #926d32;
      }

      .st350 {
        fill: #e6c96b;
      }

      .st351 {
        fill: #d8c073;
      }

      .st352 {
        fill: #e3c568;
      }

      .st353 {
        fill: #d7b861;
      }

      .st354 {
        fill: #8b662e;
      }

      .st355 {
        fill: #b3944f;
      }

      .st356 {
        fill: #997331;
      }

      .st357 {
        fill: #dbbc63;
      }

      .st358 {
        fill: #a7823b;
      }

      .st359 {
        fill: #876128;
      }

      .st360 {
        fill: #ac8c4a;
      }

      .st361 {
        fill: #c4a861;
      }

      .st362 {
        fill: #c1a45d;
      }

      .st363 {
        fill: #a07c3b;
      }

      .st364 {
        fill: #b59248;
      }

      .st365 {
        fill: #8e692d;
      }

      .st366 {
        fill: #eacd6e;
      }

      .st367 {
        fill: #c8ad65;
      }

      .st368 {
        fill: #caaa58;
      }

      .st369 {
        clip-path: url(#clippath);
      }

      .st370 {
        fill: #906b30;
      }

      .st371 {
        fill: #876127;
      }

      .st372 {
        fill: #bc9e57;
      }

      .st373 {
        fill: #cfb56b;
      }

      .st374 {
        fill: #936f35;
      }

      .st375 {
        fill: #9f7a35;
      }

      .st376 {
        fill: #d6be72;
      }

      .st377 {
        fill: #987230;
      }

      .st378 {
        fill: #8d672c;
      }

      .st379 {
        fill: #e8ca6c;
      }

      .st380 {
        fill: #c2a55e;
      }

      .st381 {
        fill: #947035;
      }

      .st382 {
        fill: #c3a75f;
      }

      .st383 {
        fill: #b89547;
      }

      .st384 {
        fill: #865f27;
      }

      .st385 {
        fill: #896328;
      }

      .st386 {
        fill: #946f33;
      }

      .st387 {
        fill: #ac873e;
      }

      .st388 {
        fill: #c4a250;
      }

      .st389 {
        fill: #a27f3e;
      }

      .st390 {
        fill: #987334;
      }

      .st391 {
        fill: #87622b;
      }

      .st392 {
        fill: #aa8948;
      }

      .st393 {
        fill: #e3c569;
      }

      .st394 {
        fill: #977334;
      }

      .st395 {
        fill: #855f26;
      }

      .st396 {
        fill: #8c682f;
      }

      .st397 {
        fill: #9b783b;
      }

      .st398 {
        fill: #b79449;
      }

      .st399 {
        fill: #8c662b;
      }

      .st400 {
        fill: #b3934e;
      }

      .st401 {
        fill: #886227;
      }

      .st402 {
        fill: #b39046;
      }

      .st403 {
        fill: #b0904d;
      }

      .st404 {
        fill: #c2a65f;
      }

      .st405 {
        fill: #8b662d;
      }

      .st406 {
        fill: #a58240;
      }
    </style>
    <clipPath id="clippath">
      <path class="st139" d="M32.2,55.4c-.9,0-1.8-.3-2.6-.8-1.2-.8-1.8-1.9-1.8-3.3,0-1.2.3-2.4.6-3.2,0-.2.1-.4.2-.6.4-1.5-.5-2.1-.5-2.1-.4-.2-1.5-.6-1.9-.3-.2.2-.3.8,0,1.6.7,2.5-.6,3.5-1.4,3.8-.8.4-1.8.3-2.6-.2-1.1-.7-1.4-2-.8-3.5,0-.2.1-.4.1-.6h0c0-.3-.2-.5-.5-.5h-10.9c1.2,11,10.5,19.6,21.8,19.6s20.9-8.8,21.8-20h-10.9c-.2,0-.4,0-.6.2-.1.1-.2.3,0,.7.2.3.4.7.5,1,.3.8.2,1.7-.3,2.4-.6.8-1.5,1.2-2.7,1-.7-.1-1.4-.5-1.8-1.1-.4-.5-.7-1.4-.2-2.5,0,0,0-.1,0-.2.2-.5,0-1-.3-1.3-.3-.3-.8-.4-1.2-.2-1.1.6-.7,2.4-.6,2.5,1.3,4,0,5.8-1.2,6.7-.7.5-1.5.7-2.4.7"/>
    </clipPath>
    <clipPath id="clippath-1">
      <rect class="st138" x="10.1" y="44.8" width="43.7" height="20.5"/>
    </clipPath>
    <clipPath id="clippath-2">
      <rect class="st138" x="65.5" y="46.9" width="185.4" height=".9"/>
    </clipPath>
    <clipPath id="clippath-3">
      <rect class="st138" x="65.5" y="46.9" width="185.4" height=".9"/>
    </clipPath>
  </defs>
  <g id="fundo" class="st284">
    <rect class="st221" y="-82.5" width="259.2" height="259.2"/>
  </g>
  <g id="Camada_1">
    <g class="st369">
      <g class="st174">
        <polygon class="st113" points="15.5 44.8 10.1 54.3 10.1 44.8 15.5 44.8"/>
        <polygon class="st113" points="15.7 44.8 10.1 54.7 10.1 54.3 15.5 44.8 15.7 44.8"/>
        <polygon class="st391" points="15.9 44.8 10.1 55.1 10.1 54.7 15.7 44.8 15.9 44.8"/>
        <polygon class="st202" points="16.1 44.8 10.1 55.5 10.1 55.1 15.9 44.8 16.1 44.8"/>
        <polygon class="st286" points="16.4 44.8 10.1 55.9 10.1 55.5 16.1 44.8 16.4 44.8"/>
        <polygon class="st137" points="16.6 44.8 10.1 56.3 10.1 55.9 16.4 44.8 16.6 44.8"/>
        <polygon class="st330" points="16.8 44.8 10.1 56.7 10.1 56.3 16.6 44.8 16.8 44.8"/>
        <polygon class="st354" points="17 44.8 10.1 57.1 10.1 56.7 16.8 44.8 17 44.8"/>
        <polygon class="st234" points="17.3 44.8 10.1 57.5 10.1 57.1 17 44.8 17.3 44.8"/>
        <polygon class="st396" points="17.5 44.8 10.1 57.9 10.1 57.5 17.3 44.8 17.5 44.8"/>
        <polygon class="st25" points="17.7 44.8 10.1 58.3 10.1 57.9 17.5 44.8 17.7 44.8"/>
        <polygon class="st254" points="17.9 44.8 10.1 58.6 10.1 58.3 17.7 44.8 17.9 44.8"/>
        <polygon class="st231" points="18.1 44.8 10.1 59 10.1 58.6 17.9 44.8 18.1 44.8"/>
        <polygon class="st324" points="18.4 44.8 10.1 59.4 10.1 59 18.1 44.8 18.4 44.8"/>
        <polygon class="st193" points="18.6 44.8 10.1 59.8 10.1 59.4 18.4 44.8 18.6 44.8"/>
        <polygon class="st152" points="18.8 44.8 10.1 60.2 10.1 59.8 18.6 44.8 18.8 44.8"/>
        <polygon class="st271" points="19 44.8 10.1 60.6 10.1 60.2 18.8 44.8 19 44.8"/>
        <polygon class="st341" points="19.3 44.8 10.1 61 10.1 60.6 19 44.8 19.3 44.8"/>
        <polygon class="st374" points="19.5 44.8 10.1 61.4 10.1 61 19.3 44.8 19.5 44.8"/>
        <polygon class="st381" points="19.7 44.8 10.1 61.8 10.1 61.4 19.5 44.8 19.7 44.8"/>
        <polygon class="st46" points="19.9 44.8 10.1 62.2 10.1 61.8 19.7 44.8 19.9 44.8"/>
        <polygon class="st121" points="20.1 44.8 10.1 62.6 10.1 62.2 19.9 44.8 20.1 44.8"/>
        <polygon class="st244" points="20.4 44.8 10.1 63 10.1 62.6 20.1 44.8 20.4 44.8"/>
        <polygon class="st126" points="20.6 44.8 10.1 63.4 10.1 63 20.4 44.8 20.6 44.8"/>
        <polygon class="st108" points="20.8 44.8 10.1 63.8 10.1 63.4 20.6 44.8 20.8 44.8"/>
        <polygon class="st42" points="21 44.8 10.1 64.2 10.1 63.8 20.8 44.8 21 44.8"/>
        <polygon class="st156" points="21.3 44.8 10.1 64.6 10.1 64.2 21 44.8 21.3 44.8"/>
        <polygon class="st273" points="21.5 44.8 10.1 65 10.1 64.6 21.3 44.8 21.5 44.8"/>
        <polygon class="st397" points="21.7 44.8 10.1 65.3 10.1 65.3 10.1 65 21.5 44.8 21.7 44.8"/>
        <polygon class="st120" points="21.9 44.8 10.3 65.3 10.1 65.3 21.7 44.8 21.9 44.8"/>
        <polygon class="st57" points="22.2 44.8 10.6 65.3 10.3 65.3 21.9 44.8 22.2 44.8"/>
        <polygon class="st182" points="22.4 44.8 10.8 65.3 10.6 65.3 22.2 44.8 22.4 44.8"/>
        <polygon class="st160" points="22.6 44.8 11 65.3 10.8 65.3 22.4 44.8 22.6 44.8"/>
        <polygon class="st348" points="22.8 44.8 11.2 65.3 11 65.3 22.6 44.8 22.8 44.8"/>
        <polygon class="st3" points="23 44.8 11.5 65.3 11.2 65.3 22.8 44.8 23 44.8"/>
        <polygon class="st184" points="23.3 44.8 11.7 65.3 11.5 65.3 23 44.8 23.3 44.8"/>
        <polygon class="st236" points="23.5 44.8 11.9 65.3 11.7 65.3 23.3 44.8 23.5 44.8"/>
        <polygon class="st224" points="23.7 44.8 12.1 65.3 11.9 65.3 23.5 44.8 23.7 44.8"/>
        <polygon class="st298" points="23.9 44.8 12.4 65.3 12.1 65.3 23.7 44.8 23.9 44.8"/>
        <polygon class="st329" points="24.2 44.8 12.6 65.3 12.4 65.3 23.9 44.8 24.2 44.8"/>
        <polygon class="st14" points="24.4 44.8 12.8 65.3 12.6 65.3 24.2 44.8 24.4 44.8"/>
        <polygon class="st263" points="24.6 44.8 13 65.3 12.8 65.3 24.4 44.8 24.6 44.8"/>
        <polygon class="st4" points="24.8 44.8 13.2 65.3 13 65.3 24.6 44.8 24.8 44.8"/>
        <polygon class="st272" points="25.1 44.8 13.5 65.3 13.2 65.3 24.8 44.8 25.1 44.8"/>
        <polygon class="st261" points="25.3 44.8 13.7 65.3 13.5 65.3 25.1 44.8 25.3 44.8"/>
        <polygon class="st392" points="25.5 44.8 13.9 65.3 13.7 65.3 25.3 44.8 25.5 44.8"/>
        <polygon class="st267" points="25.7 44.8 14.1 65.3 13.9 65.3 25.5 44.8 25.7 44.8"/>
        <polygon class="st209" points="25.9 44.8 14.4 65.3 14.1 65.3 25.7 44.8 25.9 44.8"/>
        <polygon class="st360" points="26.2 44.8 14.6 65.3 14.4 65.3 25.9 44.8 26.2 44.8"/>
        <polygon class="st86" points="26.4 44.8 14.8 65.3 14.6 65.3 26.2 44.8 26.4 44.8"/>
        <polygon class="st291" points="26.6 44.8 15 65.3 14.8 65.3 26.4 44.8 26.6 44.8"/>
        <polygon class="st256" points="26.8 44.8 15.2 65.3 15 65.3 26.6 44.8 26.8 44.8"/>
        <polygon class="st403" points="27.1 44.8 15.5 65.3 15.2 65.3 26.8 44.8 27.1 44.8"/>
        <polygon class="st191" points="27.3 44.8 15.7 65.3 15.5 65.3 27.1 44.8 27.3 44.8"/>
        <polygon class="st172" points="27.5 44.8 15.9 65.3 15.7 65.3 27.3 44.8 27.5 44.8"/>
        <polygon class="st62" points="27.7 44.8 16.1 65.3 15.9 65.3 27.5 44.8 27.7 44.8"/>
        <polygon class="st188" points="27.9 44.8 16.4 65.3 16.1 65.3 27.7 44.8 27.9 44.8"/>
        <polygon class="st123" points="28.2 44.8 16.6 65.3 16.4 65.3 27.9 44.8 28.2 44.8"/>
        <polygon class="st304" points="28.4 44.8 16.8 65.3 16.6 65.3 28.2 44.8 28.4 44.8"/>
        <polygon class="st65" points="28.6 44.8 17 65.3 16.8 65.3 28.4 44.8 28.6 44.8"/>
        <polygon class="st9" points="28.8 44.8 17.3 65.3 17 65.3 28.6 44.8 28.8 44.8"/>
        <polygon class="st319" points="29.1 44.8 17.5 65.3 17.3 65.3 28.8 44.8 29.1 44.8"/>
        <polygon class="st201" points="29.3 44.8 17.7 65.3 17.5 65.3 29.1 44.8 29.3 44.8"/>
        <polygon class="st192" points="29.5 44.8 17.9 65.3 17.7 65.3 29.3 44.8 29.5 44.8"/>
        <polygon class="st276" points="29.7 44.8 18.1 65.3 17.9 65.3 29.5 44.8 29.7 44.8"/>
        <polygon class="st43" points="30 44.8 18.4 65.3 18.1 65.3 29.7 44.8 30 44.8"/>
        <polygon class="st52" points="30.2 44.8 18.6 65.3 18.4 65.3 30 44.8 30.2 44.8"/>
        <polygon class="st118" points="30.4 44.8 18.8 65.3 18.6 65.3 30.2 44.8 30.4 44.8"/>
        <polygon class="st60" points="30.6 44.8 19 65.3 18.8 65.3 30.4 44.8 30.6 44.8"/>
        <polygon class="st74" points="30.8 44.8 19.3 65.3 19 65.3 30.6 44.8 30.8 44.8"/>
        <polygon class="st268" points="31.1 44.8 19.5 65.3 19.3 65.3 30.8 44.8 31.1 44.8"/>
        <polygon class="st338" points="31.3 44.8 19.7 65.3 19.5 65.3 31.1 44.8 31.3 44.8"/>
        <polygon class="st404" points="31.5 44.8 19.9 65.3 19.7 65.3 31.3 44.8 31.5 44.8"/>
        <polygon class="st114" points="31.7 44.8 20.2 65.3 19.9 65.3 31.5 44.8 31.7 44.8"/>
        <polygon class="st361" points="32 44.8 20.4 65.3 20.2 65.3 31.7 44.8 32 44.8"/>
        <polygon class="st94" points="32.2 44.8 20.6 65.3 20.4 65.3 32 44.8 32.2 44.8"/>
        <polygon class="st170" points="32.4 44.8 20.8 65.3 20.6 65.3 32.2 44.8 32.4 44.8"/>
        <polygon class="st35" points="32.6 44.8 21 65.3 20.8 65.3 32.4 44.8 32.6 44.8"/>
        <polygon class="st367" points="32.9 44.8 21.3 65.3 21 65.3 32.6 44.8 32.9 44.8"/>
        <polygon class="st132" points="33.1 44.8 21.5 65.3 21.3 65.3 32.9 44.8 33.1 44.8"/>
        <polygon class="st28" points="33.3 44.8 21.7 65.3 21.5 65.3 33.1 44.8 33.3 44.8"/>
        <polygon class="st44" points="33.5 44.8 21.9 65.3 21.7 65.3 33.3 44.8 33.5 44.8"/>
        <polygon class="st68" points="33.7 44.8 22.2 65.3 21.9 65.3 33.5 44.8 33.7 44.8"/>
        <polygon class="st75" points="34 44.8 22.4 65.3 22.2 65.3 33.7 44.8 34 44.8"/>
        <polygon class="st247" points="34.2 44.8 22.6 65.3 22.4 65.3 34 44.8 34.2 44.8"/>
        <polygon class="st373" points="34.4 44.8 22.8 65.3 22.6 65.3 34.2 44.8 34.4 44.8"/>
        <polygon class="st220" points="34.6 44.8 23 65.3 22.8 65.3 34.4 44.8 34.6 44.8"/>
        <polygon class="st162" points="34.9 44.8 23.3 65.3 23 65.3 34.6 44.8 34.9 44.8"/>
        <polygon class="st112" points="35.1 44.8 23.5 65.3 23.3 65.3 34.9 44.8 35.1 44.8"/>
        <polygon class="st197" points="35.3 44.8 23.7 65.3 23.5 65.3 35.1 44.8 35.3 44.8"/>
        <polygon class="st258" points="35.5 44.8 23.9 65.3 23.7 65.3 35.3 44.8 35.5 44.8"/>
        <polygon class="st185" points="35.7 44.8 24.2 65.3 23.9 65.3 35.5 44.8 35.7 44.8"/>
        <polygon class="st194" points="36 44.8 24.4 65.3 24.2 65.3 35.7 44.8 36 44.8"/>
        <polygon class="st351" points="36.2 44.8 24.6 65.3 24.4 65.3 36 44.8 36.2 44.8"/>
        <polygon class="st223" points="36.4 44.8 24.8 65.3 24.6 65.3 36.2 44.8 36.4 44.8"/>
        <polygon class="st32" points="36.6 44.8 25.1 65.3 24.8 65.3 36.4 44.8 36.6 44.8"/>
        <polygon class="st335" points="36.9 44.8 25.3 65.3 25.1 65.3 36.6 44.8 36.9 44.8"/>
        <polygon class="st171" points="37.1 44.8 25.5 65.3 25.3 65.3 36.9 44.8 37.1 44.8"/>
        <polygon class="st171" points="37.3 44.8 25.7 65.3 25.5 65.3 37.1 44.8 37.3 44.8"/>
        <polygon class="st335" points="37.5 44.8 25.9 65.3 25.7 65.3 37.3 44.8 37.5 44.8"/>
        <polygon class="st274" points="37.7 44.8 26.1 65.3 25.9 65.3 37.5 44.8 37.7 44.8"/>
        <polygon class="st223" points="38 44.8 26.4 65.3 26.1 65.3 37.7 44.8 38 44.8"/>
        <polygon class="st351" points="38.2 44.8 26.6 65.3 26.4 65.3 38 44.8 38.2 44.8"/>
        <polygon class="st376" points="38.4 44.8 26.8 65.3 26.6 65.3 38.2 44.8 38.4 44.8"/>
        <polygon class="st185" points="38.6 44.8 27 65.3 26.8 65.3 38.4 44.8 38.6 44.8"/>
        <polygon class="st308" points="38.8 44.8 27.2 65.3 27 65.3 38.6 44.8 38.8 44.8"/>
        <polygon class="st197" points="39 44.8 27.4 65.3 27.2 65.3 38.8 44.8 39 44.8"/>
        <polygon class="st112" points="39.3 44.8 27.7 65.3 27.4 65.3 39 44.8 39.3 44.8"/>
        <polygon class="st143" points="39.5 44.8 27.9 65.3 27.7 65.3 39.3 44.8 39.5 44.8"/>
        <polygon class="st220" points="39.7 44.8 28.1 65.3 27.9 65.3 39.5 44.8 39.7 44.8"/>
        <polygon class="st373" points="39.9 44.8 28.3 65.3 28.1 65.3 39.7 44.8 39.9 44.8"/>
        <polygon class="st247" points="40.1 44.8 28.5 65.3 28.3 65.3 39.9 44.8 40.1 44.8"/>
        <polygon class="st15" points="40.3 44.8 28.7 65.3 28.5 65.3 40.1 44.8 40.3 44.8"/>
        <polygon class="st68" points="40.5 44.8 29 65.3 28.7 65.3 40.3 44.8 40.5 44.8"/>
        <polygon class="st44" points="40.8 44.8 29.2 65.3 29 65.3 40.5 44.8 40.8 44.8"/>
        <polygon class="st28" points="41 44.8 29.4 65.3 29.2 65.3 40.8 44.8 41 44.8"/>
        <polygon class="st48" points="41.2 44.8 29.6 65.3 29.4 65.3 41 44.8 41.2 44.8"/>
        <polygon class="st306" points="41.4 44.8 29.8 65.3 29.6 65.3 41.2 44.8 41.4 44.8"/>
        <polygon class="st325" points="41.6 44.8 30 65.3 29.8 65.3 41.4 44.8 41.6 44.8"/>
        <polygon class="st239" points="41.8 44.8 30.3 65.3 30 65.3 41.6 44.8 41.8 44.8"/>
        <polygon class="st6" points="42.1 44.8 30.5 65.3 30.3 65.3 41.8 44.8 42.1 44.8"/>
        <polygon class="st92" points="42.3 44.8 30.7 65.3 30.5 65.3 42.1 44.8 42.3 44.8"/>
        <polygon class="st382" points="42.5 44.8 30.9 65.3 30.7 65.3 42.3 44.8 42.5 44.8"/>
        <polygon class="st380" points="42.7 44.8 31.1 65.3 30.9 65.3 42.5 44.8 42.7 44.8"/>
        <polygon class="st362" points="42.9 44.8 31.3 65.3 31.1 65.3 42.7 44.8 42.9 44.8"/>
        <polygon class="st322" points="43.1 44.8 31.6 65.3 31.3 65.3 42.9 44.8 43.1 44.8"/>
        <polygon class="st178" points="43.4 44.8 31.8 65.3 31.6 65.3 43.1 44.8 43.4 44.8"/>
        <polygon class="st165" points="43.6 44.8 32 65.3 31.8 65.3 43.4 44.8 43.6 44.8"/>
        <polygon class="st301" points="43.8 44.8 32.2 65.3 32 65.3 43.6 44.8 43.8 44.8"/>
        <polygon class="st195" points="44 44.8 32.4 65.3 32.2 65.3 43.8 44.8 44 44.8"/>
        <polygon class="st372" points="44.2 44.8 32.6 65.3 32.4 65.3 44 44.8 44.2 44.8"/>
        <polygon class="st175" points="44.4 44.8 32.9 65.3 32.6 65.3 44.2 44.8 44.4 44.8"/>
        <polygon class="st23" points="44.7 44.8 33.1 65.3 32.9 65.3 44.4 44.8 44.7 44.8"/>
        <polygon class="st95" points="44.9 44.8 33.3 65.3 33.1 65.3 44.7 44.8 44.9 44.8"/>
        <polygon class="st154" points="45.1 44.8 33.5 65.3 33.3 65.3 44.9 44.8 45.1 44.8"/>
        <polygon class="st297" points="45.3 44.8 33.7 65.3 33.5 65.3 45.1 44.8 45.3 44.8"/>
        <polygon class="st345" points="45.5 44.8 33.9 65.3 33.7 65.3 45.3 44.8 45.5 44.8"/>
        <polygon class="st179" points="45.7 44.8 34.2 65.3 33.9 65.3 45.5 44.8 45.7 44.8"/>
        <polygon class="st213" points="46 44.8 34.4 65.3 34.2 65.3 45.7 44.8 46 44.8"/>
        <polygon class="st355" points="46.2 44.8 34.6 65.3 34.4 65.3 46 44.8 46.2 44.8"/>
        <polygon class="st400" points="46.4 44.8 34.8 65.3 34.6 65.3 46.2 44.8 46.4 44.8"/>
        <polygon class="st40" points="46.6 44.8 35 65.3 34.8 65.3 46.4 44.8 46.6 44.8"/>
        <polygon class="st312" points="46.8 44.8 35.2 65.3 35 65.3 46.6 44.8 46.8 44.8"/>
        <polygon class="st176" points="47 44.8 35.5 65.3 35.2 65.3 46.8 44.8 47 44.8"/>
        <polygon class="st119" points="47.3 44.8 35.7 65.3 35.5 65.3 47 44.8 47.3 44.8"/>
        <polygon class="st342" points="47.5 44.8 35.9 65.3 35.7 65.3 47.3 44.8 47.5 44.8"/>
        <polygon class="st26" points="47.7 44.8 36.1 65.3 35.9 65.3 47.5 44.8 47.7 44.8"/>
        <polygon class="st27" points="47.9 44.8 36.3 65.3 36.1 65.3 47.7 44.8 47.9 44.8"/>
        <polygon class="st321" points="48.1 44.8 36.5 65.3 36.3 65.3 47.9 44.8 48.1 44.8"/>
        <polygon class="st190" points="48.3 44.8 36.7 65.3 36.5 65.3 48.1 44.8 48.3 44.8"/>
        <polygon class="st80" points="48.6 44.8 37 65.3 36.7 65.3 48.3 44.8 48.6 44.8"/>
        <polygon class="st111" points="48.8 44.8 37.2 65.3 37 65.3 48.6 44.8 48.8 44.8"/>
        <polygon class="st69" points="49 44.8 37.4 65.3 37.2 65.3 48.8 44.8 49 44.8"/>
        <polygon class="st241" points="49.2 44.8 37.6 65.3 37.4 65.3 49 44.8 49.2 44.8"/>
        <polygon class="st207" points="49.4 44.8 37.8 65.3 37.6 65.3 49.2 44.8 49.4 44.8"/>
        <polygon class="st76" points="49.6 44.8 38 65.3 37.8 65.3 49.4 44.8 49.6 44.8"/>
        <polygon class="st406" points="49.9 44.8 38.3 65.3 38 65.3 49.6 44.8 49.9 44.8"/>
        <polygon class="st64" points="50.1 44.8 38.5 65.3 38.3 65.3 49.9 44.8 50.1 44.8"/>
        <polygon class="st222" points="50.3 44.8 38.7 65.3 38.5 65.3 50.1 44.8 50.3 44.8"/>
        <polygon class="st389" points="50.5 44.8 38.9 65.3 38.7 65.3 50.3 44.8 50.5 44.8"/>
        <polygon class="st61" points="50.7 44.8 39.1 65.3 38.9 65.3 50.5 44.8 50.7 44.8"/>
        <polygon class="st227" points="50.9 44.8 39.3 65.3 39.1 65.3 50.7 44.8 50.9 44.8"/>
        <polygon class="st363" points="51.1 44.8 39.6 65.3 39.3 65.3 50.9 44.8 51.1 44.8"/>
        <polygon class="st262" points="51.4 44.8 39.8 65.3 39.6 65.3 51.1 44.8 51.4 44.8"/>
        <polygon class="st283" points="51.6 44.8 40 65.3 39.8 65.3 51.4 44.8 51.6 44.8"/>
        <polygon class="st215" points="51.8 44.8 40.2 65.3 40 65.3 51.6 44.8 51.8 44.8"/>
        <polygon class="st218" points="52 44.8 40.4 65.3 40.2 65.3 51.8 44.8 52 44.8"/>
        <polygon class="st344" points="52.2 44.8 40.6 65.3 40.4 65.3 52 44.8 52.2 44.8"/>
        <polygon class="st2" points="52.4 44.8 40.9 65.3 40.6 65.3 52.2 44.8 52.4 44.8"/>
        <polygon class="st292" points="52.7 44.8 41.1 65.3 40.9 65.3 52.4 44.8 52.7 44.8"/>
        <polygon class="st212" points="52.9 44.8 41.3 65.3 41.1 65.3 52.7 44.8 52.9 44.8"/>
        <polygon class="st110" points="53.1 44.8 41.5 65.3 41.3 65.3 52.9 44.8 53.1 44.8"/>
        <polygon class="st390" points="53.3 44.8 41.7 65.3 41.5 65.3 53.1 44.8 53.3 44.8"/>
        <polygon class="st78" points="53.5 44.8 41.9 65.3 41.7 65.3 53.3 44.8 53.5 44.8"/>
        <polygon class="st302" points="53.7 44.8 42.2 65.3 41.9 65.3 53.5 44.8 53.7 44.8"/>
        <polygon class="st198" points="53.8 45.2 42.4 65.3 42.2 65.3 53.7 44.8 53.8 44.8 53.8 45.2"/>
        <polygon class="st53" points="53.8 45.5 42.6 65.3 42.4 65.3 53.8 45.2 53.8 45.5"/>
        <polygon class="st33" points="53.8 45.9 42.8 65.3 42.6 65.3 53.8 45.5 53.8 45.9"/>
        <polygon class="st187" points="53.8 46.3 43 65.3 42.8 65.3 53.8 45.9 53.8 46.3"/>
        <polygon class="st99" points="53.8 46.7 43.2 65.3 43 65.3 53.8 46.3 53.8 46.7"/>
        <polygon class="st29" points="53.8 47.1 43.5 65.3 43.2 65.3 53.8 46.7 53.8 47.1"/>
        <polygon class="st129" points="53.8 47.5 43.7 65.3 43.5 65.3 53.8 47.1 53.8 47.5"/>
        <polygon class="st246" points="53.8 47.8 43.9 65.3 43.7 65.3 53.8 47.5 53.8 47.8"/>
        <polygon class="st300" points="53.8 48.2 44.1 65.3 43.9 65.3 53.8 47.8 53.8 48.2"/>
        <polygon class="st365" points="53.8 48.6 44.3 65.3 44.1 65.3 53.8 48.2 53.8 48.6"/>
        <polygon class="st347" points="53.8 49 44.5 65.3 44.3 65.3 53.8 48.6 53.8 49"/>
        <polygon class="st378" points="53.8 49.4 44.8 65.3 44.5 65.3 53.8 49 53.8 49.4"/>
        <polygon class="st399" points="53.8 49.8 45 65.3 44.8 65.3 53.8 49.4 53.8 49.8"/>
        <polygon class="st88" points="53.8 50.1 45.2 65.3 45 65.3 53.8 49.8 53.8 50.1"/>
        <polygon class="st45" points="53.8 50.5 45.4 65.3 45.2 65.3 53.8 50.1 53.8 50.5"/>
        <polygon class="st217" points="53.8 50.9 45.6 65.3 45.4 65.3 53.8 50.5 53.8 50.9"/>
        <polygon class="st31" points="53.8 51.3 45.8 65.3 45.6 65.3 53.8 50.9 53.8 51.3"/>
        <polygon class="st250" points="53.8 51.7 46.1 65.3 45.8 65.3 53.8 51.3 53.8 51.7"/>
        <polygon class="st359" points="53.8 52.1 46.3 65.3 46.1 65.3 53.8 51.7 53.8 52.1"/>
        <polygon class="st107" points="53.8 52.4 46.5 65.3 46.3 65.3 53.8 52.1 53.8 52.4"/>
        <polygon class="st384" points="53.8 52.8 46.7 65.3 46.5 65.3 53.8 52.4 53.8 52.8"/>
        <polygon class="st395" points="53.8 53.2 46.9 65.3 46.7 65.3 53.8 52.8 53.8 53.2"/>
        <polygon class="st177" points="53.8 53.6 47.1 65.3 46.9 65.3 53.8 53.2 53.8 53.6"/>
        <polygon class="st240" points="53.8 54 47.3 65.3 47.1 65.3 53.8 53.6 53.8 54"/>
        <polygon class="st146" points="53.8 54.4 47.6 65.3 47.3 65.3 53.8 54 53.8 54.4"/>
        <polygon class="st173" points="53.8 54.7 47.8 65.3 47.6 65.3 53.8 54.4 53.8 54.7"/>
        <polygon class="st77" points="53.8 55.1 48 65.3 47.8 65.3 53.8 54.7 53.8 55.1"/>
        <polygon class="st77" points="48 65.3 53.8 55.1 53.8 65.3 48 65.3"/>
      </g>
    </g>
    <path class="st36" d="M37.5,52.6c0,.8.7,1.5,1.5,1.5s1.5-.7,1.5-1.5-.7-1.5-1.5-1.5-1.5.7-1.5,1.5M14.5,51.4c0,.6.5,1.1,1.1,1.1s1.1-.5,1.1-1.1-.5-1.1-1.1-1.1-1.1.5-1.1,1.1ZM21.7,51.5c0,.3.2.5.5.5s.5-.2.5-.5-.2-.5-.5-.5-.5.2-.5.5ZM47.7,47.7c0,.3.2.5.5.5s.5-.2.5-.5-.2-.5-.5-.5-.5.2-.5.5ZM18.8,52.6c0,.3.2.5.5.5s.5-.2.5-.5-.2-.5-.5-.5-.5.2-.5.5ZM18,48c0,.3.2.5.5.5s.5-.2.5-.5-.2-.5-.5-.5-.5.2-.5.5ZM43.9,50.6c0,.3.2.5.5.5s.5-.2.5-.5-.2-.5-.5-.5-.5.2-.5.5ZM44.9,14.8s-11.3,9.6-14.9,32.7c0,.4-.2.8-.4,1.2-.4.9-1,2.9.4,4.2.9.8,2.2,1,3.3.5,1.1-.5,2.2-1.7,1.4-4.9-1.4-5.6.8-22.6,10.1-33.7ZM28.8,33.6s-4.6,3.9-6.1,13.3c0,.2,0,.3-.1.5-.2.4-.4,1.2.2,1.7.4.3.9.4,1.3.2.4-.2.9-.7.6-2-.6-2.3.3-9.2,4.1-13.7ZM42.8,32.8s-3.8,4.6-3.6,14.1c0,.2,0,.3,0,.5,0,.4-.2,1.2.5,1.6.4.3,1,.2,1.4,0,.4-.3.7-.9.2-2.1-1-2.1-1.3-9.1,1.6-14.2ZM53.8,45.3c-1,11.2-10.4,20-21.8,20s-20.6-8.6-21.8-19.6h10.9c.3,0,.5.2.5.5h0c0,.2,0,.4-.1.6-.6,1.5-.3,2.8.8,3.5.8.5,1.7.6,2.6.2.8-.4,2-1.3,1.4-3.8-.2-.8-.2-1.4,0-1.6.4-.3,1.4,0,1.9.3,0,0,.9.5.5,2.1,0,.2-.1.4-.2.6-.3.9-.6,2-.6,3.2,0,1.4.6,2.6,1.8,3.3.8.5,1.7.8,2.6.8s1.7-.2,2.4-.7c1.3-.9,2.5-2.7,1.2-6.7,0-.1-.5-1.9.6-2.5.4-.2.9-.1,1.2.2.3.3.5.7.3,1.3,0,0,0,.1,0,.2-.5,1.1-.1,2,.2,2.5.4.6,1,1,1.8,1.1,1.2.2,2.1-.2,2.7-1,.5-.7.6-1.6.3-2.4-.1-.3-.3-.7-.5-1-.2-.4-.1-.5,0-.7.1-.2.3-.2.6-.2h10.9ZM28,20.8c-10.8,1.8-19.1,11.3-19.1,22.6s10.3,22.9,22.9,22.9,10.5-1.9,14.4-5.1l1.4,1.7c-.7.6-.9,1.6-.2,2.4l10.9,12.8c.6.7,1.6.8,2.3.2l1.2-1c.7-.6.8-1.6.2-2.3l-10.9-12.8c-.6-.7-1.6-.8-2.3-.2h0c0,0-1.4-1.6-1.4-1.6,4.6-4.2,7.5-10.2,7.5-16.9s-.9-7.4-2.6-10.6h-1.1c1.7,3.1,2.7,6.7,2.7,10.6s0,.7,0,1.1h-10.9c-.5,0-.9.2-1.2.6-.2.3-.5.9,0,1.7.2.3.3.5.4.8.2.6.1,1.2-.2,1.7-.4.6-1,.8-1.9.7-.5,0-.9-.3-1.2-.7-.3-.5-.4-1.1-.1-1.7,0,0,0-.1,0-.2.3-.8,0-1.6-.5-2.2-.6-.5-1.4-.7-2.1-.3-1.8.9-1.1,3.3-1.1,3.4h0c.5,1.6.6,2.9.4,4-.2.8-.6,1.4-1.3,1.8-1.2.8-2.8.8-4,0-2.1-1.4-1.4-3.9-.9-5.6,0-.2.1-.4.2-.6.5-2.2-.9-3-1-3-.2,0-1.9-.9-2.8-.2-.5.4-.6,1.2-.3,2.4.4,1.5,0,2.4-.9,2.9-.6.3-1.3.2-1.8-.1-1-.6-.7-1.8-.4-2.5.1-.3.2-.6.2-.9h0c0-.7-.6-1.3-1.3-1.3h-11c0-.5,0-1,0-1.5,0-10.8,7.8-19.8,18.1-21.6v-1ZM23.1,52.6c0,.6.5,1.1,1.1,1.1s1.1-.5,1.1-1.1-.5-1.1-1.1-1.1-1.1.5-1.1,1.1Z"/>
    <path class="st214" d="M16.6,51.4c0,.6-.5,1.1-1.1,1.1s-1.1-.5-1.1-1.1.5-1.1,1.1-1.1,1.1.5,1.1,1.1M48.2,48.2c-.3,0-.5-.2-.5-.5s.2-.5.5-.5.5.2.5.5-.2.5-.5.5ZM19.8,52.6c0,.3-.2.5-.5.5s-.5-.2-.5-.5.2-.5.5-.5.5.2.5.5ZM18.5,48.5c-.3,0-.5-.2-.5-.5s.2-.5.5-.5.5.2.5.5-.2.5-.5.5ZM22.7,51.5c0,.3-.2.5-.5.5s-.5-.2-.5-.5.2-.5.5-.5.5.2.5.5ZM44.4,51.1c-.3,0-.5-.2-.5-.5s.2-.5.5-.5.5.2.5.5-.2.5-.5.5ZM24.2,53.6c-.6,0-1.1-.5-1.1-1.1s.5-1.1,1.1-1.1,1.1.5,1.1,1.1-.5,1.1-1.1,1.1ZM39,54c-.8,0-1.5-.7-1.5-1.5s.7-1.5,1.5-1.5,1.5.7,1.5,1.5-.7,1.5-1.5,1.5Z"/>
    <path class="st36" d="M10.3,45.7c.2,2.1.7,4.1,1.5,5.9,1.1,2.6,2.7,5,4.7,7,3.9,3.9,9.3,6.3,15.3,6.3s5.7-.6,8.3-1.6c2.6-1.1,5-2.7,7-4.7,2-2,3.6-4.4,4.7-7,.8-2,1.4-4.1,1.6-6.3h.4c-1,11.2-10.4,20-21.8,20s-20.6-8.6-21.8-19.6h.2ZM41.4,22.5h0c2.7,1.2,4.6,2.6,6.6,4.6,1.7,1.7,3.1,3.6,4.2,5.7h-1.1c1.7,3.1,2.7,6.7,2.7,10.6s0,.7,0,1.1h-.4c0-.4,0-.7,0-1.1,0-2.9-.6-5.7-1.6-8.3-1.1-2.6-2.7-5-4.7-7-1.9-1.9-3.7-3.3-6.2-4.3,0,0,.3.1,0,0,.2-.4.3-.9.5-1.3ZM31.8,20.4c1.9,0,3.8.2,5.6.7-.2.4-.4.8-.6,1.3-1.6-.4-3.3-.6-5-.6-2.9,0-5.7.6-8.3,1.6-2.6,1.1-5,2.7-7,4.7-3.9,3.9-6.3,9.3-6.3,15.3s0,1,0,1.5h-.2c0-.5,0-1,0-1.5,0-10.8,7.8-19.8,18.1-21.6v-1c-10.8,1.8-19.1,11.3-19.1,22.6s10.3,22.9,22.9,22.9,8.1-1.1,11.5-3.1c-.9.5-1.8,1-2.7,1.4-2.7,1.1-5.7,1.7-8.8,1.7s-6.1-.6-8.8-1.7c-2.8-1.2-5.3-2.9-7.5-5-2.1-2.1-3.8-4.7-5-7.5-1.1-2.7-1.7-5.7-1.7-8.8s.6-6.1,1.7-8.8c1.2-2.8,2.9-5.3,5-7.5,2.1-2.1,4.6-3.8,7.5-5,2.7-1.1,5.7-1.7,8.8-1.7ZM42,21.3c8.4,3.4,14,13.1,14,22s-2.7,12.7-7.1,17.1c-.3.3-.6.5-.9.8l-.2-.3c.3-.3.6-.5.8-.8,4.3-4.3,7-10.3,7-16.9s-5.5-18.4-13.8-21.7l.2-.3ZM31.9,19.1c2,0,4,.2,5.9.7v.3c-2-.5-3.9-.7-5.9-.7-6.6,0-12.5,2.7-16.9,7-4.3,4.3-7,10.3-7,16.9s2.7,12.5,7,16.9c4.3,4.3,10.3,7,16.9,7s10.9-2,15-5.3l.2.3c-4.1,3.3-9.4,5.4-15.2,5.4s-12.7-2.7-17.1-7.1c-4.4-4.4-7.1-10.4-7.1-17.1s2.7-12.7,7.1-17.1c4.4-4.4,10.4-7.1,17.1-7.1Z"/>
    <path class="st37" d="M251.5,24c0,.7,0,1.3-.2,1.9,0,.3-.2.6-.3.9-.1.3-.3.6-.4.9-.2.3-.3.6-.5.8-.2.3-.4.5-.6.7-.2.2-.4.4-.6.5.2.2.4.3.6.5.2.2.4.5.6.7.2.3.4.5.5.8.2.3.3.6.4.9.1.3.2.6.3.9,0,.3.1.6.2.9,0,.3,0,.6,0,1v7.6h-3.7v-7.6c0-1.1-.4-2-1.2-2.8-.2-.2-.4-.4-.6-.5-.2-.1-.4-.3-.7-.4-.2,0-.5-.2-.7-.2-.2,0-.5,0-.8,0h-15.5v11.5h-3.7v-15.3h19.2c.3,0,.6,0,.8,0,.3,0,.5-.1.7-.2.2,0,.5-.2.7-.4.2-.1.4-.3.6-.5.2-.2.4-.4.5-.6.1-.2.3-.4.4-.7,0-.2.2-.5.2-.7,0-.2,0-.5,0-.8,0-1.1-.4-2-1.2-2.8-.4-.4-.8-.7-1.3-.9-.5-.2-1-.3-1.5-.3h-19.2v-3.7h19.2c.5,0,1,0,1.5.1.5,0,1,.2,1.4.4.5.2.9.4,1.3.7.4.3.8.6,1.2,1,.4.4.7.8,1,1.2.3.4.5.8.7,1.3.2.5.3.9.4,1.4,0,.5.1,1,.1,1.5M216.2,42.4v-26h3.7v26.8h-3.7v-.8ZM181.7,42l14.9-26.4.5,1c2.8,5,5.6,10,8.4,15l6.5,11.7h-4.4l-11.1-19.9-11.2,19.9h-4.4l.6-1.2ZM173.1,28v-11.5h3.7v26.8h-3.7v-11.5h-19.5v11.5h-3.7v-26.8h3.7v11.5h19.5ZM128.6,42.5c-.1-.1-.2-.2-.3-.4,0-.1-.2-.3-.2-.4,0-.1-.1-.3-.1-.4,0-.2,0-.3,0-.5s0-.3,0-.5c0-.1,0-.3.1-.4,0-.1.1-.3.2-.4,0-.1.2-.3.3-.4.1-.1.2-.2.4-.3.1,0,.3-.2.4-.2.1,0,.3-.1.4-.1.2,0,.3,0,.5,0s.3,0,.5,0c.2,0,.3,0,.4.1.1,0,.3.1.4.2.1,0,.2.2.4.3.1.1.2.2.3.4,0,.1.2.3.2.4,0,.1.1.3.1.4,0,.2,0,.3,0,.5s0,.3,0,.5c0,.1,0,.3-.1.4,0,.1-.1.3-.2.4,0,.1-.2.2-.3.4-.1.1-.2.2-.4.3-.1,0-.3.2-.4.2-.1,0-.3.1-.4.1-.2,0-.3,0-.5,0s-.3,0-.5,0c-.2,0-.3,0-.4-.1-.1,0-.3-.1-.4-.2-.1,0-.2-.2-.4-.3ZM123.2,24c0,.3,0,.6,0,1,0,.3,0,.6-.2,1,0,.3-.2.6-.3.9-.1.3-.3.6-.4.9-.2.3-.3.6-.5.8-.2.3-.4.5-.6.7-.2.2-.4.4-.6.5.2.2.4.3.6.5.2.2.4.5.6.7.2.3.4.5.5.8.2.3.3.6.4.9.1.3.2.6.3.9,0,.3.1.6.2,1,0,.3,0,.6,0,1v7.6h-3.7v-7.6c0-.5,0-1.1-.3-1.5-.2-.5-.5-.9-.9-1.3-.2-.2-.4-.4-.6-.5-.2-.1-.4-.3-.7-.4-.2,0-.5-.2-.7-.2-.2,0-.5,0-.8,0h-15.5v11.5h-3.7v-15.3h19.2c.3,0,.6,0,.8,0,.3,0,.5-.1.7-.2.2,0,.5-.2.7-.4.2-.1.4-.3.6-.5.2-.2.4-.4.5-.6.1-.2.3-.4.4-.7,0-.2.2-.5.2-.7,0-.2,0-.5,0-.8,0-1.1-.4-2-1.2-2.8-.4-.4-.8-.7-1.3-.9-.5-.2-1-.3-1.5-.3h-19.2v-3.7h19.2c.5,0,1,0,1.5.1.5,0,1,.2,1.4.4.5.2.9.4,1.3.7.4.3.8.6,1.2,1,.4.4.7.8,1,1.2.3.4.5.8.7,1.3.2.5.3.9.4,1.4,0,.5.1,1,.1,1.5ZM78.2,16.4c1.8,0,3.6.3,5.1,1,1.6.7,3,1.6,4.3,2.9,1.3,1.3,2.3,2.7,2.9,4.3.3.8.6,1.6.7,2.5.2.9.2,1.8.2,2.7,0,1.8-.3,3.6-1,5.1-.7,1.6-1.6,3-2.9,4.3-.6.6-1.3,1.2-2.1,1.7-.7.5-1.5.9-2.3,1.2-.8.3-1.6.6-2.5.7-.9.2-1.8.2-2.7.2h-13.4v-3.7h13.4c.5,0,.9,0,1.3,0,.4,0,.8-.1,1.2-.2.4-.1.8-.2,1.2-.4.4-.2.8-.4,1.1-.6.8-.4,1.4-.9,2-1.5.6-.6,1.1-1.3,1.5-2,.2-.4.4-.8.6-1.1.2-.4.3-.8.4-1.2.1-.4.2-.8.2-1.2,0-.4,0-.8,0-1.3s0-.9,0-1.3c0-.4-.1-.8-.2-1.2-.1-.4-.2-.8-.4-1.2-.2-.4-.4-.8-.6-1.2-.4-.8-.9-1.4-1.5-2-.6-.6-1.3-1.1-2-1.5-.4-.2-.8-.4-1.1-.6-.4-.2-.8-.3-1.2-.4-.4-.1-.8-.2-1.2-.2-.4,0-.8,0-1.3,0h-13.4v-3.7h13.4Z"/>
    <g class="st326">
      <g class="st229">
        <polygon class="st113" points="80.3 46.9 65.5 47.4 65.5 46.9 80.3 46.9"/>
        <polygon class="st113" points="81.1 46.9 65.5 47.4 65.5 47.4 80.3 46.9 81.1 46.9"/>
        <polygon class="st391" points="82 46.9 65.5 47.5 65.5 47.4 81.1 46.9 82 46.9"/>
        <polygon class="st202" points="82.8 46.9 65.5 47.5 65.5 47.5 82 46.9 82.8 46.9"/>
        <polygon class="st286" points="83.6 46.9 65.5 47.5 65.5 47.5 82.8 46.9 83.6 46.9"/>
        <polygon class="st286" points="84.5 46.9 65.5 47.5 65.5 47.5 83.6 46.9 84.5 46.9"/>
        <polygon class="st330" points="85.3 46.9 65.5 47.6 65.5 47.5 84.5 46.9 85.3 46.9"/>
        <polygon class="st405" points="86.1 46.9 65.5 47.6 65.5 47.6 85.3 46.9 86.1 46.9"/>
        <polygon class="st70" points="86.9 46.9 65.5 47.6 65.5 47.6 86.1 46.9 86.9 46.9"/>
        <polygon class="st327" points="87.8 46.9 65.5 47.6 65.5 47.6 86.9 46.9 87.8 46.9"/>
        <polygon class="st331" points="88.6 46.9 65.5 47.7 65.5 47.6 87.8 46.9 88.6 46.9"/>
        <polygon class="st106" points="89.4 46.9 65.5 47.7 65.5 47.7 88.6 46.9 89.4 46.9"/>
        <polygon class="st135" points="90.3 46.9 65.5 47.7 65.5 47.7 89.4 46.9 90.3 46.9"/>
        <polygon class="st370" points="91.1 46.9 65.5 47.7 65.5 47.7 90.3 46.9 91.1 46.9"/>
        <polygon class="st205" points="91.9 46.9 65.5 47.8 65.5 47.7 91.1 46.9 91.9 46.9"/>
        <polygon class="st333" points="92.7 46.9 65.5 47.8 65.5 47.8 91.9 46.9 92.7 46.9"/>
        <polygon class="st349" points="93.6 46.9 65.5 47.8 65.5 47.8 92.7 46.9 93.6 46.9"/>
        <polygon class="st336" points="94.4 46.9 65.5 47.8 65.5 47.8 93.6 46.9 94.4 46.9"/>
        <polygon class="st386" points="95.2 46.9 65.5 47.9 65.5 47.8 94.4 46.9 95.2 46.9"/>
        <polygon class="st158" points="96.1 46.9 65.6 47.9 65.5 47.9 65.5 47.9 95.2 46.9 96.1 46.9"/>
        <polygon class="st302" points="96.9 46.9 66.5 47.9 65.6 47.9 96.1 46.9 96.9 46.9"/>
        <polygon class="st102" points="97.7 46.9 67.3 47.9 66.5 47.9 96.9 46.9 97.7 46.9"/>
        <polygon class="st394" points="98.5 46.9 68.1 47.9 67.3 47.9 97.7 46.9 98.5 46.9"/>
        <polygon class="st279" points="99.4 46.9 69 47.9 68.1 47.9 98.5 46.9 99.4 46.9"/>
        <polygon class="st12" points="100.2 46.9 69.8 47.9 69 47.9 99.4 46.9 100.2 46.9"/>
        <polygon class="st130" points="101 46.9 70.6 47.9 69.8 47.9 100.2 46.9 101 46.9"/>
        <polygon class="st233" points="101.9 46.9 71.4 47.9 70.6 47.9 101 46.9 101.9 46.9"/>
        <polygon class="st289" points="102.7 46.9 72.3 47.9 71.4 47.9 101.9 46.9 102.7 46.9"/>
        <polygon class="st344" points="103.5 46.9 73.1 47.9 72.3 47.9 102.7 46.9 103.5 46.9"/>
        <polygon class="st243" points="104.3 46.9 73.9 47.9 73.1 47.9 103.5 46.9 104.3 46.9"/>
        <polygon class="st134" points="105.2 46.9 74.8 47.9 73.9 47.9 104.3 46.9 105.2 46.9"/>
        <polygon class="st346" points="106 46.9 75.6 47.9 74.8 47.9 105.2 46.9 106 46.9"/>
        <polygon class="st5" points="106.8 46.9 76.4 47.9 75.6 47.9 106 46.9 106.8 46.9"/>
        <polygon class="st124" points="107.7 46.9 77.3 47.9 76.4 47.9 106.8 46.9 107.7 46.9"/>
        <polygon class="st200" points="108.5 46.9 78.1 47.9 77.3 47.9 107.7 46.9 108.5 46.9"/>
        <polygon class="st296" points="109.3 46.9 78.9 47.9 78.1 47.9 108.5 46.9 109.3 46.9"/>
        <polygon class="st133" points="110.1 46.9 79.7 47.9 78.9 47.9 109.3 46.9 110.1 46.9"/>
        <polygon class="st116" points="111 46.9 80.6 47.9 79.7 47.9 110.1 46.9 111 46.9"/>
        <polygon class="st189" points="111.8 46.9 81.4 47.9 80.6 47.9 111 46.9 111.8 46.9"/>
        <polygon class="st169" points="112.6 46.9 82.2 47.9 81.4 47.9 111.8 46.9 112.6 46.9"/>
        <polygon class="st8" points="113.5 46.9 83.1 47.9 82.2 47.9 112.6 46.9 113.5 46.9"/>
        <polygon class="st122" points="114.3 46.9 83.9 47.9 83.1 47.9 113.5 46.9 114.3 46.9"/>
        <polygon class="st127" points="115.1 46.9 84.7 47.9 83.9 47.9 114.3 46.9 115.1 46.9"/>
        <polygon class="st56" points="115.9 46.9 85.5 47.9 84.7 47.9 115.1 46.9 115.9 46.9"/>
        <polygon class="st87" points="116.8 46.9 86.4 47.9 85.5 47.9 115.9 46.9 116.8 46.9"/>
        <polygon class="st343" points="117.6 46.9 87.2 47.9 86.4 47.9 116.8 46.9 117.6 46.9"/>
        <polygon class="st50" points="118.4 46.9 88 47.9 87.2 47.9 117.6 46.9 118.4 46.9"/>
        <polygon class="st81" points="119.3 46.9 88.9 47.9 88 47.9 118.4 46.9 119.3 46.9"/>
        <polygon class="st73" points="120.1 46.9 89.7 47.9 88.9 47.9 119.3 46.9 120.1 46.9"/>
        <polygon class="st136" points="120.9 46.9 90.5 47.9 89.7 47.9 120.1 46.9 120.9 46.9"/>
        <polygon class="st303" points="121.7 46.9 91.3 47.9 90.5 47.9 120.9 46.9 121.7 46.9"/>
        <polygon class="st144" points="122.6 46.9 92.2 47.9 91.3 47.9 121.7 46.9 122.6 46.9"/>
        <polygon class="st30" points="123.4 46.9 93 47.9 92.2 47.9 122.6 46.9 123.4 46.9"/>
        <polygon class="st402" points="124.2 46.9 93.8 47.9 93 47.9 123.4 46.9 124.2 46.9"/>
        <polygon class="st186" points="125.1 46.9 94.7 47.9 93.8 47.9 124.2 46.9 125.1 46.9"/>
        <polygon class="st364" points="125.9 46.9 95.5 47.9 94.7 47.9 125.1 46.9 125.9 46.9"/>
        <polygon class="st10" points="126.7 46.9 96.3 47.9 95.5 47.9 125.9 46.9 126.7 46.9"/>
        <polygon class="st398" points="127.5 46.9 97.1 47.9 96.3 47.9 126.7 46.9 127.5 46.9"/>
        <polygon class="st225" points="128.4 46.9 98 47.9 97.1 47.9 127.5 46.9 128.4 46.9"/>
        <polygon class="st310" points="129.2 46.9 98.8 47.9 98 47.9 128.4 46.9 129.2 46.9"/>
        <polygon class="st242" points="130 46.9 99.6 47.9 98.8 47.9 129.2 46.9 130 46.9"/>
        <polygon class="st288" points="130.9 46.9 100.5 47.9 99.6 47.9 130 46.9 130.9 46.9"/>
        <polygon class="st181" points="131.7 46.9 101.3 47.9 100.5 47.9 130.9 46.9 131.7 46.9"/>
        <polygon class="st19" points="132.5 46.9 102.1 47.9 101.3 47.9 131.7 46.9 132.5 46.9"/>
        <polygon class="st328" points="133.3 46.9 102.9 47.9 102.1 47.9 132.5 46.9 133.3 46.9"/>
        <polygon class="st89" points="134.2 46.9 103.8 47.9 102.9 47.9 133.3 46.9 134.2 46.9"/>
        <polygon class="st265" points="135 46.9 104.6 47.9 103.8 47.9 134.2 46.9 135 46.9"/>
        <polygon class="st18" points="135.8 46.9 105.4 47.9 104.6 47.9 135 46.9 135.8 46.9"/>
        <polygon class="st157" points="136.7 46.9 106.3 47.9 105.4 47.9 135.8 46.9 136.7 46.9"/>
        <polygon class="st216" points="137.5 46.9 107.1 47.9 106.3 47.9 136.7 46.9 137.5 46.9"/>
        <polygon class="st320" points="138.3 46.9 107.9 47.9 107.1 47.9 137.5 46.9 138.3 46.9"/>
        <polygon class="st91" points="139.1 46.9 108.7 47.9 107.9 47.9 138.3 46.9 139.1 46.9"/>
        <polygon class="st290" points="140 46.9 109.6 47.9 108.7 47.9 139.1 46.9 140 46.9"/>
        <polygon class="st340" points="140.8 46.9 110.4 47.9 109.6 47.9 140 46.9 140.8 46.9"/>
        <polygon class="st183" points="141.6 46.9 111.2 47.9 110.4 47.9 140.8 46.9 141.6 46.9"/>
        <polygon class="st299" points="142.5 46.9 112.1 47.9 111.2 47.9 141.6 46.9 142.5 46.9"/>
        <polygon class="st128" points="143.3 46.9 112.9 47.9 112.1 47.9 142.5 46.9 143.3 46.9"/>
        <polygon class="st368" points="144.1 46.9 113.7 47.9 112.9 47.9 143.3 46.9 144.1 46.9"/>
        <polygon class="st251" points="144.9 46.9 114.5 47.9 113.7 47.9 144.1 46.9 144.9 46.9"/>
        <polygon class="st20" points="145.8 46.9 115.4 47.9 114.5 47.9 144.9 46.9 145.8 46.9"/>
        <polygon class="st159" points="146.6 46.9 116.2 47.9 115.4 47.9 145.8 46.9 146.6 46.9"/>
        <polygon class="st230" points="147.4 46.9 117 47.9 116.2 47.9 146.6 46.9 147.4 46.9"/>
        <polygon class="st164" points="148.3 46.9 117.9 47.9 117 47.9 147.4 46.9 148.3 46.9"/>
        <polygon class="st318" points="149.1 46.9 118.7 47.9 117.9 47.9 148.3 46.9 149.1 46.9"/>
        <polygon class="st147" points="149.9 46.9 119.5 47.9 118.7 47.9 149.1 46.9 149.9 46.9"/>
        <polygon class="st66" points="150.7 46.9 120.3 47.9 119.5 47.9 149.9 46.9 150.7 46.9"/>
        <polygon class="st85" points="151.6 46.9 121.2 47.9 120.3 47.9 150.7 46.9 151.6 46.9"/>
        <polygon class="st142" points="152.4 46.9 122 47.9 121.2 47.9 151.6 46.9 152.4 46.9"/>
        <polygon class="st125" points="153.2 46.9 122.8 47.9 122 47.9 152.4 46.9 153.2 46.9"/>
        <polygon class="st353" points="154.1 46.9 123.7 47.9 122.8 47.9 153.2 46.9 154.1 46.9"/>
        <polygon class="st210" points="154.9 46.9 124.5 47.9 123.7 47.9 154.1 46.9 154.9 46.9"/>
        <polygon class="st151" points="155.7 46.9 125.3 47.9 124.5 47.9 154.9 46.9 155.7 46.9"/>
        <polygon class="st357" points="156.5 46.9 126.1 47.9 125.3 47.9 155.7 46.9 156.5 46.9"/>
        <polygon class="st54" points="157.4 46.9 127 47.9 126.1 47.9 156.5 46.9 157.4 46.9"/>
        <polygon class="st13" points="158.2 46.9 127.8 47.9 127 47.9 157.4 46.9 158.2 46.9"/>
        <polygon class="st39" points="159 46.9 128.6 47.9 127.8 47.9 158.2 46.9 159 46.9"/>
        <polygon class="st168" points="159.9 46.9 129.5 47.9 128.6 47.9 159 46.9 159.9 46.9"/>
        <polygon class="st257" points="160.7 46.9 130.3 47.9 129.5 47.9 159.9 46.9 160.7 46.9"/>
        <polygon class="st199" points="161.5 46.9 131.1 47.9 130.3 47.9 160.7 46.9 161.5 46.9"/>
        <polygon class="st393" points="162.3 46.9 131.9 47.9 131.1 47.9 161.5 46.9 162.3 46.9"/>
        <polygon class="st278" points="163.2 46.9 132.8 47.9 131.9 47.9 162.3 46.9 163.2 46.9"/>
        <polygon class="st131" points="164 46.9 133.6 47.9 132.8 47.9 163.2 46.9 164 46.9"/>
        <polygon class="st269" points="164.8 46.9 134.4 47.9 133.6 47.9 164 46.9 164.8 46.9"/>
        <polygon class="st148" points="165.7 46.9 135.3 47.9 134.4 47.9 164.8 46.9 165.7 46.9"/>
        <polygon class="st313" points="166.5 46.9 136.1 47.9 135.3 47.9 165.7 46.9 166.5 46.9"/>
        <polygon class="st366" points="167.3 46.9 136.9 47.9 136.1 47.9 166.5 46.9 167.3 46.9"/>
        <polygon class="st237" points="168.1 46.9 137.7 47.9 136.9 47.9 167.3 46.9 168.1 46.9"/>
        <polygon class="st90" points="169 46.9 138.6 47.9 137.7 47.9 168.1 46.9 169 46.9"/>
        <polygon class="st180" points="169.8 46.9 139.4 47.9 138.6 47.9 169 46.9 169.8 46.9"/>
        <polygon class="st334" points="170.6 46.9 140.2 47.9 139.4 47.9 169.8 46.9 170.6 46.9"/>
        <polygon class="st280" points="171.5 46.9 141.1 47.9 140.2 47.9 170.6 46.9 171.5 46.9"/>
        <polygon class="st280" points="172.3 46.9 141.9 47.9 141.1 47.9 171.5 46.9 172.3 46.9"/>
        <polygon class="st334" points="173.1 46.9 142.7 47.9 141.9 47.9 172.3 46.9 173.1 46.9"/>
        <polygon class="st180" points="173.9 46.9 143.5 47.9 142.7 47.9 173.1 46.9 173.9 46.9"/>
        <polygon class="st90" points="174.7 46.9 144.3 47.9 143.5 47.9 173.9 46.9 174.7 46.9"/>
        <polygon class="st237" points="175.5 46.9 145.1 47.9 144.3 47.9 174.7 46.9 175.5 46.9"/>
        <polygon class="st366" points="176.3 46.9 145.9 47.9 145.1 47.9 175.5 46.9 176.3 46.9"/>
        <polygon class="st141" points="177.1 46.9 146.7 47.9 145.9 47.9 176.3 46.9 177.1 46.9"/>
        <polygon class="st379" points="177.9 46.9 147.5 47.9 146.7 47.9 177.1 46.9 177.9 46.9"/>
        <polygon class="st350" points="178.8 46.9 148.4 47.9 147.5 47.9 177.9 46.9 178.8 46.9"/>
        <polygon class="st153" points="179.6 46.9 149.2 47.9 148.4 47.9 178.8 46.9 179.6 46.9"/>
        <polygon class="st38" points="180.4 46.9 150 47.9 149.2 47.9 179.6 46.9 180.4 46.9"/>
        <polygon class="st352" points="181.2 46.9 150.8 47.9 150 47.9 180.4 46.9 181.2 46.9"/>
        <polygon class="st226" points="182 46.9 151.6 47.9 150.8 47.9 181.2 46.9 182 46.9"/>
        <polygon class="st257" points="182.8 46.9 152.4 47.9 151.6 47.9 182 46.9 182.8 46.9"/>
        <polygon class="st11" points="183.6 46.9 153.2 47.9 152.4 47.9 182.8 46.9 183.6 46.9"/>
        <polygon class="st249" points="184.4 46.9 154 47.9 153.2 47.9 183.6 46.9 184.4 46.9"/>
        <polygon class="st281" points="185.2 46.9 154.8 47.9 154 47.9 184.4 46.9 185.2 46.9"/>
        <polygon class="st145" points="186.1 46.9 155.7 47.9 154.8 47.9 185.2 46.9 186.1 46.9"/>
        <polygon class="st238" points="186.9 46.9 156.5 47.9 155.7 47.9 186.1 46.9 186.9 46.9"/>
        <polygon class="st155" points="187.7 46.9 157.3 47.9 156.5 47.9 186.9 46.9 187.7 46.9"/>
        <polygon class="st228" points="188.5 46.9 158.1 47.9 157.3 47.9 187.7 46.9 188.5 46.9"/>
        <polygon class="st339" points="189.3 46.9 158.9 47.9 158.1 47.9 188.5 46.9 189.3 46.9"/>
        <polygon class="st211" points="190.1 46.9 159.7 47.9 158.9 47.9 189.3 46.9 190.1 46.9"/>
        <polygon class="st219" points="190.9 46.9 160.5 47.9 159.7 47.9 190.1 46.9 190.9 46.9"/>
        <polygon class="st71" points="191.7 46.9 161.3 47.9 160.5 47.9 190.9 46.9 191.7 46.9"/>
        <polygon class="st59" points="192.5 46.9 162.1 47.9 161.3 47.9 191.7 46.9 192.5 46.9"/>
        <polygon class="st248" points="193.4 46.9 162.9 47.9 162.1 47.9 192.5 46.9 193.4 46.9"/>
        <polygon class="st117" points="194.2 46.9 163.8 47.9 162.9 47.9 193.4 46.9 194.2 46.9"/>
        <polygon class="st1" points="195 46.9 164.6 47.9 163.8 47.9 194.2 46.9 195 46.9"/>
        <polygon class="st24" points="195.8 46.9 165.4 47.9 164.6 47.9 195 46.9 195.8 46.9"/>
        <polygon class="st96" points="196.6 46.9 166.2 47.9 165.4 47.9 195.8 46.9 196.6 46.9"/>
        <polygon class="st79" points="197.4 46.9 167 47.9 166.2 47.9 196.6 46.9 197.4 46.9"/>
        <polygon class="st104" points="198.2 46.9 167.8 47.9 167 47.9 197.4 46.9 198.2 46.9"/>
        <polygon class="st260" points="199 46.9 168.6 47.9 167.8 47.9 198.2 46.9 199 46.9"/>
        <polygon class="st206" points="199.8 46.9 169.4 47.9 168.6 47.9 199 46.9 199.8 46.9"/>
        <polygon class="st294" points="200.7 46.9 170.2 47.9 169.4 47.9 199.8 46.9 200.7 46.9"/>
        <polygon class="st270" points="201.5 46.9 171.1 47.9 170.2 47.9 200.7 46.9 201.5 46.9"/>
        <polygon class="st161" points="202.3 46.9 171.9 47.9 171.1 47.9 201.5 46.9 202.3 46.9"/>
        <polygon class="st235" points="203.1 46.9 172.7 47.9 171.9 47.9 202.3 46.9 203.1 46.9"/>
        <polygon class="st41" points="203.9 46.9 173.5 47.9 172.7 47.9 203.1 46.9 203.9 46.9"/>
        <polygon class="st388" points="204.7 46.9 174.3 47.9 173.5 47.9 203.9 46.9 204.7 46.9"/>
        <polygon class="st93" points="205.5 46.9 175.1 47.9 174.3 47.9 204.7 46.9 205.5 46.9"/>
        <polygon class="st163" points="206.3 46.9 175.9 47.9 175.1 47.9 205.5 46.9 206.3 46.9"/>
        <polygon class="st167" points="207.1 46.9 176.7 47.9 175.9 47.9 206.3 46.9 207.1 46.9"/>
        <polygon class="st105" points="208 46.9 177.5 47.9 176.7 47.9 207.1 46.9 208 46.9"/>
        <polygon class="st282" points="208.8 46.9 178.4 47.9 177.5 47.9 208 46.9 208.8 46.9"/>
        <polygon class="st109" points="209.6 46.9 179.2 47.9 178.4 47.9 208.8 46.9 209.6 46.9"/>
        <polygon class="st97" points="210.4 46.9 180 47.9 179.2 47.9 209.6 46.9 210.4 46.9"/>
        <polygon class="st275" points="211.2 46.9 180.8 47.9 180 47.9 210.4 46.9 211.2 46.9"/>
        <polygon class="st311" points="212 46.9 181.6 47.9 180.8 47.9 211.2 46.9 212 46.9"/>
        <polygon class="st252" points="212.8 46.9 182.4 47.9 181.6 47.9 212 46.9 212.8 46.9"/>
        <polygon class="st337" points="213.6 46.9 183.2 47.9 182.4 47.9 212.8 46.9 213.6 46.9"/>
        <polygon class="st383" points="214.4 46.9 184 47.9 183.2 47.9 213.6 46.9 214.4 46.9"/>
        <polygon class="st266" points="215.2 46.9 184.8 47.9 184 47.9 214.4 46.9 215.2 46.9"/>
        <polygon class="st264" points="216.1 46.9 185.7 47.9 184.8 47.9 215.2 46.9 216.1 46.9"/>
        <polygon class="st204" points="216.9 46.9 186.5 47.9 185.7 47.9 216.1 46.9 216.9 46.9"/>
        <polygon class="st149" points="217.7 46.9 187.3 47.9 186.5 47.9 216.9 46.9 217.7 46.9"/>
        <polygon class="st245" points="218.5 46.9 188.1 47.9 187.3 47.9 217.7 46.9 218.5 46.9"/>
        <polygon class="st67" points="219.3 46.9 188.9 47.9 188.1 47.9 218.5 46.9 219.3 46.9"/>
        <polygon class="st208" points="220.1 46.9 189.7 47.9 188.9 47.9 219.3 46.9 220.1 46.9"/>
        <polygon class="st17" points="220.9 46.9 190.5 47.9 189.7 47.9 220.1 46.9 220.9 46.9"/>
        <polygon class="st314" points="221.7 46.9 191.3 47.9 190.5 47.9 220.9 46.9 221.7 46.9"/>
        <polygon class="st103" points="222.5 46.9 192.1 47.9 191.3 47.9 221.7 46.9 222.5 46.9"/>
        <polygon class="st72" points="223.4 46.9 193 47.9 192.1 47.9 222.5 46.9 223.4 46.9"/>
        <polygon class="st47" points="224.2 46.9 193.8 47.9 193 47.9 223.4 46.9 224.2 46.9"/>
        <polygon class="st387" points="225 46.9 194.6 47.9 193.8 47.9 224.2 46.9 225 46.9"/>
        <polygon class="st293" points="225.8 46.9 195.4 47.9 194.6 47.9 225 46.9 225.8 46.9"/>
        <polygon class="st16" points="226.6 46.9 196.2 47.9 195.4 47.9 225.8 46.9 226.6 46.9"/>
        <polygon class="st49" points="227.4 46.9 197 47.9 196.2 47.9 226.6 46.9 227.4 46.9"/>
        <polygon class="st295" points="228.2 46.9 197.8 47.9 197 47.9 227.4 46.9 228.2 46.9"/>
        <polygon class="st358" points="229 46.9 198.6 47.9 197.8 47.9 228.2 46.9 229 46.9"/>
        <polygon class="st101" points="229.8 46.9 199.4 47.9 198.6 47.9 229 46.9 229.8 46.9"/>
        <polygon class="st287" points="230.7 46.9 200.2 47.9 199.4 47.9 229.8 46.9 230.7 46.9"/>
        <polygon class="st307" points="231.5 46.9 201.1 47.9 200.2 47.9 230.7 46.9 231.5 46.9"/>
        <polygon class="st259" points="232.3 46.9 201.9 47.9 201.1 47.9 231.5 46.9 232.3 46.9"/>
        <polygon class="st100" points="233.1 46.9 202.7 47.9 201.9 47.9 232.3 46.9 233.1 46.9"/>
        <polygon class="st51" points="233.9 46.9 203.5 47.9 202.7 47.9 233.1 46.9 233.9 46.9"/>
        <polygon class="st98" points="234.7 46.9 204.3 47.9 203.5 47.9 233.9 46.9 234.7 46.9"/>
        <polygon class="st7" points="235.5 46.9 205.1 47.9 204.3 47.9 234.7 46.9 235.5 46.9"/>
        <polygon class="st375" points="236.3 46.9 205.9 47.9 205.1 47.9 235.5 46.9 236.3 46.9"/>
        <polygon class="st34" points="237.1 46.9 206.7 47.9 205.9 47.9 236.3 46.9 237.1 46.9"/>
        <polygon class="st150" points="238 46.9 207.5 47.9 206.7 47.9 237.1 46.9 238 46.9"/>
        <polygon class="st84" points="238.8 46.9 208.4 47.9 207.5 47.9 238 46.9 238.8 46.9"/>
        <polygon class="st316" points="239.6 46.9 209.2 47.9 208.4 47.9 238.8 46.9 239.6 46.9"/>
        <polygon class="st232" points="240.4 46.9 210 47.9 209.2 47.9 239.6 46.9 240.4 46.9"/>
        <polygon class="st82" points="241.2 46.9 210.8 47.9 210 47.9 240.4 46.9 241.2 46.9"/>
        <polygon class="st253" points="242 46.9 211.6 47.9 210.8 47.9 241.2 46.9 242 46.9"/>
        <polygon class="st356" points="242.8 46.9 212.4 47.9 211.6 47.9 242 46.9 242.8 46.9"/>
        <polygon class="st377" points="243.6 46.9 213.2 47.9 212.4 47.9 242.8 46.9 243.6 46.9"/>
        <polygon class="st22" points="244.4 46.9 214 47.9 213.2 47.9 243.6 46.9 244.4 46.9"/>
        <polygon class="st115" points="245.2 46.9 214.8 47.9 214 47.9 244.4 46.9 245.2 46.9"/>
        <polygon class="st317" points="246.1 46.9 215.7 47.9 214.8 47.9 245.2 46.9 246.1 46.9"/>
        <polygon class="st63" points="246.9 46.9 216.5 47.9 215.7 47.9 246.1 46.9 246.9 46.9"/>
        <polygon class="st140" points="247.7 46.9 217.3 47.9 216.5 47.9 246.9 46.9 247.7 46.9"/>
        <polygon class="st203" points="248.5 46.9 218.1 47.9 217.3 47.9 247.7 46.9 248.5 46.9"/>
        <polygon class="st196" points="249.3 46.9 218.9 47.9 218.1 47.9 248.5 46.9 249.3 46.9"/>
        <polygon class="st21" points="250.1 46.9 219.7 47.9 218.9 47.9 249.3 46.9 250.1 46.9"/>
        <polygon class="st277" points="250.8 47 220.5 47.9 219.7 47.9 250.1 46.9 250.8 46.9 250.8 47"/>
        <polygon class="st332" points="250.8 47 221.3 47.9 220.5 47.9 250.8 47 250.8 47"/>
        <polygon class="st285" points="250.8 47 222.1 47.9 221.3 47.9 250.8 47 250.8 47"/>
        <polygon class="st58" points="250.8 47 223 47.9 222.1 47.9 250.8 47 250.8 47"/>
        <polygon class="st309" points="250.8 47.1 223.8 47.9 223 47.9 250.8 47 250.8 47.1"/>
        <polygon class="st323" points="250.8 47.1 224.6 47.9 223.8 47.9 250.8 47.1 250.8 47.1"/>
        <polygon class="st166" points="250.8 47.1 225.4 47.9 224.6 47.9 250.8 47.1 250.8 47.1"/>
        <polygon class="st55" points="250.8 47.1 226.2 47.9 225.4 47.9 250.8 47.1 250.8 47.1"/>
        <polygon class="st83" points="250.8 47.2 227 47.9 226.2 47.9 250.8 47.1 250.8 47.2"/>
        <polygon class="st385" points="250.8 47.2 227.8 47.9 227 47.9 250.8 47.2 250.8 47.2"/>
        <polygon class="st401" points="250.8 47.2 228.6 47.9 227.8 47.9 250.8 47.2 250.8 47.2"/>
        <polygon class="st371" points="250.8 47.2 229.4 47.9 228.6 47.9 250.8 47.2 250.8 47.2"/>
        <polygon class="st305" points="250.8 47.3 230.2 47.9 229.4 47.9 250.8 47.2 250.8 47.3"/>
        <polygon class="st255" points="250.8 47.3 231.1 47.9 230.2 47.9 250.8 47.3 250.8 47.3"/>
        <polygon class="st395" points="250.8 47.3 231.9 47.9 231.1 47.9 250.8 47.3 250.8 47.3"/>
        <polygon class="st0" points="250.8 47.3 232.7 47.9 231.9 47.9 250.8 47.3 250.8 47.3"/>
        <polygon class="st315" points="250.8 47.4 233.5 47.9 232.7 47.9 250.8 47.3 250.8 47.4"/>
        <polygon class="st146" points="250.8 47.4 234.3 47.9 233.5 47.9 250.8 47.4 250.8 47.4"/>
        <polygon class="st173" points="250.8 47.4 235.1 47.9 234.3 47.9 250.8 47.4 250.8 47.4"/>
        <polygon class="st77" points="250.8 47.4 235.9 47.9 235.1 47.9 250.8 47.4 250.8 47.4"/>
        <polygon class="st77" points="235.9 47.9 250.8 47.4 250.8 47.9 235.9 47.9"/>
      </g>
    </g>
  </g>
</svg>