<?xml version="1.0" encoding="UTF-8"?>
<svg xmlns="http://www.w3.org/2000/svg" version="1.1" xmlns:xlink="http://www.w3.org/1999/xlink" viewBox="0 0 259.2 259.2">
  <!-- Generator: Adobe Illustrator 29.1.0, SVG Export Plug-In . SVG Version: 2.1.0 Build 142)  -->
  <defs>
    <style>
      .st0 {
        fill: #845e25;
      }

      .st1 {
        fill: #d0b05a;
      }

      .st2 {
        fill: #9b7737;
      }

      .st3 {
        fill: #a07e3f;
      }

      .st4 {
        fill: #a78645;
      }

      .st5 {
        fill: #a07b3a;
      }

      .st6 {
        fill: #c5a961;
      }

      .st7 {
        fill: #a07b36;
      }

      .st8 {
        fill: #a7833e;
      }

      .st9 {
        fill: #b79854;
      }

      .st10 {
        fill: #b69348;
      }

      .st11 {
        fill: #dfc166;
      }

      .st12 {
        fill: #997435;
      }

      .st13 {
        fill: #ddbe65;
      }

      .st14 {
        fill: #a58444;
      }

      .st15 {
        fill: #cdb269;
      }

      .st16 {
        fill: #aa853d;
      }

      .st17 {
        fill: #b08c41;
      }

      .st18 {
        fill: #c09f50;
      }

      .st19 {
        fill: #bc9a4d;
      }

      .st20 {
        fill: #ccac59;
      }

      .st21 {
        fill: #916b2c;
      }

      .st22 {
        fill: #977130;
      }

      .st23 {
        fill: #ba9b55;
      }

      .st24 {
        fill: #cfae59;
      }

      .st25 {
        fill: #8d6930;
      }

      .st26 {
        fill: #ad8c48;
      }

      .st27 {
        fill: #ac8b48;
      }

      .st28 {
        fill: #caaf66;
      }

      .st29 {
        fill: #916c2f;
      }

      .st30 {
        fill: #b28f46;
      }

      .st31 {
        fill: #896329;
      }

      .st32 {
        fill: #dbc376;
      }

      .st33 {
        fill: #946f31;
      }

      .st34 {
        fill: #9f7935;
      }

      .st35 {
        fill: #c7ac64;
      }

      .st36, .st37 {
        fill: #0d0c25;
      }

      .st38 {
        fill: #e4c669;
      }

      .st39 {
        fill: #dec066;
      }

      .st40 {
        fill: #b2924d;
      }

      .st41 {
        fill: #c5a351;
      }

      .st42 {
        fill: #997639;
      }

      .st43 {
        fill: #bc9e59;
      }

      .st44 {
        fill: #cbb067;
      }

      .st45 {
        fill: #8a642a;
      }

      .st46 {
        fill: #957136;
      }

      .st47 {
        fill: #ad883f;
      }

      .st48 {
        fill: #c9ae65;
      }

      .st49 {
        fill: #a9843c;
      }

      .st50 {
        fill: #ac8942;
      }

      .st51 {
        fill: #a27d37;
      }

      .st52 {
        fill: #bc9f5a;
      }

      .st53 {
        fill: #946f32;
      }

      .st54 {
        fill: #dcbd64;
      }

      .st55 {
        fill: #8b6428;
      }

      .st56 {
        fill: #aa8640;
      }

      .st57 {
        fill: #9d7a3c;
      }

      .st58 {
        fill: #8e672a;
      }

      .st59 {
        fill: #d3b35c;
      }

      .st60 {
        fill: #bea15b;
      }

      .st61 {
        fill: #a17e3d;
      }

      .st62 {
        fill: #b29350;
      }

      .st63 {
        fill: #946e2e;
      }

      .st64 {
        fill: #a4813f;
      }

      .st65 {
        fill: #b69753;
      }

      .st66 {
        fill: #d3b35e;
      }

      .st67 {
        fill: #b28e43;
      }

      .st68 {
        fill: #ccb168;
      }

      .st69 {
        fill: #a88643;
      }

      .st70 {
        fill: #8c672e;
      }

      .st71 {
        fill: #d4b45d;
      }

      .st72 {
        fill: #ae893f;
      }

      .st73 {
        fill: #ae8b43;
      }

      .st74 {
        fill: #bfa25c;
      }

      .st75 {
        fill: #cdb369;
      }

      .st76 {
        fill: #a68341;
      }

      .st77 {
        fill: #815b24;
      }

      .st78 {
        fill: #977234;
      }

      .st79 {
        fill: #cdac57;
      }

      .st80 {
        fill: #aa8845;
      }

      .st81 {
        fill: #ad8a43;
      }

      .st82 {
        fill: #9a7432;
      }

      .st83 {
        fill: #8a6328;
      }

      .st84 {
        fill: #9d7734;
      }

      .st85 {
        fill: #d4b55f;
      }

      .st86 {
        fill: #ad8d4b;
      }

      .st87 {
        fill: #aa8741;
      }

      .st88 {
        fill: #8b652a;
      }

      .st89 {
        fill: #be9d4f;
      }

      .st90 {
        fill: #edd070;
      }

      .st91 {
        fill: #c4a353;
      }

      .st92 {
        fill: #c4a860;
      }

      .st93 {
        fill: #c3a14f;
      }

      .st94 {
        fill: #c5a962;
      }

      .st95 {
        fill: #b99a54;
      }

      .st96 {
        fill: #cead58;
      }

      .st97 {
        fill: #bd9a4b;
      }

      .st98 {
        fill: #a17c36;
      }

      .st99 {
        fill: #926d30;
      }

      .st100 {
        fill: #a37e38;
      }

      .st101 {
        fill: #a6813a;
      }

      .st102 {
        fill: #967234;
      }

      .st103 {
        fill: #af8a40;
      }

      .st104 {
        fill: #ccab56;
      }

      .st105 {
        fill: #c09d4d;
      }

      .st106 {
        fill: #8e692f;
      }

      .st107 {
        fill: #866027;
      }

      .st108 {
        fill: #987538;
      }

      .st109 {
        fill: #be9b4b;
      }

      .st110 {
        fill: #987435;
      }

      .st111 {
        fill: #a98744;
      }

      .st112 {
        fill: #d2b96e;
      }

      .st113 {
        fill: #86612b;
      }

      .st114 {
        fill: #c3a760;
      }

      .st115 {
        fill: #96702f;
      }

      .st116 {
        fill: #a4803d;
      }

      .st117 {
        fill: #d1b15b;
      }

      .st118 {
        fill: #bda05a;
      }

      .st119 {
        fill: #af8e4a;
      }

      .st120 {
        fill: #9c793c;
      }

      .st121 {
        fill: #967236;
      }

      .st122 {
        fill: #a8843f;
      }

      .st123 {
        fill: #b49552;
      }

      .st124 {
        fill: #a17c3a;
      }

      .st125 {
        fill: #d6b760;
      }

      .st126 {
        fill: #977438;
      }

      .st127 {
        fill: #a98540;
      }

      .st128 {
        fill: #c9a957;
      }

      .st129 {
        fill: #906b2f;
      }

      .st130 {
        fill: #9a7536;
      }

      .st131 {
        fill: #e5c86b;
      }

      .st132 {
        fill: #c9ae66;
      }

      .st133 {
        fill: #a37f3c;
      }

      .st134 {
        fill: #9e7a39;
      }

      .st135 {
        fill: #8f6a30;
      }

      .st136 {
        fill: #af8c44;
      }

      .st137 {
        fill: #89652d;
      }

      .st138, .st139 {
        fill: none;
      }

      .st140 {
        fill: #946d2e;
      }

      .st141 {
        fill: #e9cc6d;
      }

      .st142 {
        fill: #d5b65f;
      }

      .st143 {
        fill: #d1b76d;
      }

      .st144 {
        fill: #b18e45;
      }

      .st145 {
        fill: #dcbd63;
      }

      .st146 {
        fill: #835c25;
      }

      .st147 {
        fill: #d2b25d;
      }

      .st148 {
        fill: #e8ca6d;
      }

      .st149 {
        fill: #b49044;
      }

      .st150 {
        fill: #9e7834;
      }

      .st151 {
        fill: #d9bb63;
      }

      .st152 {
        fill: #916d33;
      }

      .st153 {
        fill: #e5c76a;
      }

      .st154 {
        fill: #b89953;
      }

      .st155 {
        fill: #daba61;
      }

      .st156 {
        fill: #9a773a;
      }

      .st157 {
        fill: #c1a051;
      }

      .st158 {
        fill: #957033;
      }

      .st159 {
        fill: #cdae5a;
      }

      .st160 {
        fill: #9f7c3e;
      }

      .st161 {
        fill: #c7a552;
      }

      .st162 {
        fill: #d1b86d;
      }

      .st163 {
        fill: #c29f4e;
      }

      .st164 {
        fill: #d0b05c;
      }

      .st165 {
        fill: #bea15a;
      }

      .st166 {
        fill: #8b6529;
      }

      .st167 {
        fill: #c19e4e;
      }

      .st168 {
        fill: #dfc167;
      }

      .st169 {
        fill: #a6823e;
      }

      .st170 {
        fill: #c6aa63;
      }

      .st171 {
        fill: #dec678;
      }

      .st172 {
        fill: #b1924f;
      }

      .st173 {
        fill: #825b24;
      }

      .st174 {
        clip-path: url(#clippath-1);
      }

      .st175 {
        fill: #bb9c56;
      }

      .st176 {
        fill: #b08f4b;
      }

      .st177 {
        fill: #845e26;
      }

      .st178 {
        fill: #bfa25b;
      }

      .st179 {
        fill: #b59650;
      }

      .st180 {
        fill: #efd271;
      }

      .st181 {
        fill: #bb994d;
      }

      .st182 {
        fill: #9e7b3d;
      }

      .st183 {
        fill: #c7a755;
      }

      .st184 {
        fill: #a17f40;
      }

      .st185 {
        fill: #d5bd71;
      }

      .st186 {
        fill: #b49147;
      }

      .st187 {
        fill: #936e31;
      }

      .st188 {
        fill: #b39451;
      }

      .st189 {
        fill: #a5813d;
      }

      .st190 {
        fill: #ab8946;
      }

      .st191 {
        fill: #b1914e;
      }

      .st192 {
        fill: #ba9c57;
      }

      .st193 {
        fill: #906c32;
      }

      .st194 {
        fill: #d7be72;
      }

      .st195 {
        fill: #bd9f58;
      }

      .st196 {
        fill: #926c2d;
      }

      .st197 {
        fill: #d3ba6f;
      }

      .st198 {
        fill: #957032;
      }

      .st199 {
        fill: #e2c468;
      }

      .st200 {
        fill: #a27d3b;
      }

      .st201 {
        fill: #b99b56;
      }

      .st202 {
        fill: #88632c;
      }

      .st203 {
        fill: #936c2d;
      }

      .st204 {
        fill: #b59145;
      }

      .st205 {
        fill: #916c31;
      }

      .st206 {
        fill: #caa955;
      }

      .st207 {
        fill: #a68442;
      }

      .st208 {
        fill: #b18d42;
      }

      .st209 {
        fill: #ab8b49;
      }

      .st210 {
        fill: #d8b962;
      }

      .st211 {
        fill: #d6b75f;
      }

      .st212 {
        fill: #997536;
      }

      .st213 {
        fill: #b4954f;
      }

      .st37, .st214 {
        fill-rule: evenodd;
      }

      .st215 {
        fill: #9d7a39;
      }

      .st216 {
        fill: #c2a152;
      }

      .st217 {
        fill: #896429;
      }

      .st218 {
        fill: #9c7939;
      }

      .st219 {
        fill: #d5b55e;
      }

      .st220 {
        fill: #d0b66c;
      }

      .st221, .st214 {
        fill: #e3d8ce;
      }

      .st222 {
        fill: #a3803f;
      }

      .st223 {
        fill: #d9c174;
      }

      .st224 {
        fill: #a38142;
      }

      .st225 {
        fill: #b8954a;
      }

      .st226 {
        fill: #e2c368;
      }

      .st227 {
        fill: #a17d3c;
      }

      .st228 {
        fill: #d8b961;
      }

      .st229 {
        clip-path: url(#clippath-3);
      }

      .st230 {
        fill: #cfaf5b;
      }

      .st231 {
        fill: #8f6a31;
      }

      .st232 {
        fill: #9b7533;
      }

      .st233 {
        fill: #9b7636;
      }

      .st234 {
        fill: #8c672f;
      }

      .st235 {
        fill: #c6a452;
      }

      .st236 {
        fill: #a28041;
      }

      .st237 {
        fill: #eccf6f;
      }

      .st238 {
        fill: #dbbc62;
      }

      .st239 {
        fill: #c6aa62;
      }

      .st240 {
        fill: #835d25;
      }

      .st241 {
        fill: #a78543;
      }

      .st242 {
        fill: #ba974b;
      }

      .st243 {
        fill: #9d7938;
      }

      .st244 {
        fill: #977337;
      }

      .st245 {
        fill: #b38f43;
      }

      .st246 {
        fill: #906a2e;
      }

      .st247 {
        fill: #ceb46a;
      }

      .st248 {
        fill: #d2b25b;
      }

      .st249 {
        fill: #debf65;
      }

      .st250 {
        fill: #886228;
      }

      .st139 {
        clip-rule: evenodd;
      }

      .st251 {
        fill: #cbab58;
      }

      .st252 {
        fill: #ba9748;
      }

      .st253 {
        fill: #997332;
      }

      .st254 {
        fill: #8e6930;
      }

      .st255 {
        fill: #865f26;
      }

      .st256 {
        fill: #af8f4d;
      }

      .st257 {
        fill: #e0c267;
      }

      .st258 {
        fill: #d4bc70;
      }

      .st259 {
        fill: #a47e38;
      }

      .st260 {
        fill: #cbaa56;
      }

      .st261 {
        fill: #a98847;
      }

      .st262 {
        fill: #9f7b3b;
      }

      .st263 {
        fill: #a68545;
      }

      .st264 {
        fill: #b69245;
      }

      .st265 {
        fill: #bf9e4f;
      }

      .st266 {
        fill: #b79446;
      }

      .st267 {
        fill: #aa8a48;
      }

      .st268 {
        fill: #c0a45d;
      }

      .st269 {
        fill: #e6c96c;
      }

      .st270 {
        fill: #c8a653;
      }

      .st271 {
        fill: #926e33;
      }

      .st272 {
        fill: #a88746;
      }

      .st273 {
        fill: #9b773a;
      }

      .st274 {
        fill: #dbc375;
      }

      .st275 {
        fill: #bc994a;
      }

      .st276 {
        fill: #bb9d58;
      }

      .st277 {
        fill: #906a2c;
      }

      .st278 {
        fill: #e4c66a;
      }

      .st279 {
        fill: #987335;
      }

      .st280 {
        fill: #f2d573;
      }

      .st281 {
        fill: #ddbe64;
      }

      .st282 {
        fill: #bf9c4c;
      }

      .st283 {
        fill: #9e7a3a;
      }

      .st284 {
        display: none;
      }

      .st285 {
        fill: #8f682b;
      }

      .st286 {
        fill: #89642c;
      }

      .st287 {
        fill: #a68039;
      }

      .st288 {
        fill: #bb984c;
      }

      .st289 {
        fill: #9c7737;
      }

      .st290 {
        fill: #c5a454;
      }

      .st291 {
        fill: #ae8e4c;
      }

      .st292 {
        fill: #9a7636;
      }

      .st293 {
        fill: #ab863d;
      }

      .st294 {
        fill: #c9a754;
      }

      .st295 {
        fill: #a8833b;
      }

      .st296 {
        fill: #a27e3b;
      }

      .st297 {
        fill: #b79852;
      }

      .st298 {
        fill: #a48242;
      }

      .st299 {
        fill: #c8a856;
      }

      .st300 {
        fill: #8f692d;
      }

      .st301 {
        fill: #bea059;
      }

      .st302 {
        fill: #967133;
      }

      .st303 {
        fill: #b08d45;
      }

      .st304 {
        fill: #b59652;
      }

      .st305 {
        fill: #876026;
      }

      .st306 {
        fill: #c8ac64;
      }

      .st307 {
        fill: #a57f39;
      }

      .st308 {
        fill: #d4bb70;
      }

      .st309 {
        fill: #8d672a;
      }

      .st310 {
        fill: #b9964b;
      }

      .st311 {
        fill: #bb9849;
      }

      .st312 {
        fill: #b1904c;
      }

      .st313 {
        fill: #e9cc6e;
      }

      .st314 {
        fill: #af8b41;
      }

      .st315 {
        fill: #845d25;
      }

      .st316 {
        fill: #9c7633;
      }

      .st317 {
        fill: #956f2f;
      }

      .st318 {
        fill: #d1b15c;
      }

      .st319 {
        fill: #b89a55;
      }

      .st320 {
        fill: #c3a252;
      }

      .st321 {
        fill: #ab8a47;
      }

      .st322 {
        fill: #c0a35c;
      }

      .st323 {
        fill: #8c6629;
      }

      .st324 {
        fill: #8f6b32;
      }

      .st325 {
        fill: #c7ab63;
      }

      .st326 {
        clip-path: url(#clippath-2);
      }

      .st327 {
        fill: #8d682e;
      }

      .st328 {
        fill: #bd9c4e;
      }

      .st329 {
        fill: #a58343;
      }

      .st330 {
        fill: #8a652d;
      }

      .st331 {
        fill: #8d682f;
      }

      .st332 {
        fill: #8f692b;
      }

      .st333 {
        fill: #916d31;
      }

      .st334 {
        fill: #f1d472;
      }

      .st335 {
        fill: #dcc477;
      }

      .st336 {
        fill: #936e32;
      }

      .st337 {
        fill: #b99648;
      }

      .st338 {
        fill: #c1a55e;
      }

      .st339 {
        fill: #d7b860;
      }

      .st340 {
        fill: #c6a655;
      }

      .st341 {
        fill: #936f34;
      }

      .st342 {
        fill: #ae8d49;
      }

      .st343 {
        fill: #ab8841;
      }

      .st344 {
        fill: #9c7838;
      }

      .st345 {
        fill: #b69751;
      }

      .st346 {
        fill: #9f7b39;
      }

      .st347 {
        fill: #8d682c;
      }

      .st348 {
        fill: #a07d3f;
      }

      .st349 {
        fill: #926d32;
      }

      .st350 {
        fill: #e6c96b;
      }

      .st351 {
        fill: #d8c073;
      }

      .st352 {
        fill: #e3c568;
      }

      .st353 {
        fill: #d7b861;
      }

      .st354 {
        fill: #8b662e;
      }

      .st355 {
        fill: #b3944f;
      }

      .st356 {
        fill: #997331;
      }

      .st357 {
        fill: #dbbc63;
      }

      .st358 {
        fill: #a7823b;
      }

      .st359 {
        fill: #876128;
      }

      .st360 {
        fill: #ac8c4a;
      }

      .st361 {
        fill: #c4a861;
      }

      .st362 {
        fill: #c1a45d;
      }

      .st363 {
        fill: #a07c3b;
      }

      .st364 {
        fill: #b59248;
      }

      .st365 {
        fill: #8e692d;
      }

      .st366 {
        fill: #eacd6e;
      }

      .st367 {
        fill: #c8ad65;
      }

      .st368 {
        fill: #caaa58;
      }

      .st369 {
        clip-path: url(#clippath);
      }

      .st370 {
        fill: #906b30;
      }

      .st371 {
        fill: #876127;
      }

      .st372 {
        fill: #bc9e57;
      }

      .st373 {
        fill: #cfb56b;
      }

      .st374 {
        fill: #936f35;
      }

      .st375 {
        fill: #9f7a35;
      }

      .st376 {
        fill: #d6be72;
      }

      .st377 {
        fill: #987230;
      }

      .st378 {
        fill: #8d672c;
      }

      .st379 {
        fill: #e8ca6c;
      }

      .st380 {
        fill: #c2a55e;
      }

      .st381 {
        fill: #947035;
      }

      .st382 {
        fill: #c3a75f;
      }

      .st383 {
        fill: #b89547;
      }

      .st384 {
        fill: #865f27;
      }

      .st385 {
        fill: #896328;
      }

      .st386 {
        fill: #946f33;
      }

      .st387 {
        fill: #ac873e;
      }

      .st388 {
        fill: #c4a250;
      }

      .st389 {
        fill: #a27f3e;
      }

      .st390 {
        fill: #987334;
      }

      .st391 {
        fill: #87622b;
      }

      .st392 {
        fill: #aa8948;
      }

      .st393 {
        fill: #e3c569;
      }

      .st394 {
        fill: #977334;
      }

      .st395 {
        fill: #855f26;
      }

      .st396 {
        fill: #8c682f;
      }

      .st397 {
        fill: #9b783b;
      }

      .st398 {
        fill: #b79449;
      }

      .st399 {
        fill: #8c662b;
      }

      .st400 {
        fill: #b3934e;
      }

      .st401 {
        fill: #886227;
      }

      .st402 {
        fill: #b39046;
      }

      .st403 {
        fill: #b0904d;
      }

      .st404 {
        fill: #c2a65f;
      }

      .st405 {
        fill: #8b662d;
      }

      .st406 {
        fill: #a58240;
      }
    </style>
    <clipPath id="clippath">
      <path class="st139" d="M32.2,137.9c-.9,0-1.8-.3-2.6-.8-1.2-.8-1.8-1.9-1.8-3.3,0-1.2.3-2.4.6-3.2,0-.2.1-.4.2-.6.4-1.5-.5-2.1-.5-2.1-.4-.2-1.5-.6-1.9-.3-.2.2-.3.8,0,1.6.7,2.5-.6,3.5-1.4,3.8-.8.4-1.8.3-2.6-.2-1.1-.7-1.4-2-.8-3.5,0-.2.1-.4.1-.6h0c0-.3-.2-.5-.5-.5h-10.9c1.2,11,10.5,19.6,21.8,19.6s20.9-8.8,21.8-20h-10.9c-.2,0-.4,0-.6.2-.1.1-.2.3,0,.7.2.3.4.7.5,1,.3.8.2,1.7-.3,2.4-.6.8-1.5,1.2-2.7,1-.7-.1-1.4-.5-1.8-1.1-.4-.5-.7-1.4-.2-2.5,0,0,0-.1,0-.2.2-.5,0-1-.3-1.3-.3-.3-.8-.4-1.2-.2-1.1.6-.7,2.4-.6,2.5,1.3,4,0,5.8-1.2,6.7-.7.5-1.5.7-2.4.7"/>
    </clipPath>
    <clipPath id="clippath-1">
      <rect class="st138" x="10.1" y="127.4" width="43.7" height="20.5"/>
    </clipPath>
    <clipPath id="clippath-2">
      <rect class="st138" x="65.5" y="129.5" width="185.4" height=".9"/>
    </clipPath>
    <clipPath id="clippath-3">
      <rect class="st138" x="65.5" y="129.5" width="185.4" height=".9"/>
    </clipPath>
  </defs>
  <g id="fundo" class="st284">
    <rect class="st221" width="259.2" height="259.2"/>
  </g>
  <g id="Camada_1">
    <g class="st369">
      <g class="st174">
        <polygon class="st113" points="15.5 127.4 10.1 136.9 10.1 127.4 15.5 127.4"/>
        <polygon class="st113" points="15.7 127.4 10.1 137.3 10.1 136.9 15.5 127.4 15.7 127.4"/>
        <polygon class="st391" points="15.9 127.4 10.1 137.6 10.1 137.3 15.7 127.4 15.9 127.4"/>
        <polygon class="st202" points="16.1 127.4 10.1 138 10.1 137.6 15.9 127.4 16.1 127.4"/>
        <polygon class="st286" points="16.4 127.4 10.1 138.4 10.1 138 16.1 127.4 16.4 127.4"/>
        <polygon class="st137" points="16.6 127.4 10.1 138.8 10.1 138.4 16.4 127.4 16.6 127.4"/>
        <polygon class="st330" points="16.8 127.4 10.1 139.2 10.1 138.8 16.6 127.4 16.8 127.4"/>
        <polygon class="st354" points="17 127.4 10.1 139.6 10.1 139.2 16.8 127.4 17 127.4"/>
        <polygon class="st234" points="17.3 127.4 10.1 140 10.1 139.6 17 127.4 17.3 127.4"/>
        <polygon class="st396" points="17.5 127.4 10.1 140.4 10.1 140 17.3 127.4 17.5 127.4"/>
        <polygon class="st25" points="17.7 127.4 10.1 140.8 10.1 140.4 17.5 127.4 17.7 127.4"/>
        <polygon class="st254" points="17.9 127.4 10.1 141.2 10.1 140.8 17.7 127.4 17.9 127.4"/>
        <polygon class="st231" points="18.1 127.4 10.1 141.6 10.1 141.2 17.9 127.4 18.1 127.4"/>
        <polygon class="st324" points="18.4 127.4 10.1 142 10.1 141.6 18.1 127.4 18.4 127.4"/>
        <polygon class="st193" points="18.6 127.4 10.1 142.4 10.1 142 18.4 127.4 18.6 127.4"/>
        <polygon class="st152" points="18.8 127.4 10.1 142.8 10.1 142.4 18.6 127.4 18.8 127.4"/>
        <polygon class="st271" points="19 127.4 10.1 143.2 10.1 142.8 18.8 127.4 19 127.4"/>
        <polygon class="st341" points="19.3 127.4 10.1 143.6 10.1 143.2 19 127.4 19.3 127.4"/>
        <polygon class="st374" points="19.5 127.4 10.1 144 10.1 143.6 19.3 127.4 19.5 127.4"/>
        <polygon class="st381" points="19.7 127.4 10.1 144.4 10.1 144 19.5 127.4 19.7 127.4"/>
        <polygon class="st46" points="19.9 127.4 10.1 144.8 10.1 144.4 19.7 127.4 19.9 127.4"/>
        <polygon class="st121" points="20.1 127.4 10.1 145.1 10.1 144.8 19.9 127.4 20.1 127.4"/>
        <polygon class="st244" points="20.4 127.4 10.1 145.5 10.1 145.1 20.1 127.4 20.4 127.4"/>
        <polygon class="st126" points="20.6 127.4 10.1 145.9 10.1 145.5 20.4 127.4 20.6 127.4"/>
        <polygon class="st108" points="20.8 127.4 10.1 146.3 10.1 145.9 20.6 127.4 20.8 127.4"/>
        <polygon class="st42" points="21 127.4 10.1 146.7 10.1 146.3 20.8 127.4 21 127.4"/>
        <polygon class="st156" points="21.3 127.4 10.1 147.1 10.1 146.7 21 127.4 21.3 127.4"/>
        <polygon class="st273" points="21.5 127.4 10.1 147.5 10.1 147.1 21.3 127.4 21.5 127.4"/>
        <polygon class="st397" points="21.7 127.4 10.1 147.9 10.1 147.9 10.1 147.5 21.5 127.4 21.7 127.4"/>
        <polygon class="st120" points="21.9 127.4 10.3 147.9 10.1 147.9 21.7 127.4 21.9 127.4"/>
        <polygon class="st57" points="22.2 127.4 10.6 147.9 10.3 147.9 21.9 127.4 22.2 127.4"/>
        <polygon class="st182" points="22.4 127.4 10.8 147.9 10.6 147.9 22.2 127.4 22.4 127.4"/>
        <polygon class="st160" points="22.6 127.4 11 147.9 10.8 147.9 22.4 127.4 22.6 127.4"/>
        <polygon class="st348" points="22.8 127.4 11.2 147.9 11 147.9 22.6 127.4 22.8 127.4"/>
        <polygon class="st3" points="23 127.4 11.5 147.9 11.2 147.9 22.8 127.4 23 127.4"/>
        <polygon class="st184" points="23.3 127.4 11.7 147.9 11.5 147.9 23 127.4 23.3 127.4"/>
        <polygon class="st236" points="23.5 127.4 11.9 147.9 11.7 147.9 23.3 127.4 23.5 127.4"/>
        <polygon class="st224" points="23.7 127.4 12.1 147.9 11.9 147.9 23.5 127.4 23.7 127.4"/>
        <polygon class="st298" points="23.9 127.4 12.4 147.9 12.1 147.9 23.7 127.4 23.9 127.4"/>
        <polygon class="st329" points="24.2 127.4 12.6 147.9 12.4 147.9 23.9 127.4 24.2 127.4"/>
        <polygon class="st14" points="24.4 127.4 12.8 147.9 12.6 147.9 24.2 127.4 24.4 127.4"/>
        <polygon class="st263" points="24.6 127.4 13 147.9 12.8 147.9 24.4 127.4 24.6 127.4"/>
        <polygon class="st4" points="24.8 127.4 13.2 147.9 13 147.9 24.6 127.4 24.8 127.4"/>
        <polygon class="st272" points="25.1 127.4 13.5 147.9 13.2 147.9 24.8 127.4 25.1 127.4"/>
        <polygon class="st261" points="25.3 127.4 13.7 147.9 13.5 147.9 25.1 127.4 25.3 127.4"/>
        <polygon class="st392" points="25.5 127.4 13.9 147.9 13.7 147.9 25.3 127.4 25.5 127.4"/>
        <polygon class="st267" points="25.7 127.4 14.1 147.9 13.9 147.9 25.5 127.4 25.7 127.4"/>
        <polygon class="st209" points="25.9 127.4 14.4 147.9 14.1 147.9 25.7 127.4 25.9 127.4"/>
        <polygon class="st360" points="26.2 127.4 14.6 147.9 14.4 147.9 25.9 127.4 26.2 127.4"/>
        <polygon class="st86" points="26.4 127.4 14.8 147.9 14.6 147.9 26.2 127.4 26.4 127.4"/>
        <polygon class="st291" points="26.6 127.4 15 147.9 14.8 147.9 26.4 127.4 26.6 127.4"/>
        <polygon class="st256" points="26.8 127.4 15.2 147.9 15 147.9 26.6 127.4 26.8 127.4"/>
        <polygon class="st403" points="27.1 127.4 15.5 147.9 15.2 147.9 26.8 127.4 27.1 127.4"/>
        <polygon class="st191" points="27.3 127.4 15.7 147.9 15.5 147.9 27.1 127.4 27.3 127.4"/>
        <polygon class="st172" points="27.5 127.4 15.9 147.9 15.7 147.9 27.3 127.4 27.5 127.4"/>
        <polygon class="st62" points="27.7 127.4 16.1 147.9 15.9 147.9 27.5 127.4 27.7 127.4"/>
        <polygon class="st188" points="27.9 127.4 16.4 147.9 16.1 147.9 27.7 127.4 27.9 127.4"/>
        <polygon class="st123" points="28.2 127.4 16.6 147.9 16.4 147.9 27.9 127.4 28.2 127.4"/>
        <polygon class="st304" points="28.4 127.4 16.8 147.9 16.6 147.9 28.2 127.4 28.4 127.4"/>
        <polygon class="st65" points="28.6 127.4 17 147.9 16.8 147.9 28.4 127.4 28.6 127.4"/>
        <polygon class="st9" points="28.8 127.4 17.3 147.9 17 147.9 28.6 127.4 28.8 127.4"/>
        <polygon class="st319" points="29.1 127.4 17.5 147.9 17.3 147.9 28.8 127.4 29.1 127.4"/>
        <polygon class="st201" points="29.3 127.4 17.7 147.9 17.5 147.9 29.1 127.4 29.3 127.4"/>
        <polygon class="st192" points="29.5 127.4 17.9 147.9 17.7 147.9 29.3 127.4 29.5 127.4"/>
        <polygon class="st276" points="29.7 127.4 18.1 147.9 17.9 147.9 29.5 127.4 29.7 127.4"/>
        <polygon class="st43" points="30 127.4 18.4 147.9 18.1 147.9 29.7 127.4 30 127.4"/>
        <polygon class="st52" points="30.2 127.4 18.6 147.9 18.4 147.9 30 127.4 30.2 127.4"/>
        <polygon class="st118" points="30.4 127.4 18.8 147.9 18.6 147.9 30.2 127.4 30.4 127.4"/>
        <polygon class="st60" points="30.6 127.4 19 147.9 18.8 147.9 30.4 127.4 30.6 127.4"/>
        <polygon class="st74" points="30.8 127.4 19.3 147.9 19 147.9 30.6 127.4 30.8 127.4"/>
        <polygon class="st268" points="31.1 127.4 19.5 147.9 19.3 147.9 30.8 127.4 31.1 127.4"/>
        <polygon class="st338" points="31.3 127.4 19.7 147.9 19.5 147.9 31.1 127.4 31.3 127.4"/>
        <polygon class="st404" points="31.5 127.4 19.9 147.9 19.7 147.9 31.3 127.4 31.5 127.4"/>
        <polygon class="st114" points="31.7 127.4 20.2 147.9 19.9 147.9 31.5 127.4 31.7 127.4"/>
        <polygon class="st361" points="32 127.4 20.4 147.9 20.2 147.9 31.7 127.4 32 127.4"/>
        <polygon class="st94" points="32.2 127.4 20.6 147.9 20.4 147.9 32 127.4 32.2 127.4"/>
        <polygon class="st170" points="32.4 127.4 20.8 147.9 20.6 147.9 32.2 127.4 32.4 127.4"/>
        <polygon class="st35" points="32.6 127.4 21 147.9 20.8 147.9 32.4 127.4 32.6 127.4"/>
        <polygon class="st367" points="32.9 127.4 21.3 147.9 21 147.9 32.6 127.4 32.9 127.4"/>
        <polygon class="st132" points="33.1 127.4 21.5 147.9 21.3 147.9 32.9 127.4 33.1 127.4"/>
        <polygon class="st28" points="33.3 127.4 21.7 147.9 21.5 147.9 33.1 127.4 33.3 127.4"/>
        <polygon class="st44" points="33.5 127.4 21.9 147.9 21.7 147.9 33.3 127.4 33.5 127.4"/>
        <polygon class="st68" points="33.7 127.4 22.2 147.9 21.9 147.9 33.5 127.4 33.7 127.4"/>
        <polygon class="st75" points="34 127.4 22.4 147.9 22.2 147.9 33.7 127.4 34 127.4"/>
        <polygon class="st247" points="34.2 127.4 22.6 147.9 22.4 147.9 34 127.4 34.2 127.4"/>
        <polygon class="st373" points="34.4 127.4 22.8 147.9 22.6 147.9 34.2 127.4 34.4 127.4"/>
        <polygon class="st220" points="34.6 127.4 23 147.9 22.8 147.9 34.4 127.4 34.6 127.4"/>
        <polygon class="st162" points="34.9 127.4 23.3 147.9 23 147.9 34.6 127.4 34.9 127.4"/>
        <polygon class="st112" points="35.1 127.4 23.5 147.9 23.3 147.9 34.9 127.4 35.1 127.4"/>
        <polygon class="st197" points="35.3 127.4 23.7 147.9 23.5 147.9 35.1 127.4 35.3 127.4"/>
        <polygon class="st258" points="35.5 127.4 23.9 147.9 23.7 147.9 35.3 127.4 35.5 127.4"/>
        <polygon class="st185" points="35.7 127.4 24.2 147.9 23.9 147.9 35.5 127.4 35.7 127.4"/>
        <polygon class="st194" points="36 127.4 24.4 147.9 24.2 147.9 35.7 127.4 36 127.4"/>
        <polygon class="st351" points="36.2 127.4 24.6 147.9 24.4 147.9 36 127.4 36.2 127.4"/>
        <polygon class="st223" points="36.4 127.4 24.8 147.9 24.6 147.9 36.2 127.4 36.4 127.4"/>
        <polygon class="st32" points="36.6 127.4 25.1 147.9 24.8 147.9 36.4 127.4 36.6 127.4"/>
        <polygon class="st335" points="36.9 127.4 25.3 147.9 25.1 147.9 36.6 127.4 36.9 127.4"/>
        <polygon class="st171" points="37.1 127.4 25.5 147.9 25.3 147.9 36.9 127.4 37.1 127.4"/>
        <polygon class="st171" points="37.3 127.4 25.7 147.9 25.5 147.9 37.1 127.4 37.3 127.4"/>
        <polygon class="st335" points="37.5 127.4 25.9 147.9 25.7 147.9 37.3 127.4 37.5 127.4"/>
        <polygon class="st274" points="37.7 127.4 26.1 147.9 25.9 147.9 37.5 127.4 37.7 127.4"/>
        <polygon class="st223" points="38 127.4 26.4 147.9 26.1 147.9 37.7 127.4 38 127.4"/>
        <polygon class="st351" points="38.2 127.4 26.6 147.9 26.4 147.9 38 127.4 38.2 127.4"/>
        <polygon class="st376" points="38.4 127.4 26.8 147.9 26.6 147.9 38.2 127.4 38.4 127.4"/>
        <polygon class="st185" points="38.6 127.4 27 147.9 26.8 147.9 38.4 127.4 38.6 127.4"/>
        <polygon class="st308" points="38.8 127.4 27.2 147.9 27 147.9 38.6 127.4 38.8 127.4"/>
        <polygon class="st197" points="39 127.4 27.4 147.9 27.2 147.9 38.8 127.4 39 127.4"/>
        <polygon class="st112" points="39.3 127.4 27.7 147.9 27.4 147.9 39 127.4 39.3 127.4"/>
        <polygon class="st143" points="39.5 127.4 27.9 147.9 27.7 147.9 39.3 127.4 39.5 127.4"/>
        <polygon class="st220" points="39.7 127.4 28.1 147.9 27.9 147.9 39.5 127.4 39.7 127.4"/>
        <polygon class="st373" points="39.9 127.4 28.3 147.9 28.1 147.9 39.7 127.4 39.9 127.4"/>
        <polygon class="st247" points="40.1 127.4 28.5 147.9 28.3 147.9 39.9 127.4 40.1 127.4"/>
        <polygon class="st15" points="40.3 127.4 28.7 147.9 28.5 147.9 40.1 127.4 40.3 127.4"/>
        <polygon class="st68" points="40.5 127.4 29 147.9 28.7 147.9 40.3 127.4 40.5 127.4"/>
        <polygon class="st44" points="40.8 127.4 29.2 147.9 29 147.9 40.5 127.4 40.8 127.4"/>
        <polygon class="st28" points="41 127.4 29.4 147.9 29.2 147.9 40.8 127.4 41 127.4"/>
        <polygon class="st48" points="41.2 127.4 29.6 147.9 29.4 147.9 41 127.4 41.2 127.4"/>
        <polygon class="st306" points="41.4 127.4 29.8 147.9 29.6 147.9 41.2 127.4 41.4 127.4"/>
        <polygon class="st325" points="41.6 127.4 30 147.9 29.8 147.9 41.4 127.4 41.6 127.4"/>
        <polygon class="st239" points="41.8 127.4 30.3 147.9 30 147.9 41.6 127.4 41.8 127.4"/>
        <polygon class="st6" points="42.1 127.4 30.5 147.9 30.3 147.9 41.8 127.4 42.1 127.4"/>
        <polygon class="st92" points="42.3 127.4 30.7 147.9 30.5 147.9 42.1 127.4 42.3 127.4"/>
        <polygon class="st382" points="42.5 127.4 30.9 147.9 30.7 147.9 42.3 127.4 42.5 127.4"/>
        <polygon class="st380" points="42.7 127.4 31.1 147.9 30.9 147.9 42.5 127.4 42.7 127.4"/>
        <polygon class="st362" points="42.9 127.4 31.3 147.9 31.1 147.9 42.7 127.4 42.9 127.4"/>
        <polygon class="st322" points="43.1 127.4 31.6 147.9 31.3 147.9 42.9 127.4 43.1 127.4"/>
        <polygon class="st178" points="43.4 127.4 31.8 147.9 31.6 147.9 43.1 127.4 43.4 127.4"/>
        <polygon class="st165" points="43.6 127.4 32 147.9 31.8 147.9 43.4 127.4 43.6 127.4"/>
        <polygon class="st301" points="43.8 127.4 32.2 147.9 32 147.9 43.6 127.4 43.8 127.4"/>
        <polygon class="st195" points="44 127.4 32.4 147.9 32.2 147.9 43.8 127.4 44 127.4"/>
        <polygon class="st372" points="44.2 127.4 32.6 147.9 32.4 147.9 44 127.4 44.2 127.4"/>
        <polygon class="st175" points="44.4 127.4 32.9 147.9 32.6 147.9 44.2 127.4 44.4 127.4"/>
        <polygon class="st23" points="44.7 127.4 33.1 147.9 32.9 147.9 44.4 127.4 44.7 127.4"/>
        <polygon class="st95" points="44.9 127.4 33.3 147.9 33.1 147.9 44.7 127.4 44.9 127.4"/>
        <polygon class="st154" points="45.1 127.4 33.5 147.9 33.3 147.9 44.9 127.4 45.1 127.4"/>
        <polygon class="st297" points="45.3 127.4 33.7 147.9 33.5 147.9 45.1 127.4 45.3 127.4"/>
        <polygon class="st345" points="45.5 127.4 33.9 147.9 33.7 147.9 45.3 127.4 45.5 127.4"/>
        <polygon class="st179" points="45.7 127.4 34.2 147.9 33.9 147.9 45.5 127.4 45.7 127.4"/>
        <polygon class="st213" points="46 127.4 34.4 147.9 34.2 147.9 45.7 127.4 46 127.4"/>
        <polygon class="st355" points="46.2 127.4 34.6 147.9 34.4 147.9 46 127.4 46.2 127.4"/>
        <polygon class="st400" points="46.4 127.4 34.8 147.9 34.6 147.9 46.2 127.4 46.4 127.4"/>
        <polygon class="st40" points="46.6 127.4 35 147.9 34.8 147.9 46.4 127.4 46.6 127.4"/>
        <polygon class="st312" points="46.8 127.4 35.2 147.9 35 147.9 46.6 127.4 46.8 127.4"/>
        <polygon class="st176" points="47 127.4 35.5 147.9 35.2 147.9 46.8 127.4 47 127.4"/>
        <polygon class="st119" points="47.3 127.4 35.7 147.9 35.5 147.9 47 127.4 47.3 127.4"/>
        <polygon class="st342" points="47.5 127.4 35.9 147.9 35.7 147.9 47.3 127.4 47.5 127.4"/>
        <polygon class="st26" points="47.7 127.4 36.1 147.9 35.9 147.9 47.5 127.4 47.7 127.4"/>
        <polygon class="st27" points="47.9 127.4 36.3 147.9 36.1 147.9 47.7 127.4 47.9 127.4"/>
        <polygon class="st321" points="48.1 127.4 36.5 147.9 36.3 147.9 47.9 127.4 48.1 127.4"/>
        <polygon class="st190" points="48.3 127.4 36.7 147.9 36.5 147.9 48.1 127.4 48.3 127.4"/>
        <polygon class="st80" points="48.6 127.4 37 147.9 36.7 147.9 48.3 127.4 48.6 127.4"/>
        <polygon class="st111" points="48.8 127.4 37.2 147.9 37 147.9 48.6 127.4 48.8 127.4"/>
        <polygon class="st69" points="49 127.4 37.4 147.9 37.2 147.9 48.8 127.4 49 127.4"/>
        <polygon class="st241" points="49.2 127.4 37.6 147.9 37.4 147.9 49 127.4 49.2 127.4"/>
        <polygon class="st207" points="49.4 127.4 37.8 147.9 37.6 147.9 49.2 127.4 49.4 127.4"/>
        <polygon class="st76" points="49.6 127.4 38 147.9 37.8 147.9 49.4 127.4 49.6 127.4"/>
        <polygon class="st406" points="49.9 127.4 38.3 147.9 38 147.9 49.6 127.4 49.9 127.4"/>
        <polygon class="st64" points="50.1 127.4 38.5 147.9 38.3 147.9 49.9 127.4 50.1 127.4"/>
        <polygon class="st222" points="50.3 127.4 38.7 147.9 38.5 147.9 50.1 127.4 50.3 127.4"/>
        <polygon class="st389" points="50.5 127.4 38.9 147.9 38.7 147.9 50.3 127.4 50.5 127.4"/>
        <polygon class="st61" points="50.7 127.4 39.1 147.9 38.9 147.9 50.5 127.4 50.7 127.4"/>
        <polygon class="st227" points="50.9 127.4 39.3 147.9 39.1 147.9 50.7 127.4 50.9 127.4"/>
        <polygon class="st363" points="51.1 127.4 39.6 147.9 39.3 147.9 50.9 127.4 51.1 127.4"/>
        <polygon class="st262" points="51.4 127.4 39.8 147.9 39.6 147.9 51.1 127.4 51.4 127.4"/>
        <polygon class="st283" points="51.6 127.4 40 147.9 39.8 147.9 51.4 127.4 51.6 127.4"/>
        <polygon class="st215" points="51.8 127.4 40.2 147.9 40 147.9 51.6 127.4 51.8 127.4"/>
        <polygon class="st218" points="52 127.4 40.4 147.9 40.2 147.9 51.8 127.4 52 127.4"/>
        <polygon class="st344" points="52.2 127.4 40.6 147.9 40.4 147.9 52 127.4 52.2 127.4"/>
        <polygon class="st2" points="52.4 127.4 40.9 147.9 40.6 147.9 52.2 127.4 52.4 127.4"/>
        <polygon class="st292" points="52.7 127.4 41.1 147.9 40.9 147.9 52.4 127.4 52.7 127.4"/>
        <polygon class="st212" points="52.9 127.4 41.3 147.9 41.1 147.9 52.7 127.4 52.9 127.4"/>
        <polygon class="st110" points="53.1 127.4 41.5 147.9 41.3 147.9 52.9 127.4 53.1 127.4"/>
        <polygon class="st390" points="53.3 127.4 41.7 147.9 41.5 147.9 53.1 127.4 53.3 127.4"/>
        <polygon class="st78" points="53.5 127.4 41.9 147.9 41.7 147.9 53.3 127.4 53.5 127.4"/>
        <polygon class="st302" points="53.7 127.4 42.2 147.9 41.9 147.9 53.5 127.4 53.7 127.4"/>
        <polygon class="st198" points="53.8 127.7 42.4 147.9 42.2 147.9 53.7 127.4 53.8 127.4 53.8 127.7"/>
        <polygon class="st53" points="53.8 128.1 42.6 147.9 42.4 147.9 53.8 127.7 53.8 128.1"/>
        <polygon class="st33" points="53.8 128.5 42.8 147.9 42.6 147.9 53.8 128.1 53.8 128.5"/>
        <polygon class="st187" points="53.8 128.9 43 147.9 42.8 147.9 53.8 128.5 53.8 128.9"/>
        <polygon class="st99" points="53.8 129.2 43.2 147.9 43 147.9 53.8 128.9 53.8 129.2"/>
        <polygon class="st29" points="53.8 129.6 43.5 147.9 43.2 147.9 53.8 129.2 53.8 129.6"/>
        <polygon class="st129" points="53.8 130 43.7 147.9 43.5 147.9 53.8 129.6 53.8 130"/>
        <polygon class="st246" points="53.8 130.4 43.9 147.9 43.7 147.9 53.8 130 53.8 130.4"/>
        <polygon class="st300" points="53.8 130.8 44.1 147.9 43.9 147.9 53.8 130.4 53.8 130.8"/>
        <polygon class="st365" points="53.8 131.2 44.3 147.9 44.1 147.9 53.8 130.8 53.8 131.2"/>
        <polygon class="st347" points="53.8 131.5 44.5 147.9 44.3 147.9 53.8 131.2 53.8 131.5"/>
        <polygon class="st378" points="53.8 131.9 44.8 147.9 44.5 147.9 53.8 131.5 53.8 131.9"/>
        <polygon class="st399" points="53.8 132.3 45 147.9 44.8 147.9 53.8 131.9 53.8 132.3"/>
        <polygon class="st88" points="53.8 132.7 45.2 147.9 45 147.9 53.8 132.3 53.8 132.7"/>
        <polygon class="st45" points="53.8 133.1 45.4 147.9 45.2 147.9 53.8 132.7 53.8 133.1"/>
        <polygon class="st217" points="53.8 133.5 45.6 147.9 45.4 147.9 53.8 133.1 53.8 133.5"/>
        <polygon class="st31" points="53.8 133.8 45.8 147.9 45.6 147.9 53.8 133.5 53.8 133.8"/>
        <polygon class="st250" points="53.8 134.2 46.1 147.9 45.8 147.9 53.8 133.8 53.8 134.2"/>
        <polygon class="st359" points="53.8 134.6 46.3 147.9 46.1 147.9 53.8 134.2 53.8 134.6"/>
        <polygon class="st107" points="53.8 135 46.5 147.9 46.3 147.9 53.8 134.6 53.8 135"/>
        <polygon class="st384" points="53.8 135.4 46.7 147.9 46.5 147.9 53.8 135 53.8 135.4"/>
        <polygon class="st395" points="53.8 135.8 46.9 147.9 46.7 147.9 53.8 135.4 53.8 135.8"/>
        <polygon class="st177" points="53.8 136.1 47.1 147.9 46.9 147.9 53.8 135.8 53.8 136.1"/>
        <polygon class="st240" points="53.8 136.5 47.3 147.9 47.1 147.9 53.8 136.1 53.8 136.5"/>
        <polygon class="st146" points="53.8 136.9 47.6 147.9 47.3 147.9 53.8 136.5 53.8 136.9"/>
        <polygon class="st173" points="53.8 137.3 47.8 147.9 47.6 147.9 53.8 136.9 53.8 137.3"/>
        <polygon class="st77" points="53.8 137.7 48 147.9 47.8 147.9 53.8 137.3 53.8 137.7"/>
        <polygon class="st77" points="48 147.9 53.8 137.7 53.8 147.9 48 147.9"/>
      </g>
    </g>
    <path class="st36" d="M37.5,135.1c0,.8.7,1.5,1.5,1.5s1.5-.7,1.5-1.5-.7-1.5-1.5-1.5-1.5.7-1.5,1.5M14.5,133.9c0,.6.5,1.1,1.1,1.1s1.1-.5,1.1-1.1-.5-1.1-1.1-1.1-1.1.5-1.1,1.1ZM21.7,134c0,.3.2.5.5.5s.5-.2.5-.5-.2-.5-.5-.5-.5.2-.5.5ZM47.7,130.2c0,.3.2.5.5.5s.5-.2.5-.5-.2-.5-.5-.5-.5.2-.5.5ZM18.8,135.1c0,.3.2.5.5.5s.5-.2.5-.5-.2-.5-.5-.5-.5.2-.5.5ZM18,130.5c0,.3.2.5.5.5s.5-.2.5-.5-.2-.5-.5-.5-.5.2-.5.5ZM43.9,133.1c0,.3.2.5.5.5s.5-.2.5-.5-.2-.5-.5-.5-.5.2-.5.5ZM44.9,97.3s-11.3,9.6-14.9,32.7c0,.4-.2.8-.4,1.2-.4.9-1,2.9.4,4.2.9.8,2.2,1,3.3.5,1.1-.5,2.2-1.7,1.4-4.9-1.4-5.6.8-22.6,10.1-33.7ZM28.8,116.1s-4.6,3.9-6.1,13.3c0,.2,0,.3-.1.5-.2.4-.4,1.2.2,1.7.4.3.9.4,1.3.2.4-.2.9-.7.6-2-.6-2.3.3-9.2,4.1-13.7ZM42.8,115.4s-3.8,4.6-3.6,14.1c0,.2,0,.3,0,.5,0,.4-.2,1.2.5,1.6.4.3,1,.2,1.4,0,.4-.3.7-.9.2-2.1-1-2.1-1.3-9.1,1.6-14.2ZM53.8,127.9c-1,11.2-10.4,20-21.8,20s-20.6-8.6-21.8-19.6h10.9c.3,0,.5.2.5.5h0c0,.2,0,.4-.1.6-.6,1.5-.3,2.8.8,3.5.8.5,1.7.6,2.6.2.8-.4,2-1.3,1.4-3.8-.2-.8-.2-1.4,0-1.6.4-.3,1.4,0,1.9.3,0,0,.9.5.5,2.1,0,.2-.1.4-.2.6-.3.9-.6,2-.6,3.2,0,1.4.6,2.6,1.8,3.3.8.5,1.7.8,2.6.8s1.7-.2,2.4-.7c1.3-.9,2.5-2.7,1.2-6.7,0-.1-.5-1.9.6-2.5.4-.2.9-.1,1.2.2.3.3.5.7.3,1.3,0,0,0,.1,0,.2-.5,1.1-.1,2,.2,2.5.4.6,1,1,1.8,1.1,1.2.2,2.1-.2,2.7-1,.5-.7.6-1.6.3-2.4-.1-.3-.3-.7-.5-1-.2-.4-.1-.5,0-.7.1-.2.3-.2.6-.2h10.9ZM28,103.3c-10.8,1.8-19.1,11.3-19.1,22.6s10.3,22.9,22.9,22.9,10.5-1.9,14.4-5.1l1.4,1.7c-.7.6-.9,1.6-.2,2.4l10.9,12.8c.6.7,1.6.8,2.3.2l1.2-1c.7-.6.8-1.6.2-2.3l-10.9-12.8c-.6-.7-1.6-.8-2.3-.2h0c0,0-1.4-1.6-1.4-1.6,4.6-4.2,7.5-10.2,7.5-16.9s-.9-7.4-2.6-10.6h-1.1c1.7,3.1,2.7,6.7,2.7,10.6s0,.7,0,1.1h-10.9c-.5,0-.9.2-1.2.6-.2.3-.5.9,0,1.7.2.3.3.5.4.8.2.6.1,1.2-.2,1.7-.4.6-1,.8-1.9.7-.5,0-.9-.3-1.2-.7-.3-.5-.4-1.1-.1-1.7,0,0,0-.1,0-.2.3-.8,0-1.6-.5-2.2-.6-.5-1.4-.7-2.1-.3-1.8.9-1.1,3.3-1.1,3.4h0c.5,1.6.6,2.9.4,4-.2.8-.6,1.4-1.3,1.8-1.2.8-2.8.8-4,0-2.1-1.4-1.4-3.9-.9-5.6,0-.2.1-.4.2-.6.5-2.2-.9-3-1-3-.2,0-1.9-.9-2.8-.2-.5.4-.6,1.2-.3,2.4.4,1.5,0,2.4-.9,2.9-.6.3-1.3.2-1.8-.1-1-.6-.7-1.8-.4-2.5.1-.3.2-.6.2-.9h0c0-.7-.6-1.3-1.3-1.3h-11c0-.5,0-1,0-1.5,0-10.8,7.8-19.8,18.1-21.6v-1ZM23.1,135.1c0,.6.5,1.1,1.1,1.1s1.1-.5,1.1-1.1-.5-1.1-1.1-1.1-1.1.5-1.1,1.1Z"/>
    <path class="st214" d="M16.6,133.9c0,.6-.5,1.1-1.1,1.1s-1.1-.5-1.1-1.1.5-1.1,1.1-1.1,1.1.5,1.1,1.1M48.2,130.8c-.3,0-.5-.2-.5-.5s.2-.5.5-.5.5.2.5.5-.2.5-.5.5ZM19.8,135.1c0,.3-.2.5-.5.5s-.5-.2-.5-.5.2-.5.5-.5.5.2.5.5ZM18.5,131c-.3,0-.5-.2-.5-.5s.2-.5.5-.5.5.2.5.5-.2.5-.5.5ZM22.7,134c0,.3-.2.5-.5.5s-.5-.2-.5-.5.2-.5.5-.5.5.2.5.5ZM44.4,133.6c-.3,0-.5-.2-.5-.5s.2-.5.5-.5.5.2.5.5-.2.5-.5.5ZM24.2,136.2c-.6,0-1.1-.5-1.1-1.1s.5-1.1,1.1-1.1,1.1.5,1.1,1.1-.5,1.1-1.1,1.1ZM39,136.6c-.8,0-1.5-.7-1.5-1.5s.7-1.5,1.5-1.5,1.5.7,1.5,1.5-.7,1.5-1.5,1.5Z"/>
    <path class="st36" d="M10.3,128.3c.2,2.1.7,4.1,1.5,5.9,1.1,2.6,2.7,5,4.7,7,3.9,3.9,9.3,6.3,15.3,6.3s5.7-.6,8.3-1.6c2.6-1.1,5-2.7,7-4.7,2-2,3.6-4.4,4.7-7,.8-2,1.4-4.1,1.6-6.3h.4c-1,11.2-10.4,20-21.8,20s-20.6-8.6-21.8-19.6h.2ZM41.4,105.1h0c2.7,1.2,4.6,2.6,6.6,4.6,1.7,1.7,3.1,3.6,4.2,5.7h-1.1c1.7,3.1,2.7,6.7,2.7,10.6s0,.7,0,1.1h-.4c0-.4,0-.7,0-1.1,0-2.9-.6-5.7-1.6-8.3-1.1-2.6-2.7-5-4.7-7-1.9-1.9-3.7-3.3-6.2-4.3,0,0,.3.1,0,0,.2-.4.3-.9.5-1.3ZM31.8,103c1.9,0,3.8.2,5.6.7-.2.4-.4.8-.6,1.3-1.6-.4-3.3-.6-5-.6-2.9,0-5.7.6-8.3,1.6-2.6,1.1-5,2.7-7,4.7-3.9,3.9-6.3,9.3-6.3,15.3s0,1,0,1.5h-.2c0-.5,0-1,0-1.5,0-10.8,7.8-19.8,18.1-21.6v-1c-10.8,1.8-19.1,11.3-19.1,22.6s10.3,22.9,22.9,22.9,8.1-1.1,11.5-3.1c-.9.5-1.8,1-2.7,1.4-2.7,1.1-5.7,1.7-8.8,1.7s-6.1-.6-8.8-1.7c-2.8-1.2-5.3-2.9-7.5-5-2.1-2.1-3.8-4.7-5-7.5-1.1-2.7-1.7-5.7-1.7-8.8s.6-6.1,1.7-8.8c1.2-2.8,2.9-5.3,5-7.5,2.1-2.1,4.6-3.8,7.5-5,2.7-1.1,5.7-1.7,8.8-1.7ZM42,103.9c8.4,3.4,14,13.1,14,22s-2.7,12.7-7.1,17.1c-.3.3-.6.5-.9.8l-.2-.3c.3-.3.6-.5.8-.8,4.3-4.3,7-10.3,7-16.9s-5.5-18.4-13.8-21.7l.2-.3ZM31.9,101.6c2,0,4,.2,5.9.7v.3c-2-.5-3.9-.7-5.9-.7-6.6,0-12.5,2.7-16.9,7-4.3,4.3-7,10.3-7,16.9s2.7,12.5,7,16.9c4.3,4.3,10.3,7,16.9,7s10.9-2,15-5.3l.2.3c-4.1,3.3-9.4,5.4-15.2,5.4s-12.7-2.7-17.1-7.1c-4.4-4.4-7.1-10.4-7.1-17.1s2.7-12.7,7.1-17.1c4.4-4.4,10.4-7.1,17.1-7.1Z"/>
    <path class="st37" d="M251.5,106.6c0,.7,0,1.3-.2,1.9,0,.3-.2.6-.3.9-.1.3-.3.6-.4.9-.2.3-.3.6-.5.8-.2.3-.4.5-.6.7-.2.2-.4.4-.6.5.2.2.4.3.6.5.2.2.4.5.6.7.2.3.4.5.5.8.2.3.3.6.4.9.1.3.2.6.3.9,0,.3.1.6.2.9,0,.3,0,.6,0,1v7.6h-3.7v-7.6c0-1.1-.4-2-1.2-2.8-.2-.2-.4-.4-.6-.5-.2-.1-.4-.3-.7-.4-.2,0-.5-.2-.7-.2-.2,0-.5,0-.8,0h-15.5v11.5h-3.7v-15.3h19.2c.3,0,.6,0,.8,0,.3,0,.5-.1.7-.2.2,0,.5-.2.7-.4.2-.1.4-.3.6-.5.2-.2.4-.4.5-.6.1-.2.3-.4.4-.7,0-.2.2-.5.2-.7,0-.2,0-.5,0-.8,0-1.1-.4-2-1.2-2.8-.4-.4-.8-.7-1.3-.9-.5-.2-1-.3-1.5-.3h-19.2v-3.7h19.2c.5,0,1,0,1.5.1.5,0,1,.2,1.4.4.5.2.9.4,1.3.7.4.3.8.6,1.2,1,.4.4.7.8,1,1.2.3.4.5.8.7,1.3.2.5.3.9.4,1.4,0,.5.1,1,.1,1.5M216.2,125v-26h3.7v26.8h-3.7v-.8ZM181.7,124.6l14.9-26.4.5,1c2.8,5,5.6,10,8.4,15l6.5,11.7h-4.4l-11.1-19.9-11.2,19.9h-4.4l.6-1.2ZM173.1,110.5v-11.5h3.7v26.8h-3.7v-11.5h-19.5v11.5h-3.7v-26.8h3.7v11.5h19.5ZM128.6,125.1c-.1-.1-.2-.2-.3-.4,0-.1-.2-.3-.2-.4,0-.1-.1-.3-.1-.4,0-.2,0-.3,0-.5s0-.3,0-.5c0-.1,0-.3.1-.4,0-.1.1-.3.2-.4,0-.1.2-.3.3-.4.1-.1.2-.2.4-.3.1,0,.3-.2.4-.2.1,0,.3-.1.4-.1.2,0,.3,0,.5,0s.3,0,.5,0c.2,0,.3,0,.4.1.1,0,.3.1.4.2.1,0,.2.2.4.3.1.1.2.2.3.4,0,.1.2.3.2.4,0,.1.1.3.1.4,0,.2,0,.3,0,.5s0,.3,0,.5c0,.1,0,.3-.1.4,0,.1-.1.3-.2.4,0,.1-.2.2-.3.4-.1.1-.2.2-.4.3-.1,0-.3.2-.4.2-.1,0-.3.1-.4.1-.2,0-.3,0-.5,0s-.3,0-.5,0c-.2,0-.3,0-.4-.1-.1,0-.3-.1-.4-.2-.1,0-.2-.2-.4-.3ZM123.2,106.6c0,.3,0,.6,0,1,0,.3,0,.6-.2,1,0,.3-.2.6-.3.9-.1.3-.3.6-.4.9-.2.3-.3.6-.5.8-.2.3-.4.5-.6.7-.2.2-.4.4-.6.5.2.2.4.3.6.5.2.2.4.5.6.7.2.3.4.5.5.8.2.3.3.6.4.9.1.3.2.6.3.9,0,.3.1.6.2,1,0,.3,0,.6,0,1v7.6h-3.7v-7.6c0-.5,0-1.1-.3-1.5-.2-.5-.5-.9-.9-1.3-.2-.2-.4-.4-.6-.5-.2-.1-.4-.3-.7-.4-.2,0-.5-.2-.7-.2-.2,0-.5,0-.8,0h-15.5v11.5h-3.7v-15.3h19.2c.3,0,.6,0,.8,0,.3,0,.5-.1.7-.2.2,0,.5-.2.7-.4.2-.1.4-.3.6-.5.2-.2.4-.4.5-.6.1-.2.3-.4.4-.7,0-.2.2-.5.2-.7,0-.2,0-.5,0-.8,0-1.1-.4-2-1.2-2.8-.4-.4-.8-.7-1.3-.9-.5-.2-1-.3-1.5-.3h-19.2v-3.7h19.2c.5,0,1,0,1.5.1.5,0,1,.2,1.4.4.5.2.9.4,1.3.7.4.3.8.6,1.2,1,.4.4.7.8,1,1.2.3.4.5.8.7,1.3.2.5.3.9.4,1.4,0,.5.1,1,.1,1.5ZM78.2,99c1.8,0,3.6.3,5.1,1,1.6.7,3,1.6,4.3,2.9,1.3,1.3,2.3,2.7,2.9,4.3.3.8.6,1.6.7,2.5.2.9.2,1.8.2,2.7,0,1.8-.3,3.6-1,5.1-.7,1.6-1.6,3-2.9,4.3-.6.6-1.3,1.2-2.1,1.7-.7.5-1.5.9-2.3,1.2-.8.3-1.6.6-2.5.7-.9.2-1.8.2-2.7.2h-13.4v-3.7h13.4c.5,0,.9,0,1.3,0,.4,0,.8-.1,1.2-.2.4-.1.8-.2,1.2-.4.4-.2.8-.4,1.1-.6.8-.4,1.4-.9,2-1.5.6-.6,1.1-1.3,1.5-2,.2-.4.4-.8.6-1.1.2-.4.3-.8.4-1.2.1-.4.2-.8.2-1.2,0-.4,0-.8,0-1.3s0-.9,0-1.3c0-.4-.1-.8-.2-1.2-.1-.4-.2-.8-.4-1.2-.2-.4-.4-.8-.6-1.2-.4-.8-.9-1.4-1.5-2-.6-.6-1.3-1.1-2-1.5-.4-.2-.8-.4-1.1-.6-.4-.2-.8-.3-1.2-.4-.4-.1-.8-.2-1.2-.2-.4,0-.8,0-1.3,0h-13.4v-3.7h13.4Z"/>
    <g class="st326">
      <g class="st229">
        <polygon class="st113" points="80.3 129.5 65.5 130 65.5 129.5 80.3 129.5"/>
        <polygon class="st113" points="81.1 129.5 65.5 130 65.5 130 80.3 129.5 81.1 129.5"/>
        <polygon class="st391" points="82 129.5 65.5 130 65.5 130 81.1 129.5 82 129.5"/>
        <polygon class="st202" points="82.8 129.5 65.5 130 65.5 130 82 129.5 82.8 129.5"/>
        <polygon class="st286" points="83.6 129.5 65.5 130.1 65.5 130 82.8 129.5 83.6 129.5"/>
        <polygon class="st286" points="84.5 129.5 65.5 130.1 65.5 130.1 83.6 129.5 84.5 129.5"/>
        <polygon class="st330" points="85.3 129.5 65.5 130.1 65.5 130.1 84.5 129.5 85.3 129.5"/>
        <polygon class="st405" points="86.1 129.5 65.5 130.1 65.5 130.1 85.3 129.5 86.1 129.5"/>
        <polygon class="st70" points="86.9 129.5 65.5 130.2 65.5 130.1 86.1 129.5 86.9 129.5"/>
        <polygon class="st327" points="87.8 129.5 65.5 130.2 65.5 130.2 86.9 129.5 87.8 129.5"/>
        <polygon class="st331" points="88.6 129.5 65.5 130.2 65.5 130.2 87.8 129.5 88.6 129.5"/>
        <polygon class="st106" points="89.4 129.5 65.5 130.2 65.5 130.2 88.6 129.5 89.4 129.5"/>
        <polygon class="st135" points="90.3 129.5 65.5 130.3 65.5 130.2 89.4 129.5 90.3 129.5"/>
        <polygon class="st370" points="91.1 129.5 65.5 130.3 65.5 130.3 90.3 129.5 91.1 129.5"/>
        <polygon class="st205" points="91.9 129.5 65.5 130.3 65.5 130.3 91.1 129.5 91.9 129.5"/>
        <polygon class="st333" points="92.7 129.5 65.5 130.3 65.5 130.3 91.9 129.5 92.7 129.5"/>
        <polygon class="st349" points="93.6 129.5 65.5 130.4 65.5 130.3 92.7 129.5 93.6 129.5"/>
        <polygon class="st336" points="94.4 129.5 65.5 130.4 65.5 130.4 93.6 129.5 94.4 129.5"/>
        <polygon class="st386" points="95.2 129.5 65.5 130.4 65.5 130.4 94.4 129.5 95.2 129.5"/>
        <polygon class="st158" points="96.1 129.5 65.6 130.4 65.5 130.4 65.5 130.4 95.2 129.5 96.1 129.5"/>
        <polygon class="st302" points="96.9 129.5 66.5 130.4 65.6 130.4 96.1 129.5 96.9 129.5"/>
        <polygon class="st102" points="97.7 129.5 67.3 130.4 66.5 130.4 96.9 129.5 97.7 129.5"/>
        <polygon class="st394" points="98.5 129.5 68.1 130.4 67.3 130.4 97.7 129.5 98.5 129.5"/>
        <polygon class="st279" points="99.4 129.5 69 130.4 68.1 130.4 98.5 129.5 99.4 129.5"/>
        <polygon class="st12" points="100.2 129.5 69.8 130.4 69 130.4 99.4 129.5 100.2 129.5"/>
        <polygon class="st130" points="101 129.5 70.6 130.4 69.8 130.4 100.2 129.5 101 129.5"/>
        <polygon class="st233" points="101.9 129.5 71.4 130.4 70.6 130.4 101 129.5 101.9 129.5"/>
        <polygon class="st289" points="102.7 129.5 72.3 130.4 71.4 130.4 101.9 129.5 102.7 129.5"/>
        <polygon class="st344" points="103.5 129.5 73.1 130.4 72.3 130.4 102.7 129.5 103.5 129.5"/>
        <polygon class="st243" points="104.3 129.5 73.9 130.4 73.1 130.4 103.5 129.5 104.3 129.5"/>
        <polygon class="st134" points="105.2 129.5 74.8 130.4 73.9 130.4 104.3 129.5 105.2 129.5"/>
        <polygon class="st346" points="106 129.5 75.6 130.4 74.8 130.4 105.2 129.5 106 129.5"/>
        <polygon class="st5" points="106.8 129.5 76.4 130.4 75.6 130.4 106 129.5 106.8 129.5"/>
        <polygon class="st124" points="107.7 129.5 77.3 130.4 76.4 130.4 106.8 129.5 107.7 129.5"/>
        <polygon class="st200" points="108.5 129.5 78.1 130.4 77.3 130.4 107.7 129.5 108.5 129.5"/>
        <polygon class="st296" points="109.3 129.5 78.9 130.4 78.1 130.4 108.5 129.5 109.3 129.5"/>
        <polygon class="st133" points="110.1 129.5 79.7 130.4 78.9 130.4 109.3 129.5 110.1 129.5"/>
        <polygon class="st116" points="111 129.5 80.6 130.4 79.7 130.4 110.1 129.5 111 129.5"/>
        <polygon class="st189" points="111.8 129.5 81.4 130.4 80.6 130.4 111 129.5 111.8 129.5"/>
        <polygon class="st169" points="112.6 129.5 82.2 130.4 81.4 130.4 111.8 129.5 112.6 129.5"/>
        <polygon class="st8" points="113.5 129.5 83.1 130.4 82.2 130.4 112.6 129.5 113.5 129.5"/>
        <polygon class="st122" points="114.3 129.5 83.9 130.4 83.1 130.4 113.5 129.5 114.3 129.5"/>
        <polygon class="st127" points="115.1 129.5 84.7 130.4 83.9 130.4 114.3 129.5 115.1 129.5"/>
        <polygon class="st56" points="115.9 129.5 85.5 130.4 84.7 130.4 115.1 129.5 115.9 129.5"/>
        <polygon class="st87" points="116.8 129.5 86.4 130.4 85.5 130.4 115.9 129.5 116.8 129.5"/>
        <polygon class="st343" points="117.6 129.5 87.2 130.4 86.4 130.4 116.8 129.5 117.6 129.5"/>
        <polygon class="st50" points="118.4 129.5 88 130.4 87.2 130.4 117.6 129.5 118.4 129.5"/>
        <polygon class="st81" points="119.3 129.5 88.9 130.4 88 130.4 118.4 129.5 119.3 129.5"/>
        <polygon class="st73" points="120.1 129.5 89.7 130.4 88.9 130.4 119.3 129.5 120.1 129.5"/>
        <polygon class="st136" points="120.9 129.5 90.5 130.4 89.7 130.4 120.1 129.5 120.9 129.5"/>
        <polygon class="st303" points="121.7 129.5 91.3 130.4 90.5 130.4 120.9 129.5 121.7 129.5"/>
        <polygon class="st144" points="122.6 129.5 92.2 130.4 91.3 130.4 121.7 129.5 122.6 129.5"/>
        <polygon class="st30" points="123.4 129.5 93 130.4 92.2 130.4 122.6 129.5 123.4 129.5"/>
        <polygon class="st402" points="124.2 129.5 93.8 130.4 93 130.4 123.4 129.5 124.2 129.5"/>
        <polygon class="st186" points="125.1 129.5 94.7 130.4 93.8 130.4 124.2 129.5 125.1 129.5"/>
        <polygon class="st364" points="125.9 129.5 95.5 130.4 94.7 130.4 125.1 129.5 125.9 129.5"/>
        <polygon class="st10" points="126.7 129.5 96.3 130.4 95.5 130.4 125.9 129.5 126.7 129.5"/>
        <polygon class="st398" points="127.5 129.5 97.1 130.4 96.3 130.4 126.7 129.5 127.5 129.5"/>
        <polygon class="st225" points="128.4 129.5 98 130.4 97.1 130.4 127.5 129.5 128.4 129.5"/>
        <polygon class="st310" points="129.2 129.5 98.8 130.4 98 130.4 128.4 129.5 129.2 129.5"/>
        <polygon class="st242" points="130 129.5 99.6 130.4 98.8 130.4 129.2 129.5 130 129.5"/>
        <polygon class="st288" points="130.9 129.5 100.5 130.4 99.6 130.4 130 129.5 130.9 129.5"/>
        <polygon class="st181" points="131.7 129.5 101.3 130.4 100.5 130.4 130.9 129.5 131.7 129.5"/>
        <polygon class="st19" points="132.5 129.5 102.1 130.4 101.3 130.4 131.7 129.5 132.5 129.5"/>
        <polygon class="st328" points="133.3 129.5 102.9 130.4 102.1 130.4 132.5 129.5 133.3 129.5"/>
        <polygon class="st89" points="134.2 129.5 103.8 130.4 102.9 130.4 133.3 129.5 134.2 129.5"/>
        <polygon class="st265" points="135 129.5 104.6 130.4 103.8 130.4 134.2 129.5 135 129.5"/>
        <polygon class="st18" points="135.8 129.5 105.4 130.4 104.6 130.4 135 129.5 135.8 129.5"/>
        <polygon class="st157" points="136.7 129.5 106.3 130.4 105.4 130.4 135.8 129.5 136.7 129.5"/>
        <polygon class="st216" points="137.5 129.5 107.1 130.4 106.3 130.4 136.7 129.5 137.5 129.5"/>
        <polygon class="st320" points="138.3 129.5 107.9 130.4 107.1 130.4 137.5 129.5 138.3 129.5"/>
        <polygon class="st91" points="139.1 129.5 108.7 130.4 107.9 130.4 138.3 129.5 139.1 129.5"/>
        <polygon class="st290" points="140 129.5 109.6 130.4 108.7 130.4 139.1 129.5 140 129.5"/>
        <polygon class="st340" points="140.8 129.5 110.4 130.4 109.6 130.4 140 129.5 140.8 129.5"/>
        <polygon class="st183" points="141.6 129.5 111.2 130.4 110.4 130.4 140.8 129.5 141.6 129.5"/>
        <polygon class="st299" points="142.5 129.5 112.1 130.4 111.2 130.4 141.6 129.5 142.5 129.5"/>
        <polygon class="st128" points="143.3 129.5 112.9 130.4 112.1 130.4 142.5 129.5 143.3 129.5"/>
        <polygon class="st368" points="144.1 129.5 113.7 130.4 112.9 130.4 143.3 129.5 144.1 129.5"/>
        <polygon class="st251" points="144.9 129.5 114.5 130.4 113.7 130.4 144.1 129.5 144.9 129.5"/>
        <polygon class="st20" points="145.8 129.5 115.4 130.4 114.5 130.4 144.9 129.5 145.8 129.5"/>
        <polygon class="st159" points="146.6 129.5 116.2 130.4 115.4 130.4 145.8 129.5 146.6 129.5"/>
        <polygon class="st230" points="147.4 129.5 117 130.4 116.2 130.4 146.6 129.5 147.4 129.5"/>
        <polygon class="st164" points="148.3 129.5 117.9 130.4 117 130.4 147.4 129.5 148.3 129.5"/>
        <polygon class="st318" points="149.1 129.5 118.7 130.4 117.9 130.4 148.3 129.5 149.1 129.5"/>
        <polygon class="st147" points="149.9 129.5 119.5 130.4 118.7 130.4 149.1 129.5 149.9 129.5"/>
        <polygon class="st66" points="150.7 129.5 120.3 130.4 119.5 130.4 149.9 129.5 150.7 129.5"/>
        <polygon class="st85" points="151.6 129.5 121.2 130.4 120.3 130.4 150.7 129.5 151.6 129.5"/>
        <polygon class="st142" points="152.4 129.5 122 130.4 121.2 130.4 151.6 129.5 152.4 129.5"/>
        <polygon class="st125" points="153.2 129.5 122.8 130.4 122 130.4 152.4 129.5 153.2 129.5"/>
        <polygon class="st353" points="154.1 129.5 123.7 130.4 122.8 130.4 153.2 129.5 154.1 129.5"/>
        <polygon class="st210" points="154.9 129.5 124.5 130.4 123.7 130.4 154.1 129.5 154.9 129.5"/>
        <polygon class="st151" points="155.7 129.5 125.3 130.4 124.5 130.4 154.9 129.5 155.7 129.5"/>
        <polygon class="st357" points="156.5 129.5 126.1 130.4 125.3 130.4 155.7 129.5 156.5 129.5"/>
        <polygon class="st54" points="157.4 129.5 127 130.4 126.1 130.4 156.5 129.5 157.4 129.5"/>
        <polygon class="st13" points="158.2 129.5 127.8 130.4 127 130.4 157.4 129.5 158.2 129.5"/>
        <polygon class="st39" points="159 129.5 128.6 130.4 127.8 130.4 158.2 129.5 159 129.5"/>
        <polygon class="st168" points="159.9 129.5 129.5 130.4 128.6 130.4 159 129.5 159.9 129.5"/>
        <polygon class="st257" points="160.7 129.5 130.3 130.4 129.5 130.4 159.9 129.5 160.7 129.5"/>
        <polygon class="st199" points="161.5 129.5 131.1 130.4 130.3 130.4 160.7 129.5 161.5 129.5"/>
        <polygon class="st393" points="162.3 129.5 131.9 130.4 131.1 130.4 161.5 129.5 162.3 129.5"/>
        <polygon class="st278" points="163.2 129.5 132.8 130.4 131.9 130.4 162.3 129.5 163.2 129.5"/>
        <polygon class="st131" points="164 129.5 133.6 130.4 132.8 130.4 163.2 129.5 164 129.5"/>
        <polygon class="st269" points="164.8 129.5 134.4 130.4 133.6 130.4 164 129.5 164.8 129.5"/>
        <polygon class="st148" points="165.7 129.5 135.3 130.4 134.4 130.4 164.8 129.5 165.7 129.5"/>
        <polygon class="st313" points="166.5 129.5 136.1 130.4 135.3 130.4 165.7 129.5 166.5 129.5"/>
        <polygon class="st366" points="167.3 129.5 136.9 130.4 136.1 130.4 166.5 129.5 167.3 129.5"/>
        <polygon class="st237" points="168.1 129.5 137.7 130.4 136.9 130.4 167.3 129.5 168.1 129.5"/>
        <polygon class="st90" points="169 129.5 138.6 130.4 137.7 130.4 168.1 129.5 169 129.5"/>
        <polygon class="st180" points="169.8 129.5 139.4 130.4 138.6 130.4 169 129.5 169.8 129.5"/>
        <polygon class="st334" points="170.6 129.5 140.2 130.4 139.4 130.4 169.8 129.5 170.6 129.5"/>
        <polygon class="st280" points="171.5 129.5 141.1 130.4 140.2 130.4 170.6 129.5 171.5 129.5"/>
        <polygon class="st280" points="172.3 129.5 141.9 130.4 141.1 130.4 171.5 129.5 172.3 129.5"/>
        <polygon class="st334" points="173.1 129.5 142.7 130.4 141.9 130.4 172.3 129.5 173.1 129.5"/>
        <polygon class="st180" points="173.9 129.5 143.5 130.4 142.7 130.4 173.1 129.5 173.9 129.5"/>
        <polygon class="st90" points="174.7 129.5 144.3 130.4 143.5 130.4 173.9 129.5 174.7 129.5"/>
        <polygon class="st237" points="175.5 129.5 145.1 130.4 144.3 130.4 174.7 129.5 175.5 129.5"/>
        <polygon class="st366" points="176.3 129.5 145.9 130.4 145.1 130.4 175.5 129.5 176.3 129.5"/>
        <polygon class="st141" points="177.1 129.5 146.7 130.4 145.9 130.4 176.3 129.5 177.1 129.5"/>
        <polygon class="st379" points="177.9 129.5 147.5 130.4 146.7 130.4 177.1 129.5 177.9 129.5"/>
        <polygon class="st350" points="178.8 129.5 148.4 130.4 147.5 130.4 177.9 129.5 178.8 129.5"/>
        <polygon class="st153" points="179.6 129.5 149.2 130.4 148.4 130.4 178.8 129.5 179.6 129.5"/>
        <polygon class="st38" points="180.4 129.5 150 130.4 149.2 130.4 179.6 129.5 180.4 129.5"/>
        <polygon class="st352" points="181.2 129.5 150.8 130.4 150 130.4 180.4 129.5 181.2 129.5"/>
        <polygon class="st226" points="182 129.5 151.6 130.4 150.8 130.4 181.2 129.5 182 129.5"/>
        <polygon class="st257" points="182.8 129.5 152.4 130.4 151.6 130.4 182 129.5 182.8 129.5"/>
        <polygon class="st11" points="183.6 129.5 153.2 130.4 152.4 130.4 182.8 129.5 183.6 129.5"/>
        <polygon class="st249" points="184.4 129.5 154 130.4 153.2 130.4 183.6 129.5 184.4 129.5"/>
        <polygon class="st281" points="185.2 129.5 154.8 130.4 154 130.4 184.4 129.5 185.2 129.5"/>
        <polygon class="st145" points="186.1 129.5 155.7 130.4 154.8 130.4 185.2 129.5 186.1 129.5"/>
        <polygon class="st238" points="186.9 129.5 156.5 130.4 155.7 130.4 186.1 129.5 186.9 129.5"/>
        <polygon class="st155" points="187.7 129.5 157.3 130.4 156.5 130.4 186.9 129.5 187.7 129.5"/>
        <polygon class="st228" points="188.5 129.5 158.1 130.4 157.3 130.4 187.7 129.5 188.5 129.5"/>
        <polygon class="st339" points="189.3 129.5 158.9 130.4 158.1 130.4 188.5 129.5 189.3 129.5"/>
        <polygon class="st211" points="190.1 129.5 159.7 130.4 158.9 130.4 189.3 129.5 190.1 129.5"/>
        <polygon class="st219" points="190.9 129.5 160.5 130.4 159.7 130.4 190.1 129.5 190.9 129.5"/>
        <polygon class="st71" points="191.7 129.5 161.3 130.4 160.5 130.4 190.9 129.5 191.7 129.5"/>
        <polygon class="st59" points="192.5 129.5 162.1 130.4 161.3 130.4 191.7 129.5 192.5 129.5"/>
        <polygon class="st248" points="193.4 129.5 162.9 130.4 162.1 130.4 192.5 129.5 193.4 129.5"/>
        <polygon class="st117" points="194.2 129.5 163.8 130.4 162.9 130.4 193.4 129.5 194.2 129.5"/>
        <polygon class="st1" points="195 129.5 164.6 130.4 163.8 130.4 194.2 129.5 195 129.5"/>
        <polygon class="st24" points="195.8 129.5 165.4 130.4 164.6 130.4 195 129.5 195.8 129.5"/>
        <polygon class="st96" points="196.6 129.5 166.2 130.4 165.4 130.4 195.8 129.5 196.6 129.5"/>
        <polygon class="st79" points="197.4 129.5 167 130.4 166.2 130.4 196.6 129.5 197.4 129.5"/>
        <polygon class="st104" points="198.2 129.5 167.8 130.4 167 130.4 197.4 129.5 198.2 129.5"/>
        <polygon class="st260" points="199 129.5 168.6 130.4 167.8 130.4 198.2 129.5 199 129.5"/>
        <polygon class="st206" points="199.8 129.5 169.4 130.4 168.6 130.4 199 129.5 199.8 129.5"/>
        <polygon class="st294" points="200.7 129.5 170.2 130.4 169.4 130.4 199.8 129.5 200.7 129.5"/>
        <polygon class="st270" points="201.5 129.5 171.1 130.4 170.2 130.4 200.7 129.5 201.5 129.5"/>
        <polygon class="st161" points="202.3 129.5 171.9 130.4 171.1 130.4 201.5 129.5 202.3 129.5"/>
        <polygon class="st235" points="203.1 129.5 172.7 130.4 171.9 130.4 202.3 129.5 203.1 129.5"/>
        <polygon class="st41" points="203.9 129.5 173.5 130.4 172.7 130.4 203.1 129.5 203.9 129.5"/>
        <polygon class="st388" points="204.7 129.5 174.3 130.4 173.5 130.4 203.9 129.5 204.7 129.5"/>
        <polygon class="st93" points="205.5 129.5 175.1 130.4 174.3 130.4 204.7 129.5 205.5 129.5"/>
        <polygon class="st163" points="206.3 129.5 175.9 130.4 175.1 130.4 205.5 129.5 206.3 129.5"/>
        <polygon class="st167" points="207.1 129.5 176.7 130.4 175.9 130.4 206.3 129.5 207.1 129.5"/>
        <polygon class="st105" points="208 129.5 177.5 130.4 176.7 130.4 207.1 129.5 208 129.5"/>
        <polygon class="st282" points="208.8 129.5 178.4 130.4 177.5 130.4 208 129.5 208.8 129.5"/>
        <polygon class="st109" points="209.6 129.5 179.2 130.4 178.4 130.4 208.8 129.5 209.6 129.5"/>
        <polygon class="st97" points="210.4 129.5 180 130.4 179.2 130.4 209.6 129.5 210.4 129.5"/>
        <polygon class="st275" points="211.2 129.5 180.8 130.4 180 130.4 210.4 129.5 211.2 129.5"/>
        <polygon class="st311" points="212 129.5 181.6 130.4 180.8 130.4 211.2 129.5 212 129.5"/>
        <polygon class="st252" points="212.8 129.5 182.4 130.4 181.6 130.4 212 129.5 212.8 129.5"/>
        <polygon class="st337" points="213.6 129.5 183.2 130.4 182.4 130.4 212.8 129.5 213.6 129.5"/>
        <polygon class="st383" points="214.4 129.5 184 130.4 183.2 130.4 213.6 129.5 214.4 129.5"/>
        <polygon class="st266" points="215.2 129.5 184.8 130.4 184 130.4 214.4 129.5 215.2 129.5"/>
        <polygon class="st264" points="216.1 129.5 185.7 130.4 184.8 130.4 215.2 129.5 216.1 129.5"/>
        <polygon class="st204" points="216.9 129.5 186.5 130.4 185.7 130.4 216.1 129.5 216.9 129.5"/>
        <polygon class="st149" points="217.7 129.5 187.3 130.4 186.5 130.4 216.9 129.5 217.7 129.5"/>
        <polygon class="st245" points="218.5 129.5 188.1 130.4 187.3 130.4 217.7 129.5 218.5 129.5"/>
        <polygon class="st67" points="219.3 129.5 188.9 130.4 188.1 130.4 218.5 129.5 219.3 129.5"/>
        <polygon class="st208" points="220.1 129.5 189.7 130.4 188.9 130.4 219.3 129.5 220.1 129.5"/>
        <polygon class="st17" points="220.9 129.5 190.5 130.4 189.7 130.4 220.1 129.5 220.9 129.5"/>
        <polygon class="st314" points="221.7 129.5 191.3 130.4 190.5 130.4 220.9 129.5 221.7 129.5"/>
        <polygon class="st103" points="222.5 129.5 192.1 130.4 191.3 130.4 221.7 129.5 222.5 129.5"/>
        <polygon class="st72" points="223.4 129.5 193 130.4 192.1 130.4 222.5 129.5 223.4 129.5"/>
        <polygon class="st47" points="224.2 129.5 193.8 130.4 193 130.4 223.4 129.5 224.2 129.5"/>
        <polygon class="st387" points="225 129.5 194.6 130.4 193.8 130.4 224.2 129.5 225 129.5"/>
        <polygon class="st293" points="225.8 129.5 195.4 130.4 194.6 130.4 225 129.5 225.8 129.5"/>
        <polygon class="st16" points="226.6 129.5 196.2 130.4 195.4 130.4 225.8 129.5 226.6 129.5"/>
        <polygon class="st49" points="227.4 129.5 197 130.4 196.2 130.4 226.6 129.5 227.4 129.5"/>
        <polygon class="st295" points="228.2 129.5 197.8 130.4 197 130.4 227.4 129.5 228.2 129.5"/>
        <polygon class="st358" points="229 129.5 198.6 130.4 197.8 130.4 228.2 129.5 229 129.5"/>
        <polygon class="st101" points="229.8 129.5 199.4 130.4 198.6 130.4 229 129.5 229.8 129.5"/>
        <polygon class="st287" points="230.7 129.5 200.2 130.4 199.4 130.4 229.8 129.5 230.7 129.5"/>
        <polygon class="st307" points="231.5 129.5 201.1 130.4 200.2 130.4 230.7 129.5 231.5 129.5"/>
        <polygon class="st259" points="232.3 129.5 201.9 130.4 201.1 130.4 231.5 129.5 232.3 129.5"/>
        <polygon class="st100" points="233.1 129.5 202.7 130.4 201.9 130.4 232.3 129.5 233.1 129.5"/>
        <polygon class="st51" points="233.9 129.5 203.5 130.4 202.7 130.4 233.1 129.5 233.9 129.5"/>
        <polygon class="st98" points="234.7 129.5 204.3 130.4 203.5 130.4 233.9 129.5 234.7 129.5"/>
        <polygon class="st7" points="235.5 129.5 205.1 130.4 204.3 130.4 234.7 129.5 235.5 129.5"/>
        <polygon class="st375" points="236.3 129.5 205.9 130.4 205.1 130.4 235.5 129.5 236.3 129.5"/>
        <polygon class="st34" points="237.1 129.5 206.7 130.4 205.9 130.4 236.3 129.5 237.1 129.5"/>
        <polygon class="st150" points="238 129.5 207.5 130.4 206.7 130.4 237.1 129.5 238 129.5"/>
        <polygon class="st84" points="238.8 129.5 208.4 130.4 207.5 130.4 238 129.5 238.8 129.5"/>
        <polygon class="st316" points="239.6 129.5 209.2 130.4 208.4 130.4 238.8 129.5 239.6 129.5"/>
        <polygon class="st232" points="240.4 129.5 210 130.4 209.2 130.4 239.6 129.5 240.4 129.5"/>
        <polygon class="st82" points="241.2 129.5 210.8 130.4 210 130.4 240.4 129.5 241.2 129.5"/>
        <polygon class="st253" points="242 129.5 211.6 130.4 210.8 130.4 241.2 129.5 242 129.5"/>
        <polygon class="st356" points="242.8 129.5 212.4 130.4 211.6 130.4 242 129.5 242.8 129.5"/>
        <polygon class="st377" points="243.6 129.5 213.2 130.4 212.4 130.4 242.8 129.5 243.6 129.5"/>
        <polygon class="st22" points="244.4 129.5 214 130.4 213.2 130.4 243.6 129.5 244.4 129.5"/>
        <polygon class="st115" points="245.2 129.5 214.8 130.4 214 130.4 244.4 129.5 245.2 129.5"/>
        <polygon class="st317" points="246.1 129.5 215.7 130.4 214.8 130.4 245.2 129.5 246.1 129.5"/>
        <polygon class="st63" points="246.9 129.5 216.5 130.4 215.7 130.4 246.1 129.5 246.9 129.5"/>
        <polygon class="st140" points="247.7 129.5 217.3 130.4 216.5 130.4 246.9 129.5 247.7 129.5"/>
        <polygon class="st203" points="248.5 129.5 218.1 130.4 217.3 130.4 247.7 129.5 248.5 129.5"/>
        <polygon class="st196" points="249.3 129.5 218.9 130.4 218.1 130.4 248.5 129.5 249.3 129.5"/>
        <polygon class="st21" points="250.1 129.5 219.7 130.4 218.9 130.4 249.3 129.5 250.1 129.5"/>
        <polygon class="st277" points="250.8 129.5 220.5 130.4 219.7 130.4 250.1 129.5 250.8 129.5 250.8 129.5"/>
        <polygon class="st332" points="250.8 129.5 221.3 130.4 220.5 130.4 250.8 129.5 250.8 129.5"/>
        <polygon class="st285" points="250.8 129.6 222.1 130.4 221.3 130.4 250.8 129.5 250.8 129.6"/>
        <polygon class="st58" points="250.8 129.6 223 130.4 222.1 130.4 250.8 129.6 250.8 129.6"/>
        <polygon class="st309" points="250.8 129.6 223.8 130.4 223 130.4 250.8 129.6 250.8 129.6"/>
        <polygon class="st323" points="250.8 129.6 224.6 130.4 223.8 130.4 250.8 129.6 250.8 129.6"/>
        <polygon class="st166" points="250.8 129.7 225.4 130.4 224.6 130.4 250.8 129.6 250.8 129.7"/>
        <polygon class="st55" points="250.8 129.7 226.2 130.4 225.4 130.4 250.8 129.7 250.8 129.7"/>
        <polygon class="st83" points="250.8 129.7 227 130.4 226.2 130.4 250.8 129.7 250.8 129.7"/>
        <polygon class="st385" points="250.8 129.7 227.8 130.4 227 130.4 250.8 129.7 250.8 129.7"/>
        <polygon class="st401" points="250.8 129.8 228.6 130.4 227.8 130.4 250.8 129.7 250.8 129.8"/>
        <polygon class="st371" points="250.8 129.8 229.4 130.4 228.6 130.4 250.8 129.8 250.8 129.8"/>
        <polygon class="st305" points="250.8 129.8 230.2 130.4 229.4 130.4 250.8 129.8 250.8 129.8"/>
        <polygon class="st255" points="250.8 129.8 231.1 130.4 230.2 130.4 250.8 129.8 250.8 129.8"/>
        <polygon class="st395" points="250.8 129.9 231.9 130.4 231.1 130.4 250.8 129.8 250.8 129.9"/>
        <polygon class="st0" points="250.8 129.9 232.7 130.4 231.9 130.4 250.8 129.9 250.8 129.9"/>
        <polygon class="st315" points="250.8 129.9 233.5 130.4 232.7 130.4 250.8 129.9 250.8 129.9"/>
        <polygon class="st146" points="250.8 129.9 234.3 130.4 233.5 130.4 250.8 129.9 250.8 129.9"/>
        <polygon class="st173" points="250.8 130 235.1 130.4 234.3 130.4 250.8 129.9 250.8 130"/>
        <polygon class="st77" points="250.8 130 235.9 130.4 235.1 130.4 250.8 130 250.8 130"/>
        <polygon class="st77" points="235.9 130.4 250.8 130 250.8 130.4 235.9 130.4"/>
      </g>
    </g>
  </g>
</svg>