<svg xmlns="http://www.w3.org/2000/svg" viewBox="0 0 520 200">
  <defs>
    <clipPath id="clippath">
      <path class="st139" d="M32.2,55.4c-.9,0-1.8-.3-2.6-.8-1.2-.8-1.8-1.9-1.8-3.3,0-1.2.3-2.4.6-3.2,0-.2.1-.4.2-.6.4-1.5-.5-2.1-.5-2.1-.4-.2-1.5-.6-1.9-.3-.2.2-.3.8,0,1.6.7,2.5-.6,3.5-1.4,3.8-.8.4-1.8.3-2.6-.2-1.1-.7-1.4-2-.8-3.5,0-.2.1-.4.1-.6h0c0-.3-.2-.5-.5-.5h-10.9c1.2,11,10.5,19.6,21.8,19.6s20.9-8.8,21.8-20h-10.9c-.2,0-.4,0-.6.2-.1.1-.2.3,0,.7.2.3.4.7.5,1,.3.8.2,1.7-.3,2.4-.6.8-1.5,1.2-2.7,1-.7-.1-1.4-.5-1.8-1.1-.4-.5-.7-1.4-.2-2.5,0,0,0-.1,0-.2.2-.5,0-1-.3-1.3-.3-.3-.8-.4-1.2-.2-1.1.6-.7,2.4-.6,2.5,1.3,4,0,5.8-1.2,6.7-.7.5-1.5.7-2.4.7" style="clip-rule: evenodd; fill: none;"></path>
    </clipPath>
    <clipPath id="clippath-1">
      <rect class="st138" x="10.1" y="44.8" width="43.7" height="20.5" style="fill: none;"></rect>
    </clipPath>
    <clipPath id="clippath-2">
      <rect class="st138" x="65.5" y="46.9" width="185.4" height=".9" style="fill: none;"></rect>
    </clipPath>
    <clipPath id="clippath-3">
      <rect class="st138" x="65.5" y="46.9" width="185.4" height=".9" style="fill: none;"></rect>
    </clipPath>
  </defs>
  <g id="fundo" class="st284" style="display: none; perspective-origin: 50% 50%;" transform="matrix(1.846213, 0, 0, 1.895376, 14.571779, 9.694738)">
    <rect class="st221" y="-82.5" width="259.2" height="259.2" style="fill: rgb(227, 216, 206); perspective-origin: 50% 50%;"></rect>
  </g>
  <g id="Camada_1" transform="matrix(1.888992, 0, 0, 1.895376, 16.143763, 18.375174)" style="">
    <g class="st369" style="clip-path: url(#clippath);">
      <g class="st174" style="clip-path: url(#clippath-1);">
        <polygon class="st113" points="15.5 44.8 10.1 54.3 10.1 44.8 15.5 44.8" style="fill: rgb(134, 97, 43);"></polygon>
        <polygon class="st113" points="15.7 44.8 10.1 54.7 10.1 54.3 15.5 44.8 15.7 44.8" style="fill: rgb(134, 97, 43);"></polygon>
        <polygon class="st391" points="15.9 44.8 10.1 55.1 10.1 54.7 15.7 44.8 15.9 44.8" style="fill: rgb(135, 98, 43);"></polygon>
        <polygon class="st202" points="16.1 44.8 10.1 55.5 10.1 55.1 15.9 44.8 16.1 44.8" style="fill: rgb(136, 99, 44);"></polygon>
        <polygon class="st286" points="16.4 44.8 10.1 55.9 10.1 55.5 16.1 44.8 16.4 44.8" style="fill: rgb(137, 100, 44);"></polygon>
        <polygon class="st137" points="16.6 44.8 10.1 56.3 10.1 55.9 16.4 44.8 16.6 44.8" style="fill: rgb(137, 101, 45);"></polygon>
        <polygon class="st330" points="16.8 44.8 10.1 56.7 10.1 56.3 16.6 44.8 16.8 44.8" style="fill: rgb(138, 101, 45);"></polygon>
        <polygon class="st354" points="17 44.8 10.1 57.1 10.1 56.7 16.8 44.8 17 44.8" style="fill: rgb(139, 102, 46);"></polygon>
        <polygon class="st234" points="17.3 44.8 10.1 57.5 10.1 57.1 17 44.8 17.3 44.8" style="fill: rgb(140, 103, 47);"></polygon>
        <polygon class="st396" points="17.5 44.8 10.1 57.9 10.1 57.5 17.3 44.8 17.5 44.8" style="fill: rgb(140, 104, 47);"></polygon>
        <polygon class="st25" points="17.7 44.8 10.1 58.3 10.1 57.9 17.5 44.8 17.7 44.8" style="fill: rgb(141, 105, 48);"></polygon>
        <polygon class="st254" points="17.9 44.8 10.1 58.6 10.1 58.3 17.7 44.8 17.9 44.8" style="fill: rgb(142, 105, 48);"></polygon>
        <polygon class="st231" points="18.1 44.8 10.1 59 10.1 58.6 17.9 44.8 18.1 44.8" style="fill: rgb(143, 106, 49);"></polygon>
        <polygon class="st324" points="18.4 44.8 10.1 59.4 10.1 59 18.1 44.8 18.4 44.8" style="fill: rgb(143, 107, 50);"></polygon>
        <polygon class="st193" points="18.6 44.8 10.1 59.8 10.1 59.4 18.4 44.8 18.6 44.8" style="fill: rgb(144, 108, 50);"></polygon>
        <polygon class="st152" points="18.8 44.8 10.1 60.2 10.1 59.8 18.6 44.8 18.8 44.8" style="fill: rgb(145, 109, 51);"></polygon>
        <polygon class="st271" points="19 44.8 10.1 60.6 10.1 60.2 18.8 44.8 19 44.8" style="fill: rgb(146, 110, 51);"></polygon>
        <polygon class="st341" points="19.3 44.8 10.1 61 10.1 60.6 19 44.8 19.3 44.8" style="fill: rgb(147, 111, 52);"></polygon>
        <polygon class="st374" points="19.5 44.8 10.1 61.4 10.1 61 19.3 44.8 19.5 44.8" style="fill: rgb(147, 111, 53);"></polygon>
        <polygon class="st381" points="19.7 44.8 10.1 61.8 10.1 61.4 19.5 44.8 19.7 44.8" style="fill: rgb(148, 112, 53);"></polygon>
        <polygon class="st46" points="19.9 44.8 10.1 62.2 10.1 61.8 19.7 44.8 19.9 44.8" style="fill: rgb(149, 113, 54);"></polygon>
        <polygon class="st121" points="20.1 44.8 10.1 62.6 10.1 62.2 19.9 44.8 20.1 44.8" style="fill: rgb(150, 114, 54);"></polygon>
        <polygon class="st244" points="20.4 44.8 10.1 63 10.1 62.6 20.1 44.8 20.4 44.8" style="fill: rgb(151, 115, 55);"></polygon>
        <polygon class="st126" points="20.6 44.8 10.1 63.4 10.1 63 20.4 44.8 20.6 44.8" style="fill: rgb(151, 116, 56);"></polygon>
        <polygon class="st108" points="20.8 44.8 10.1 63.8 10.1 63.4 20.6 44.8 20.8 44.8" style="fill: rgb(152, 117, 56);"></polygon>
        <polygon class="st42" points="21 44.8 10.1 64.2 10.1 63.8 20.8 44.8 21 44.8" style="fill: rgb(153, 118, 57);"></polygon>
        <polygon class="st156" points="21.3 44.8 10.1 64.6 10.1 64.2 21 44.8 21.3 44.8" style="fill: rgb(154, 119, 58);"></polygon>
        <polygon class="st273" points="21.5 44.8 10.1 65 10.1 64.6 21.3 44.8 21.5 44.8" style="fill: rgb(155, 119, 58);"></polygon>
        <polygon class="st397" points="21.7 44.8 10.1 65.3 10.1 65.3 10.1 65 21.5 44.8 21.7 44.8" style="fill: rgb(155, 120, 59);"></polygon>
        <polygon class="st120" points="21.9 44.8 10.3 65.3 10.1 65.3 21.7 44.8 21.9 44.8" style="fill: rgb(156, 121, 60);"></polygon>
        <polygon class="st57" points="22.2 44.8 10.6 65.3 10.3 65.3 21.9 44.8 22.2 44.8" style="fill: rgb(157, 122, 60);"></polygon>
        <polygon class="st182" points="22.4 44.8 10.8 65.3 10.6 65.3 22.2 44.8 22.4 44.8" style="fill: rgb(158, 123, 61);"></polygon>
        <polygon class="st160" points="22.6 44.8 11 65.3 10.8 65.3 22.4 44.8 22.6 44.8" style="fill: rgb(159, 124, 62);"></polygon>
        <polygon class="st348" points="22.8 44.8 11.2 65.3 11 65.3 22.6 44.8 22.8 44.8" style="fill: rgb(160, 125, 63);"></polygon>
        <polygon class="st3" points="23 44.8 11.5 65.3 11.2 65.3 22.8 44.8 23 44.8" style="fill: rgb(160, 126, 63);"></polygon>
        <polygon class="st184" points="23.3 44.8 11.7 65.3 11.5 65.3 23 44.8 23.3 44.8" style="fill: rgb(161, 127, 64);"></polygon>
        <polygon class="st236" points="23.5 44.8 11.9 65.3 11.7 65.3 23.3 44.8 23.5 44.8" style="fill: rgb(162, 128, 65);"></polygon>
        <polygon class="st224" points="23.7 44.8 12.1 65.3 11.9 65.3 23.5 44.8 23.7 44.8" style="fill: rgb(163, 129, 66);"></polygon>
        <polygon class="st298" points="23.9 44.8 12.4 65.3 12.1 65.3 23.7 44.8 23.9 44.8" style="fill: rgb(164, 130, 66);"></polygon>
        <polygon class="st329" points="24.2 44.8 12.6 65.3 12.4 65.3 23.9 44.8 24.2 44.8" style="fill: rgb(165, 131, 67);"></polygon>
        <polygon class="st14" points="24.4 44.8 12.8 65.3 12.6 65.3 24.2 44.8 24.4 44.8" style="fill: rgb(165, 132, 68);"></polygon>
        <polygon class="st263" points="24.6 44.8 13 65.3 12.8 65.3 24.4 44.8 24.6 44.8" style="fill: rgb(166, 133, 69);"></polygon>
        <polygon class="st4" points="24.8 44.8 13.2 65.3 13 65.3 24.6 44.8 24.8 44.8" style="fill: rgb(167, 134, 69);"></polygon>
        <polygon class="st272" points="25.1 44.8 13.5 65.3 13.2 65.3 24.8 44.8 25.1 44.8" style="fill: rgb(168, 135, 70);"></polygon>
        <polygon class="st261" points="25.3 44.8 13.7 65.3 13.5 65.3 25.1 44.8 25.3 44.8" style="fill: rgb(169, 136, 71);"></polygon>
        <polygon class="st392" points="25.5 44.8 13.9 65.3 13.7 65.3 25.3 44.8 25.5 44.8" style="fill: rgb(170, 137, 72);"></polygon>
        <polygon class="st267" points="25.7 44.8 14.1 65.3 13.9 65.3 25.5 44.8 25.7 44.8" style="fill: rgb(170, 138, 72);"></polygon>
        <polygon class="st209" points="25.9 44.8 14.4 65.3 14.1 65.3 25.7 44.8 25.9 44.8" style="fill: rgb(171, 139, 73);"></polygon>
        <polygon class="st360" points="26.2 44.8 14.6 65.3 14.4 65.3 25.9 44.8 26.2 44.8" style="fill: rgb(172, 140, 74);"></polygon>
        <polygon class="st86" points="26.4 44.8 14.8 65.3 14.6 65.3 26.2 44.8 26.4 44.8" style="fill: rgb(173, 141, 75);"></polygon>
        <polygon class="st291" points="26.6 44.8 15 65.3 14.8 65.3 26.4 44.8 26.6 44.8" style="fill: rgb(174, 142, 76);"></polygon>
        <polygon class="st256" points="26.8 44.8 15.2 65.3 15 65.3 26.6 44.8 26.8 44.8" style="fill: rgb(175, 143, 77);"></polygon>
        <polygon class="st403" points="27.1 44.8 15.5 65.3 15.2 65.3 26.8 44.8 27.1 44.8" style="fill: rgb(176, 144, 77);"></polygon>
        <polygon class="st191" points="27.3 44.8 15.7 65.3 15.5 65.3 27.1 44.8 27.3 44.8" style="fill: rgb(177, 145, 78);"></polygon>
        <polygon class="st172" points="27.5 44.8 15.9 65.3 15.7 65.3 27.3 44.8 27.5 44.8" style="fill: rgb(177, 146, 79);"></polygon>
        <polygon class="st62" points="27.7 44.8 16.1 65.3 15.9 65.3 27.5 44.8 27.7 44.8" style="fill: rgb(178, 147, 80);"></polygon>
        <polygon class="st188" points="27.9 44.8 16.4 65.3 16.1 65.3 27.7 44.8 27.9 44.8" style="fill: rgb(179, 148, 81);"></polygon>
        <polygon class="st123" points="28.2 44.8 16.6 65.3 16.4 65.3 27.9 44.8 28.2 44.8" style="fill: rgb(180, 149, 82);"></polygon>
        <polygon class="st304" points="28.4 44.8 16.8 65.3 16.6 65.3 28.2 44.8 28.4 44.8" style="fill: rgb(181, 150, 82);"></polygon>
        <polygon class="st65" points="28.6 44.8 17 65.3 16.8 65.3 28.4 44.8 28.6 44.8" style="fill: rgb(182, 151, 83);"></polygon>
        <polygon class="st9" points="28.8 44.8 17.3 65.3 17 65.3 28.6 44.8 28.8 44.8" style="fill: rgb(183, 152, 84);"></polygon>
        <polygon class="st319" points="29.1 44.8 17.5 65.3 17.3 65.3 28.8 44.8 29.1 44.8" style="fill: rgb(184, 154, 85);"></polygon>
        <polygon class="st201" points="29.3 44.8 17.7 65.3 17.5 65.3 29.1 44.8 29.3 44.8" style="fill: rgb(185, 155, 86);"></polygon>
        <polygon class="st192" points="29.5 44.8 17.9 65.3 17.7 65.3 29.3 44.8 29.5 44.8" style="fill: rgb(186, 156, 87);"></polygon>
        <polygon class="st276" points="29.7 44.8 18.1 65.3 17.9 65.3 29.5 44.8 29.7 44.8" style="fill: rgb(187, 157, 88);"></polygon>
        <polygon class="st43" points="30 44.8 18.4 65.3 18.1 65.3 29.7 44.8 30 44.8" style="fill: rgb(188, 158, 89);"></polygon>
        <polygon class="st52" points="30.2 44.8 18.6 65.3 18.4 65.3 30 44.8 30.2 44.8" style="fill: rgb(188, 159, 90);"></polygon>
        <polygon class="st118" points="30.4 44.8 18.8 65.3 18.6 65.3 30.2 44.8 30.4 44.8" style="fill: rgb(189, 160, 90);"></polygon>
        <polygon class="st60" points="30.6 44.8 19 65.3 18.8 65.3 30.4 44.8 30.6 44.8" style="fill: rgb(190, 161, 91);"></polygon>
        <polygon class="st74" points="30.8 44.8 19.3 65.3 19 65.3 30.6 44.8 30.8 44.8" style="fill: rgb(191, 162, 92);"></polygon>
        <polygon class="st268" points="31.1 44.8 19.5 65.3 19.3 65.3 30.8 44.8 31.1 44.8" style="fill: rgb(192, 164, 93);"></polygon>
        <polygon class="st338" points="31.3 44.8 19.7 65.3 19.5 65.3 31.1 44.8 31.3 44.8" style="fill: rgb(193, 165, 94);"></polygon>
        <polygon class="st404" points="31.5 44.8 19.9 65.3 19.7 65.3 31.3 44.8 31.5 44.8" style="fill: rgb(194, 166, 95);"></polygon>
        <polygon class="st114" points="31.7 44.8 20.2 65.3 19.9 65.3 31.5 44.8 31.7 44.8" style="fill: rgb(195, 167, 96);"></polygon>
        <polygon class="st361" points="32 44.8 20.4 65.3 20.2 65.3 31.7 44.8 32 44.8" style="fill: rgb(196, 168, 97);"></polygon>
        <polygon class="st94" points="32.2 44.8 20.6 65.3 20.4 65.3 32 44.8 32.2 44.8" style="fill: rgb(197, 169, 98);"></polygon>
        <polygon class="st170" points="32.4 44.8 20.8 65.3 20.6 65.3 32.2 44.8 32.4 44.8" style="fill: rgb(198, 170, 99);"></polygon>
        <polygon class="st35" points="32.6 44.8 21 65.3 20.8 65.3 32.4 44.8 32.6 44.8" style="fill: rgb(199, 172, 100);"></polygon>
        <polygon class="st367" points="32.9 44.8 21.3 65.3 21 65.3 32.6 44.8 32.9 44.8" style="fill: rgb(200, 173, 101);"></polygon>
        <polygon class="st132" points="33.1 44.8 21.5 65.3 21.3 65.3 32.9 44.8 33.1 44.8" style="fill: rgb(201, 174, 102);"></polygon>
        <polygon class="st28" points="33.3 44.8 21.7 65.3 21.5 65.3 33.1 44.8 33.3 44.8" style="fill: rgb(202, 175, 102);"></polygon>
        <polygon class="st44" points="33.5 44.8 21.9 65.3 21.7 65.3 33.3 44.8 33.5 44.8" style="fill: rgb(203, 176, 103);"></polygon>
        <polygon class="st68" points="33.7 44.8 22.2 65.3 21.9 65.3 33.5 44.8 33.7 44.8" style="fill: rgb(204, 177, 104);"></polygon>
        <polygon class="st75" points="34 44.8 22.4 65.3 22.2 65.3 33.7 44.8 34 44.8" style="fill: rgb(205, 179, 105);"></polygon>
        <polygon class="st247" points="34.2 44.8 22.6 65.3 22.4 65.3 34 44.8 34.2 44.8" style="fill: rgb(206, 180, 106);"></polygon>
        <polygon class="st373" points="34.4 44.8 22.8 65.3 22.6 65.3 34.2 44.8 34.4 44.8" style="fill: rgb(207, 181, 107);"></polygon>
        <polygon class="st220" points="34.6 44.8 23 65.3 22.8 65.3 34.4 44.8 34.6 44.8" style="fill: rgb(208, 182, 108);"></polygon>
        <polygon class="st162" points="34.9 44.8 23.3 65.3 23 65.3 34.6 44.8 34.9 44.8" style="fill: rgb(209, 184, 109);"></polygon>
        <polygon class="st112" points="35.1 44.8 23.5 65.3 23.3 65.3 34.9 44.8 35.1 44.8" style="fill: rgb(210, 185, 110);"></polygon>
        <polygon class="st197" points="35.3 44.8 23.7 65.3 23.5 65.3 35.1 44.8 35.3 44.8" style="fill: rgb(211, 186, 111);"></polygon>
        <polygon class="st258" points="35.5 44.8 23.9 65.3 23.7 65.3 35.3 44.8 35.5 44.8" style="fill: rgb(212, 188, 112);"></polygon>
        <polygon class="st185" points="35.7 44.8 24.2 65.3 23.9 65.3 35.5 44.8 35.7 44.8" style="fill: rgb(213, 189, 113);"></polygon>
        <polygon class="st194" points="36 44.8 24.4 65.3 24.2 65.3 35.7 44.8 36 44.8" style="fill: rgb(215, 190, 114);"></polygon>
        <polygon class="st351" points="36.2 44.8 24.6 65.3 24.4 65.3 36 44.8 36.2 44.8" style="fill: rgb(216, 192, 115);"></polygon>
        <polygon class="st223" points="36.4 44.8 24.8 65.3 24.6 65.3 36.2 44.8 36.4 44.8" style="fill: rgb(217, 193, 116);"></polygon>
        <polygon class="st32" points="36.6 44.8 25.1 65.3 24.8 65.3 36.4 44.8 36.6 44.8" style="fill: rgb(219, 195, 118);"></polygon>
        <polygon class="st335" points="36.9 44.8 25.3 65.3 25.1 65.3 36.6 44.8 36.9 44.8" style="fill: rgb(220, 196, 119);"></polygon>
        <polygon class="st171" points="37.1 44.8 25.5 65.3 25.3 65.3 36.9 44.8 37.1 44.8" style="fill: rgb(222, 198, 120);"></polygon>
        <polygon class="st171" points="37.3 44.8 25.7 65.3 25.5 65.3 37.1 44.8 37.3 44.8" style="fill: rgb(222, 198, 120);"></polygon>
        <polygon class="st335" points="37.5 44.8 25.9 65.3 25.7 65.3 37.3 44.8 37.5 44.8" style="fill: rgb(220, 196, 119);"></polygon>
        <polygon class="st274" points="37.7 44.8 26.1 65.3 25.9 65.3 37.5 44.8 37.7 44.8" style="fill: rgb(219, 195, 117);"></polygon>
        <polygon class="st223" points="38 44.8 26.4 65.3 26.1 65.3 37.7 44.8 38 44.8" style="fill: rgb(217, 193, 116);"></polygon>
        <polygon class="st351" points="38.2 44.8 26.6 65.3 26.4 65.3 38 44.8 38.2 44.8" style="fill: rgb(216, 192, 115);"></polygon>
        <polygon class="st376" points="38.4 44.8 26.8 65.3 26.6 65.3 38.2 44.8 38.4 44.8" style="fill: rgb(214, 190, 114);"></polygon>
        <polygon class="st185" points="38.6 44.8 27 65.3 26.8 65.3 38.4 44.8 38.6 44.8" style="fill: rgb(213, 189, 113);"></polygon>
        <polygon class="st308" points="38.8 44.8 27.2 65.3 27 65.3 38.6 44.8 38.8 44.8" style="fill: rgb(212, 187, 112);"></polygon>
        <polygon class="st197" points="39 44.8 27.4 65.3 27.2 65.3 38.8 44.8 39 44.8" style="fill: rgb(211, 186, 111);"></polygon>
        <polygon class="st112" points="39.3 44.8 27.7 65.3 27.4 65.3 39 44.8 39.3 44.8" style="fill: rgb(210, 185, 110);"></polygon>
        <polygon class="st143" points="39.5 44.8 27.9 65.3 27.7 65.3 39.3 44.8 39.5 44.8" style="fill: rgb(209, 183, 109);"></polygon>
        <polygon class="st220" points="39.7 44.8 28.1 65.3 27.9 65.3 39.5 44.8 39.7 44.8" style="fill: rgb(208, 182, 108);"></polygon>
        <polygon class="st373" points="39.9 44.8 28.3 65.3 28.1 65.3 39.7 44.8 39.9 44.8" style="fill: rgb(207, 181, 107);"></polygon>
        <polygon class="st247" points="40.1 44.8 28.5 65.3 28.3 65.3 39.9 44.8 40.1 44.8" style="fill: rgb(206, 180, 106);"></polygon>
        <polygon class="st15" points="40.3 44.8 28.7 65.3 28.5 65.3 40.1 44.8 40.3 44.8" style="fill: rgb(205, 178, 105);"></polygon>
        <polygon class="st68" points="40.5 44.8 29 65.3 28.7 65.3 40.3 44.8 40.5 44.8" style="fill: rgb(204, 177, 104);"></polygon>
        <polygon class="st44" points="40.8 44.8 29.2 65.3 29 65.3 40.5 44.8 40.8 44.8" style="fill: rgb(203, 176, 103);"></polygon>
        <polygon class="st28" points="41 44.8 29.4 65.3 29.2 65.3 40.8 44.8 41 44.8" style="fill: rgb(202, 175, 102);"></polygon>
        <polygon class="st48" points="41.2 44.8 29.6 65.3 29.4 65.3 41 44.8 41.2 44.8" style="fill: rgb(201, 174, 101);"></polygon>
        <polygon class="st306" points="41.4 44.8 29.8 65.3 29.6 65.3 41.2 44.8 41.4 44.8" style="fill: rgb(200, 172, 100);"></polygon>
        <polygon class="st325" points="41.6 44.8 30 65.3 29.8 65.3 41.4 44.8 41.6 44.8" style="fill: rgb(199, 171, 99);"></polygon>
        <polygon class="st239" points="41.8 44.8 30.3 65.3 30 65.3 41.6 44.8 41.8 44.8" style="fill: rgb(198, 170, 98);"></polygon>
        <polygon class="st6" points="42.1 44.8 30.5 65.3 30.3 65.3 41.8 44.8 42.1 44.8" style="fill: rgb(197, 169, 97);"></polygon>
        <polygon class="st92" points="42.3 44.8 30.7 65.3 30.5 65.3 42.1 44.8 42.3 44.8" style="fill: rgb(196, 168, 96);"></polygon>
        <polygon class="st382" points="42.5 44.8 30.9 65.3 30.7 65.3 42.3 44.8 42.5 44.8" style="fill: rgb(195, 167, 95);"></polygon>
        <polygon class="st380" points="42.7 44.8 31.1 65.3 30.9 65.3 42.5 44.8 42.7 44.8" style="fill: rgb(194, 165, 94);"></polygon>
        <polygon class="st362" points="42.9 44.8 31.3 65.3 31.1 65.3 42.7 44.8 42.9 44.8" style="fill: rgb(193, 164, 93);"></polygon>
        <polygon class="st322" points="43.1 44.8 31.6 65.3 31.3 65.3 42.9 44.8 43.1 44.8" style="fill: rgb(192, 163, 92);"></polygon>
        <polygon class="st178" points="43.4 44.8 31.8 65.3 31.6 65.3 43.1 44.8 43.4 44.8" style="fill: rgb(191, 162, 91);"></polygon>
        <polygon class="st165" points="43.6 44.8 32 65.3 31.8 65.3 43.4 44.8 43.6 44.8" style="fill: rgb(190, 161, 90);"></polygon>
        <polygon class="st301" points="43.8 44.8 32.2 65.3 32 65.3 43.6 44.8 43.8 44.8" style="fill: rgb(190, 160, 89);"></polygon>
        <polygon class="st195" points="44 44.8 32.4 65.3 32.2 65.3 43.8 44.8 44 44.8" style="fill: rgb(189, 159, 88);"></polygon>
        <polygon class="st372" points="44.2 44.8 32.6 65.3 32.4 65.3 44 44.8 44.2 44.8" style="fill: rgb(188, 158, 87);"></polygon>
        <polygon class="st175" points="44.4 44.8 32.9 65.3 32.6 65.3 44.2 44.8 44.4 44.8" style="fill: rgb(187, 156, 86);"></polygon>
        <polygon class="st23" points="44.7 44.8 33.1 65.3 32.9 65.3 44.4 44.8 44.7 44.8" style="fill: rgb(186, 155, 85);"></polygon>
        <polygon class="st95" points="44.9 44.8 33.3 65.3 33.1 65.3 44.7 44.8 44.9 44.8" style="fill: rgb(185, 154, 84);"></polygon>
        <polygon class="st154" points="45.1 44.8 33.5 65.3 33.3 65.3 44.9 44.8 45.1 44.8" style="fill: rgb(184, 153, 83);"></polygon>
        <polygon class="st297" points="45.3 44.8 33.7 65.3 33.5 65.3 45.1 44.8 45.3 44.8" style="fill: rgb(183, 152, 82);"></polygon>
        <polygon class="st345" points="45.5 44.8 33.9 65.3 33.7 65.3 45.3 44.8 45.5 44.8" style="fill: rgb(182, 151, 81);"></polygon>
        <polygon class="st179" points="45.7 44.8 34.2 65.3 33.9 65.3 45.5 44.8 45.7 44.8" style="fill: rgb(181, 150, 80);"></polygon>
        <polygon class="st213" points="46 44.8 34.4 65.3 34.2 65.3 45.7 44.8 46 44.8" style="fill: rgb(180, 149, 79);"></polygon>
        <polygon class="st355" points="46.2 44.8 34.6 65.3 34.4 65.3 46 44.8 46.2 44.8" style="fill: rgb(179, 148, 79);"></polygon>
        <polygon class="st400" points="46.4 44.8 34.8 65.3 34.6 65.3 46.2 44.8 46.4 44.8" style="fill: rgb(179, 147, 78);"></polygon>
        <polygon class="st40" points="46.6 44.8 35 65.3 34.8 65.3 46.4 44.8 46.6 44.8" style="fill: rgb(178, 146, 77);"></polygon>
        <polygon class="st312" points="46.8 44.8 35.2 65.3 35 65.3 46.6 44.8 46.8 44.8" style="fill: rgb(177, 144, 76);"></polygon>
        <polygon class="st176" points="47 44.8 35.5 65.3 35.2 65.3 46.8 44.8 47 44.8" style="fill: rgb(176, 143, 75);"></polygon>
        <polygon class="st119" points="47.3 44.8 35.7 65.3 35.5 65.3 47 44.8 47.3 44.8" style="fill: rgb(175, 142, 74);"></polygon>
        <polygon class="st342" points="47.5 44.8 35.9 65.3 35.7 65.3 47.3 44.8 47.5 44.8" style="fill: rgb(174, 141, 73);"></polygon>
        <polygon class="st26" points="47.7 44.8 36.1 65.3 35.9 65.3 47.5 44.8 47.7 44.8" style="fill: rgb(173, 140, 72);"></polygon>
        <polygon class="st27" points="47.9 44.8 36.3 65.3 36.1 65.3 47.7 44.8 47.9 44.8" style="fill: rgb(172, 139, 72);"></polygon>
        <polygon class="st321" points="48.1 44.8 36.5 65.3 36.3 65.3 47.9 44.8 48.1 44.8" style="fill: rgb(171, 138, 71);"></polygon>
        <polygon class="st190" points="48.3 44.8 36.7 65.3 36.5 65.3 48.1 44.8 48.3 44.8" style="fill: rgb(171, 137, 70);"></polygon>
        <polygon class="st80" points="48.6 44.8 37 65.3 36.7 65.3 48.3 44.8 48.6 44.8" style="fill: rgb(170, 136, 69);"></polygon>
        <polygon class="st111" points="48.8 44.8 37.2 65.3 37 65.3 48.6 44.8 48.8 44.8" style="fill: rgb(169, 135, 68);"></polygon>
        <polygon class="st69" points="49 44.8 37.4 65.3 37.2 65.3 48.8 44.8 49 44.8" style="fill: rgb(168, 134, 67);"></polygon>
        <polygon class="st241" points="49.2 44.8 37.6 65.3 37.4 65.3 49 44.8 49.2 44.8" style="fill: rgb(167, 133, 67);"></polygon>
        <polygon class="st207" points="49.4 44.8 37.8 65.3 37.6 65.3 49.2 44.8 49.4 44.8" style="fill: rgb(166, 132, 66);"></polygon>
        <polygon class="st76" points="49.6 44.8 38 65.3 37.8 65.3 49.4 44.8 49.6 44.8" style="fill: rgb(166, 131, 65);"></polygon>
        <polygon class="st406" points="49.9 44.8 38.3 65.3 38 65.3 49.6 44.8 49.9 44.8" style="fill: rgb(165, 130, 64);"></polygon>
        <polygon class="st64" points="50.1 44.8 38.5 65.3 38.3 65.3 49.9 44.8 50.1 44.8" style="fill: rgb(164, 129, 63);"></polygon>
        <polygon class="st222" points="50.3 44.8 38.7 65.3 38.5 65.3 50.1 44.8 50.3 44.8" style="fill: rgb(163, 128, 63);"></polygon>
        <polygon class="st389" points="50.5 44.8 38.9 65.3 38.7 65.3 50.3 44.8 50.5 44.8" style="fill: rgb(162, 127, 62);"></polygon>
        <polygon class="st61" points="50.7 44.8 39.1 65.3 38.9 65.3 50.5 44.8 50.7 44.8" style="fill: rgb(161, 126, 61);"></polygon>
        <polygon class="st227" points="50.9 44.8 39.3 65.3 39.1 65.3 50.7 44.8 50.9 44.8" style="fill: rgb(161, 125, 60);"></polygon>
        <polygon class="st363" points="51.1 44.8 39.6 65.3 39.3 65.3 50.9 44.8 51.1 44.8" style="fill: rgb(160, 124, 59);"></polygon>
        <polygon class="st262" points="51.4 44.8 39.8 65.3 39.6 65.3 51.1 44.8 51.4 44.8" style="fill: rgb(159, 123, 59);"></polygon>
        <polygon class="st283" points="51.6 44.8 40 65.3 39.8 65.3 51.4 44.8 51.6 44.8" style="fill: rgb(158, 122, 58);"></polygon>
        <polygon class="st215" points="51.8 44.8 40.2 65.3 40 65.3 51.6 44.8 51.8 44.8" style="fill: rgb(157, 122, 57);"></polygon>
        <polygon class="st218" points="52 44.8 40.4 65.3 40.2 65.3 51.8 44.8 52 44.8" style="fill: rgb(156, 121, 57);"></polygon>
        <polygon class="st344" points="52.2 44.8 40.6 65.3 40.4 65.3 52 44.8 52.2 44.8" style="fill: rgb(156, 120, 56);"></polygon>
        <polygon class="st2" points="52.4 44.8 40.9 65.3 40.6 65.3 52.2 44.8 52.4 44.8" style="fill: rgb(155, 119, 55);"></polygon>
        <polygon class="st292" points="52.7 44.8 41.1 65.3 40.9 65.3 52.4 44.8 52.7 44.8" style="fill: rgb(154, 118, 54);"></polygon>
        <polygon class="st212" points="52.9 44.8 41.3 65.3 41.1 65.3 52.7 44.8 52.9 44.8" style="fill: rgb(153, 117, 54);"></polygon>
        <polygon class="st110" points="53.1 44.8 41.5 65.3 41.3 65.3 52.9 44.8 53.1 44.8" style="fill: rgb(152, 116, 53);"></polygon>
        <polygon class="st390" points="53.3 44.8 41.7 65.3 41.5 65.3 53.1 44.8 53.3 44.8" style="fill: rgb(152, 115, 52);"></polygon>
        <polygon class="st78" points="53.5 44.8 41.9 65.3 41.7 65.3 53.3 44.8 53.5 44.8" style="fill: rgb(151, 114, 52);"></polygon>
        <polygon class="st302" points="53.7 44.8 42.2 65.3 41.9 65.3 53.5 44.8 53.7 44.8" style="fill: rgb(150, 113, 51);"></polygon>
        <polygon class="st198" points="53.8 45.2 42.4 65.3 42.2 65.3 53.7 44.8 53.8 44.8 53.8 45.2" style="fill: rgb(149, 112, 50);"></polygon>
        <polygon class="st53" points="53.8 45.5 42.6 65.3 42.4 65.3 53.8 45.2 53.8 45.5" style="fill: rgb(148, 111, 50);"></polygon>
        <polygon class="st33" points="53.8 45.9 42.8 65.3 42.6 65.3 53.8 45.5 53.8 45.9" style="fill: rgb(148, 111, 49);"></polygon>
        <polygon class="st187" points="53.8 46.3 43 65.3 42.8 65.3 53.8 45.9 53.8 46.3" style="fill: rgb(147, 110, 49);"></polygon>
        <polygon class="st99" points="53.8 46.7 43.2 65.3 43 65.3 53.8 46.3 53.8 46.7" style="fill: rgb(146, 109, 48);"></polygon>
        <polygon class="st29" points="53.8 47.1 43.5 65.3 43.2 65.3 53.8 46.7 53.8 47.1" style="fill: rgb(145, 108, 47);"></polygon>
        <polygon class="st129" points="53.8 47.5 43.7 65.3 43.5 65.3 53.8 47.1 53.8 47.5" style="fill: rgb(144, 107, 47);"></polygon>
        <polygon class="st246" points="53.8 47.8 43.9 65.3 43.7 65.3 53.8 47.5 53.8 47.8" style="fill: rgb(144, 106, 46);"></polygon>
        <polygon class="st300" points="53.8 48.2 44.1 65.3 43.9 65.3 53.8 47.8 53.8 48.2" style="fill: rgb(143, 105, 45);"></polygon>
        <polygon class="st365" points="53.8 48.6 44.3 65.3 44.1 65.3 53.8 48.2 53.8 48.6" style="fill: rgb(142, 105, 45);"></polygon>
        <polygon class="st347" points="53.8 49 44.5 65.3 44.3 65.3 53.8 48.6 53.8 49" style="fill: rgb(141, 104, 44);"></polygon>
        <polygon class="st378" points="53.8 49.4 44.8 65.3 44.5 65.3 53.8 49 53.8 49.4" style="fill: rgb(141, 103, 44);"></polygon>
        <polygon class="st399" points="53.8 49.8 45 65.3 44.8 65.3 53.8 49.4 53.8 49.8" style="fill: rgb(140, 102, 43);"></polygon>
        <polygon class="st88" points="53.8 50.1 45.2 65.3 45 65.3 53.8 49.8 53.8 50.1" style="fill: rgb(139, 101, 42);"></polygon>
        <polygon class="st45" points="53.8 50.5 45.4 65.3 45.2 65.3 53.8 50.1 53.8 50.5" style="fill: rgb(138, 100, 42);"></polygon>
        <polygon class="st217" points="53.8 50.9 45.6 65.3 45.4 65.3 53.8 50.5 53.8 50.9" style="fill: rgb(137, 100, 41);"></polygon>
        <polygon class="st31" points="53.8 51.3 45.8 65.3 45.6 65.3 53.8 50.9 53.8 51.3" style="fill: rgb(137, 99, 41);"></polygon>
        <polygon class="st250" points="53.8 51.7 46.1 65.3 45.8 65.3 53.8 51.3 53.8 51.7" style="fill: rgb(136, 98, 40);"></polygon>
        <polygon class="st359" points="53.8 52.1 46.3 65.3 46.1 65.3 53.8 51.7 53.8 52.1" style="fill: rgb(135, 97, 40);"></polygon>
        <polygon class="st107" points="53.8 52.4 46.5 65.3 46.3 65.3 53.8 52.1 53.8 52.4" style="fill: rgb(134, 96, 39);"></polygon>
        <polygon class="st384" points="53.8 52.8 46.7 65.3 46.5 65.3 53.8 52.4 53.8 52.8" style="fill: rgb(134, 95, 39);"></polygon>
        <polygon class="st395" points="53.8 53.2 46.9 65.3 46.7 65.3 53.8 52.8 53.8 53.2" style="fill: rgb(133, 95, 38);"></polygon>
        <polygon class="st177" points="53.8 53.6 47.1 65.3 46.9 65.3 53.8 53.2 53.8 53.6" style="fill: rgb(132, 94, 38);"></polygon>
        <polygon class="st240" points="53.8 54 47.3 65.3 47.1 65.3 53.8 53.6 53.8 54" style="fill: rgb(131, 93, 37);"></polygon>
        <polygon class="st146" points="53.8 54.4 47.6 65.3 47.3 65.3 53.8 54 53.8 54.4" style="fill: rgb(131, 92, 37);"></polygon>
        <polygon class="st173" points="53.8 54.7 47.8 65.3 47.6 65.3 53.8 54.4 53.8 54.7" style="fill: rgb(130, 91, 36);"></polygon>
        <polygon class="st77" points="53.8 55.1 48 65.3 47.8 65.3 53.8 54.7 53.8 55.1" style="fill: rgb(129, 91, 36);"></polygon>
        <polygon class="st77" points="48 65.3 53.8 55.1 53.8 65.3 48 65.3" style="fill: rgb(129, 91, 36);"></polygon>
      </g>
    </g>
    <path class="st36" d="M37.5,52.6c0,.8.7,1.5,1.5,1.5s1.5-.7,1.5-1.5-.7-1.5-1.5-1.5-1.5.7-1.5,1.5M14.5,51.4c0,.6.5,1.1,1.1,1.1s1.1-.5,1.1-1.1-.5-1.1-1.1-1.1-1.1.5-1.1,1.1ZM21.7,51.5c0,.3.2.5.5.5s.5-.2.5-.5-.2-.5-.5-.5-.5.2-.5.5ZM47.7,47.7c0,.3.2.5.5.5s.5-.2.5-.5-.2-.5-.5-.5-.5.2-.5.5ZM18.8,52.6c0,.3.2.5.5.5s.5-.2.5-.5-.2-.5-.5-.5-.5.2-.5.5ZM18,48c0,.3.2.5.5.5s.5-.2.5-.5-.2-.5-.5-.5-.5.2-.5.5ZM43.9,50.6c0,.3.2.5.5.5s.5-.2.5-.5-.2-.5-.5-.5-.5.2-.5.5ZM44.9,14.8s-11.3,9.6-14.9,32.7c0,.4-.2.8-.4,1.2-.4.9-1,2.9.4,4.2.9.8,2.2,1,3.3.5,1.1-.5,2.2-1.7,1.4-4.9-1.4-5.6.8-22.6,10.1-33.7ZM28.8,33.6s-4.6,3.9-6.1,13.3c0,.2,0,.3-.1.5-.2.4-.4,1.2.2,1.7.4.3.9.4,1.3.2.4-.2.9-.7.6-2-.6-2.3.3-9.2,4.1-13.7ZM42.8,32.8s-3.8,4.6-3.6,14.1c0,.2,0,.3,0,.5,0,.4-.2,1.2.5,1.6.4.3,1,.2,1.4,0,.4-.3.7-.9.2-2.1-1-2.1-1.3-9.1,1.6-14.2ZM53.8,45.3c-1,11.2-10.4,20-21.8,20s-20.6-8.6-21.8-19.6h10.9c.3,0,.5.2.5.5h0c0,.2,0,.4-.1.6-.6,1.5-.3,2.8.8,3.5.8.5,1.7.6,2.6.2.8-.4,2-1.3,1.4-3.8-.2-.8-.2-1.4,0-1.6.4-.3,1.4,0,1.9.3,0,0,.9.5.5,2.1,0,.2-.1.4-.2.6-.3.9-.6,2-.6,3.2,0,1.4.6,2.6,1.8,3.3.8.5,1.7.8,2.6.8s1.7-.2,2.4-.7c1.3-.9,2.5-2.7,1.2-6.7,0-.1-.5-1.9.6-2.5.4-.2.9-.1,1.2.2.3.3.5.7.3,1.3,0,0,0,.1,0,.2-.5,1.1-.1,2,.2,2.5.4.6,1,1,1.8,1.1,1.2.2,2.1-.2,2.7-1,.5-.7.6-1.6.3-2.4-.1-.3-.3-.7-.5-1-.2-.4-.1-.5,0-.7.1-.2.3-.2.6-.2h10.9ZM28,20.8c-10.8,1.8-19.1,11.3-19.1,22.6s10.3,22.9,22.9,22.9,10.5-1.9,14.4-5.1l1.4,1.7c-.7.6-.9,1.6-.2,2.4l10.9,12.8c.6.7,1.6.8,2.3.2l1.2-1c.7-.6.8-1.6.2-2.3l-10.9-12.8c-.6-.7-1.6-.8-2.3-.2h0c0,0-1.4-1.6-1.4-1.6,4.6-4.2,7.5-10.2,7.5-16.9s-.9-7.4-2.6-10.6h-1.1c1.7,3.1,2.7,6.7,2.7,10.6s0,.7,0,1.1h-10.9c-.5,0-.9.2-1.2.6-.2.3-.5.9,0,1.7.2.3.3.5.4.8.2.6.1,1.2-.2,1.7-.4.6-1,.8-1.9.7-.5,0-.9-.3-1.2-.7-.3-.5-.4-1.1-.1-1.7,0,0,0-.1,0-.2.3-.8,0-1.6-.5-2.2-.6-.5-1.4-.7-2.1-.3-1.8.9-1.1,3.3-1.1,3.4h0c.5,1.6.6,2.9.4,4-.2.8-.6,1.4-1.3,1.8-1.2.8-2.8.8-4,0-2.1-1.4-1.4-3.9-.9-5.6,0-.2.1-.4.2-.6.5-2.2-.9-3-1-3-.2,0-1.9-.9-2.8-.2-.5.4-.6,1.2-.3,2.4.4,1.5,0,2.4-.9,2.9-.6.3-1.3.2-1.8-.1-1-.6-.7-1.8-.4-2.5.1-.3.2-.6.2-.9h0c0-.7-.6-1.3-1.3-1.3h-11c0-.5,0-1,0-1.5,0-10.8,7.8-19.8,18.1-21.6v-1ZM23.1,52.6c0,.6.5,1.1,1.1,1.1s1.1-.5,1.1-1.1-.5-1.1-1.1-1.1-1.1.5-1.1,1.1Z" style="fill: rgb(255, 255, 255);"></path>
    <path class="st214" d="M16.6,51.4c0,.6-.5,1.1-1.1,1.1s-1.1-.5-1.1-1.1.5-1.1,1.1-1.1,1.1.5,1.1,1.1M48.2,48.2c-.3,0-.5-.2-.5-.5s.2-.5.5-.5.5.2.5.5-.2.5-.5.5ZM19.8,52.6c0,.3-.2.5-.5.5s-.5-.2-.5-.5.2-.5.5-.5.5.2.5.5ZM18.5,48.5c-.3,0-.5-.2-.5-.5s.2-.5.5-.5.5.2.5.5-.2.5-.5.5ZM22.7,51.5c0,.3-.2.5-.5.5s-.5-.2-.5-.5.2-.5.5-.5.5.2.5.5ZM44.4,51.1c-.3,0-.5-.2-.5-.5s.2-.5.5-.5.5.2.5.5-.2.5-.5.5ZM24.2,53.6c-.6,0-1.1-.5-1.1-1.1s.5-1.1,1.1-1.1,1.1.5,1.1,1.1-.5,1.1-1.1,1.1ZM39,54c-.8,0-1.5-.7-1.5-1.5s.7-1.5,1.5-1.5,1.5.7,1.5,1.5-.7,1.5-1.5,1.5Z" style="fill: rgb(227, 216, 206); fill-rule: evenodd;"></path>
    <path class="st36" d="M10.3,45.7c.2,2.1.7,4.1,1.5,5.9,1.1,2.6,2.7,5,4.7,7,3.9,3.9,9.3,6.3,15.3,6.3s5.7-.6,8.3-1.6c2.6-1.1,5-2.7,7-4.7,2-2,3.6-4.4,4.7-7,.8-2,1.4-4.1,1.6-6.3h.4c-1,11.2-10.4,20-21.8,20s-20.6-8.6-21.8-19.6h.2ZM41.4,22.5h0c2.7,1.2,4.6,2.6,6.6,4.6,1.7,1.7,3.1,3.6,4.2,5.7h-1.1c1.7,3.1,2.7,6.7,2.7,10.6s0,.7,0,1.1h-.4c0-.4,0-.7,0-1.1,0-2.9-.6-5.7-1.6-8.3-1.1-2.6-2.7-5-4.7-7-1.9-1.9-3.7-3.3-6.2-4.3,0,0,.3.1,0,0,.2-.4.3-.9.5-1.3ZM31.8,20.4c1.9,0,3.8.2,5.6.7-.2.4-.4.8-.6,1.3-1.6-.4-3.3-.6-5-.6-2.9,0-5.7.6-8.3,1.6-2.6,1.1-5,2.7-7,4.7-3.9,3.9-6.3,9.3-6.3,15.3s0,1,0,1.5h-.2c0-.5,0-1,0-1.5,0-10.8,7.8-19.8,18.1-21.6v-1c-10.8,1.8-19.1,11.3-19.1,22.6s10.3,22.9,22.9,22.9,8.1-1.1,11.5-3.1c-.9.5-1.8,1-2.7,1.4-2.7,1.1-5.7,1.7-8.8,1.7s-6.1-.6-8.8-1.7c-2.8-1.2-5.3-2.9-7.5-5-2.1-2.1-3.8-4.7-5-7.5-1.1-2.7-1.7-5.7-1.7-8.8s.6-6.1,1.7-8.8c1.2-2.8,2.9-5.3,5-7.5,2.1-2.1,4.6-3.8,7.5-5,2.7-1.1,5.7-1.7,8.8-1.7ZM42,21.3c8.4,3.4,14,13.1,14,22s-2.7,12.7-7.1,17.1c-.3.3-.6.5-.9.8l-.2-.3c.3-.3.6-.5.8-.8,4.3-4.3,7-10.3,7-16.9s-5.5-18.4-13.8-21.7l.2-.3ZM31.9,19.1c2,0,4,.2,5.9.7v.3c-2-.5-3.9-.7-5.9-.7-6.6,0-12.5,2.7-16.9,7-4.3,4.3-7,10.3-7,16.9s2.7,12.5,7,16.9c4.3,4.3,10.3,7,16.9,7s10.9-2,15-5.3l.2.3c-4.1,3.3-9.4,5.4-15.2,5.4s-12.7-2.7-17.1-7.1c-4.4-4.4-7.1-10.4-7.1-17.1s2.7-12.7,7.1-17.1c4.4-4.4,10.4-7.1,17.1-7.1Z" style="fill: rgb(13, 12, 37);"></path>
    <path class="st37" d="M 251.5 39.648 C 251.5 40.348 251.5 40.948 251.3 41.548 C 251.3 41.848 251.1 42.148 251 42.448 C 250.9 42.748 250.7 43.048 250.6 43.348 C 250.4 43.648 250.3 43.948 250.1 44.148 C 249.9 44.448 249.7 44.648 249.5 44.848 C 249.3 45.048 249.1 45.248 248.9 45.348 C 249.1 45.548 249.3 45.648 249.5 45.848 C 249.7 46.048 249.9 46.348 250.1 46.548 C 250.3 46.848 250.5 47.048 250.6 47.348 C 250.8 47.648 250.9 47.948 251 48.248 C 251.1 48.548 251.2 48.848 251.3 49.148 C 251.3 49.448 251.4 49.748 251.5 50.048 C 251.5 50.348 251.5 50.648 251.5 51.048 L 251.5 58.648 L 247.8 58.648 L 247.8 51.048 C 247.8 49.948 247.4 49.048 246.6 48.248 C 246.4 48.048 246.2 47.848 246 47.748 C 245.8 47.648 245.6 47.448 245.3 47.348 C 245.1 47.348 244.8 47.148 244.6 47.148 C 244.4 47.148 244.1 47.148 243.8 47.148 L 228.3 47.148 L 228.3 58.648 L 224.6 58.648 L 224.6 43.348 L 243.8 43.348 C 244.1 43.348 244.4 43.348 244.6 43.348 C 244.9 43.348 245.1 43.248 245.3 43.148 C 245.5 43.148 245.8 42.948 246 42.748 C 246.2 42.648 246.4 42.448 246.6 42.248 C 246.8 42.048 247 41.848 247.1 41.648 C 247.2 41.448 247.4 41.248 247.5 40.948 C 247.5 40.748 247.7 40.448 247.7 40.248 C 247.7 40.048 247.7 39.748 247.7 39.448 C 247.7 38.348 247.3 37.448 246.5 36.648 C 246.1 36.248 245.7 35.948 245.2 35.748 C 244.7 35.548 244.2 35.448 243.7 35.448 L 224.5 35.448 L 224.5 31.748 L 243.7 31.748 C 244.2 31.748 244.7 31.748 245.2 31.848 C 245.7 31.848 246.2 32.048 246.6 32.248 C 247.1 32.448 247.5 32.648 247.9 32.948 C 248.3 33.248 248.7 33.548 249.1 33.948 C 249.5 34.348 249.8 34.748 250.1 35.148 C 250.4 35.548 250.6 35.948 250.8 36.448 C 251 36.948 251.1 37.348 251.2 37.848 C 251.2 38.348 251.3 38.848 251.3 39.348 M 216.2 58.048 L 216.2 32.048 L 219.9 32.048 L 219.9 58.848 L 216.2 58.848 L 216.2 58.048 Z M 181.7 57.648 L 196.6 31.248 L 197.1 32.248 C 199.9 37.248 202.7 42.248 205.5 47.248 L 212 58.948 L 207.6 58.948 L 196.5 39.048 L 185.3 58.948 L 180.9 58.948 L 181.5 57.748 L 181.7 57.648 Z M 173.1 43.648 L 173.1 32.148 L 176.8 32.148 L 176.8 58.948 L 173.1 58.948 L 173.1 47.448 L 153.6 47.448 L 153.6 58.948 L 149.9 58.948 L 149.9 32.148 L 153.6 32.148 L 153.6 43.648 L 173.1 43.648 Z M 128.6 58.148 C 128.5 58.048 128.4 57.948 128.3 57.748 C 128.3 57.648 128.1 57.448 128.1 57.348 C 128.1 57.248 128 57.048 128 56.948 C 128 56.748 128 56.648 128 56.448 C 128 56.248 128 56.148 128 55.948 C 128 55.848 128 55.648 128.1 55.548 C 128.1 55.448 128.2 55.248 128.3 55.148 C 128.3 55.048 128.5 54.848 128.6 54.748 C 128.7 54.648 128.8 54.548 129 54.448 C 129.1 54.448 129.3 54.248 129.4 54.248 C 129.5 54.248 129.7 54.148 129.8 54.148 C 130 54.148 130.1 54.148 130.3 54.148 C 130.5 54.148 130.6 54.148 130.8 54.148 C 131 54.148 131.1 54.148 131.2 54.248 C 131.3 54.248 131.5 54.348 131.6 54.448 C 131.7 54.448 131.8 54.648 132 54.748 C 132.1 54.848 132.2 54.948 132.3 55.148 C 132.3 55.248 132.5 55.448 132.5 55.548 C 132.5 55.648 132.6 55.848 132.6 55.948 C 132.6 56.148 132.6 56.248 132.6 56.448 C 132.6 56.648 132.6 56.748 132.6 56.948 C 132.6 57.048 132.6 57.248 132.5 57.348 C 132.5 57.448 132.4 57.648 132.3 57.748 C 132.3 57.848 132.1 57.948 132 58.148 C 131.9 58.248 131.8 58.348 131.6 58.448 C 131.5 58.448 131.3 58.648 131.2 58.648 C 131.1 58.648 130.9 58.748 130.8 58.748 C 130.6 58.748 130.5 58.748 130.3 58.748 C 130.1 58.748 130 58.748 129.8 58.748 C 129.6 58.748 129.5 58.748 129.4 58.648 C 129.3 58.648 129.1 58.548 129 58.448 C 128.9 58.448 128.8 58.248 128.6 58.148 Z M 123.2 39.648 C 123.2 39.948 123.2 40.248 123.2 40.648 C 123.2 40.948 123.2 41.248 123 41.648 C 123 41.948 122.8 42.248 122.7 42.548 C 122.6 42.848 122.4 43.148 122.3 43.448 C 122.1 43.748 122 44.048 121.8 44.248 C 121.6 44.548 121.4 44.748 121.2 44.948 C 121 45.148 120.8 45.348 120.6 45.448 C 120.8 45.648 121 45.748 121.2 45.948 C 121.4 46.148 121.6 46.448 121.8 46.648 C 122 46.948 122.2 47.148 122.3 47.448 C 122.5 47.748 122.6 48.048 122.7 48.348 C 122.8 48.648 122.9 48.948 123 49.248 C 123 49.548 123.1 49.848 123.2 50.248 C 123.2 50.548 123.2 50.848 123.2 51.248 L 123.2 58.848 L 119.5 58.848 L 119.5 51.248 C 119.5 50.748 119.5 50.148 119.2 49.748 C 119 49.248 118.7 48.848 118.3 48.448 C 118.1 48.248 117.9 48.048 117.7 47.948 C 117.5 47.848 117.3 47.648 117 47.548 C 116.8 47.548 116.5 47.348 116.3 47.348 C 116.1 47.348 115.8 47.348 115.5 47.348 L 100 47.348 L 100 58.848 L 96.3 58.848 L 96.3 43.548 L 115.5 43.548 C 115.8 43.548 116.1 43.548 116.3 43.548 C 116.6 43.548 116.8 43.448 117 43.348 C 117.2 43.348 117.5 43.148 117.7 42.948 C 117.9 42.848 118.1 42.648 118.3 42.448 C 118.5 42.248 118.7 42.048 118.8 41.848 C 118.9 41.648 119.1 41.448 119.2 41.148 C 119.2 40.948 119.4 40.648 119.4 40.448 C 119.4 40.248 119.4 39.948 119.4 39.648 C 119.4 38.548 119 37.648 118.2 36.848 C 117.8 36.448 117.4 36.148 116.9 35.948 C 116.4 35.748 115.9 35.648 115.4 35.648 L 96.2 35.648 L 96.2 31.948 L 115.4 31.948 C 115.9 31.948 116.4 31.948 116.9 32.048 C 117.4 32.048 117.9 32.248 118.3 32.448 C 118.8 32.648 119.2 32.848 119.6 33.148 C 120 33.448 120.4 33.748 120.8 34.148 C 121.2 34.548 121.5 34.948 121.8 35.348 C 122.1 35.748 122.3 36.148 122.5 36.648 C 122.7 37.148 122.8 37.548 122.9 38.048 C 122.9 38.548 123 39.048 123 39.548 L 123.2 39.648 Z M 78.2 32.048 C 80 32.048 81.8 32.348 83.3 33.048 C 84.9 33.748 86.3 34.648 87.6 35.948 C 88.9 37.248 89.9 38.648 90.5 40.248 C 90.8 41.048 91.1 41.848 91.2 42.748 C 91.4 43.648 91.4 44.548 91.4 45.448 C 91.4 47.248 91.1 49.048 90.4 50.548 C 89.7 52.148 88.8 53.548 87.5 54.848 C 86.9 55.448 86.2 56.048 85.4 56.548 C 84.7 57.048 83.9 57.448 83.1 57.748 C 82.3 58.048 81.5 58.348 80.6 58.448 C 79.7 58.648 78.8 58.648 77.9 58.648 L 64.5 58.648 L 64.5 54.948 L 77.9 54.948 C 78.4 54.948 78.8 54.948 79.2 54.948 C 79.6 54.948 80 54.848 80.4 54.748 C 80.8 54.648 81.2 54.548 81.6 54.348 C 82 54.148 82.4 53.948 82.7 53.748 C 83.5 53.348 84.1 52.848 84.7 52.248 C 85.3 51.648 85.8 50.948 86.2 50.248 C 86.4 49.848 86.6 49.448 86.8 49.148 C 87 48.748 87.1 48.348 87.2 47.948 C 87.3 47.548 87.4 50.09 87.4 49.69 C 87.4 49.29 87.4 45.948 87.4 45.448 C 87.4 44.948 87.4 44.548 87.4 44.148 C 87.4 43.748 87.3 43.348 87.2 42.948 C 87.1 42.548 87 42.148 86.8 41.748 C 86.6 41.348 86.4 40.948 86.2 40.548 C 85.8 39.748 85.3 39.148 84.7 38.548 C 84.1 37.948 83.4 37.448 82.7 37.048 C 82.3 36.848 81.9 36.648 81.6 36.448 C 81.2 36.248 80.8 36.148 80.4 36.048 C 80 35.948 79.6 35.848 79.2 35.848 C 78.8 35.848 78.4 35.848 77.9 35.848 L 64.5 35.848 L 64.5 32.148 L 77.9 32.148 L 78.2 32.048 Z" style="fill: rgb(255, 255, 255); fill-rule: evenodd;"></path>
    <g class="st326" style="clip-path: url(#clippath-2);">
      <g class="st229" style="clip-path: url(#clippath-3);">
        <polygon class="st130" points="101 31.248 70.6 32.248 69.8 32.248 100.2 31.248 101 31.248" style="fill: rgb(154, 117, 54);"></polygon>
        <polygon class="st233" points="101.9 31.248 71.4 32.248 70.6 32.248 101 31.248 101.9 31.248" style="fill: rgb(155, 118, 54);"></polygon>
        <polygon class="st289" points="102.7 31.248 72.3 32.248 71.4 32.248 101.9 31.248 102.7 31.248" style="fill: rgb(156, 119, 55);"></polygon>
        <polygon class="st344" points="103.5 31.248 73.1 32.248 72.3 32.248 102.7 31.248 103.5 31.248" style="fill: rgb(156, 120, 56);"></polygon>
        <polygon class="st243" points="104.3 31.248 73.9 32.248 73.1 32.248 103.5 31.248 104.3 31.248" style="fill: rgb(157, 121, 56);"></polygon>
        <polygon class="st134" points="105.2 31.248 74.8 32.248 73.9 32.248 104.3 31.248 105.2 31.248" style="fill: rgb(158, 122, 57);"></polygon>
        <polygon class="st346" points="106 31.248 75.6 32.248 74.8 32.248 105.2 31.248 106 31.248" style="fill: rgb(159, 123, 57);"></polygon>
        <polygon class="st5" points="106.8 31.248 76.4 32.248 75.6 32.248 106 31.248 106.8 31.248" style="fill: rgb(160, 123, 58);"></polygon>
        <polygon class="st124" points="107.7 31.248 77.3 32.248 76.4 32.248 106.8 31.248 107.7 31.248" style="fill: rgb(161, 124, 58);"></polygon>
        <polygon class="st200" points="108.5 31.248 78.1 32.248 77.3 32.248 107.7 31.248 108.5 31.248" style="fill: rgb(162, 125, 59);"></polygon>
        <polygon class="st296" points="109.3 31.248 78.9 32.248 78.1 32.248 108.5 31.248 109.3 31.248" style="fill: rgb(162, 126, 59);"></polygon>
        <polygon class="st133" points="110.1 31.248 79.7 32.248 78.9 32.248 109.3 31.248 110.1 31.248" style="fill: rgb(163, 127, 60);"></polygon>
        <polygon class="st116" points="111 31.248 80.6 32.248 79.7 32.248 110.1 31.248 111 31.248" style="fill: rgb(164, 128, 61);"></polygon>
        <polygon class="st189" points="111.8 31.248 81.4 32.248 80.6 32.248 111 31.248 111.8 31.248" style="fill: rgb(165, 129, 61);"></polygon>
        <polygon class="st169" points="112.6 31.248 82.2 32.248 81.4 32.248 111.8 31.248 112.6 31.248" style="fill: rgb(166, 130, 62);"></polygon>
        <polygon class="st8" points="113.5 31.248 83.1 32.248 82.2 32.248 112.6 31.248 113.5 31.248" style="fill: rgb(167, 131, 62);"></polygon>
        <polygon class="st122" points="114.3 31.248 83.9 32.248 83.1 32.248 113.5 31.248 114.3 31.248" style="fill: rgb(168, 132, 63);"></polygon>
        <polygon class="st127" points="115.1 31.248 84.7 32.248 83.9 32.248 114.3 31.248 115.1 31.248" style="fill: rgb(169, 133, 64);"></polygon>
        <polygon class="st56" points="115.9 31.248 85.5 32.248 84.7 32.248 115.1 31.248 115.9 31.248" style="fill: rgb(170, 134, 64);"></polygon>
        <polygon class="st87" points="116.8 31.248 86.4 32.248 85.5 32.248 115.9 31.248 116.8 31.248" style="fill: rgb(170, 135, 65);"></polygon>
        <polygon class="st343" points="117.6 31.248 87.2 32.248 86.4 32.248 116.8 31.248 117.6 31.248" style="fill: rgb(171, 136, 65);"></polygon>
        <polygon class="st50" points="118.4 31.248 88 32.248 87.2 32.248 117.6 31.248 118.4 31.248" style="fill: rgb(172, 137, 66);"></polygon>
        <polygon class="st81" points="119.3 31.248 88.9 32.248 88 32.248 118.4 31.248 119.3 31.248" style="fill: rgb(173, 138, 67);"></polygon>
        <polygon class="st73" points="120.1 31.248 89.7 32.248 88.9 32.248 119.3 31.248 120.1 31.248" style="fill: rgb(174, 139, 67);"></polygon>
        <polygon class="st136" points="120.9 31.248 90.5 32.248 89.7 32.248 120.1 31.248 120.9 31.248" style="fill: rgb(175, 140, 68);"></polygon>
        <polygon class="st303" points="121.7 31.248 91.3 32.248 90.5 32.248 120.9 31.248 121.7 31.248" style="fill: rgb(176, 141, 69);"></polygon>
        <polygon class="st144" points="122.6 31.248 92.2 32.248 91.3 32.248 121.7 31.248 122.6 31.248" style="fill: rgb(177, 142, 69);"></polygon>
        <polygon class="st30" points="123.4 31.248 93 32.248 92.2 32.248 122.6 31.248 123.4 31.248" style="fill: rgb(178, 143, 70);"></polygon>
        <polygon class="st402" points="124.2 31.248 93.8 32.248 93 32.248 123.4 31.248 124.2 31.248" style="fill: rgb(179, 144, 70);"></polygon>
        <polygon class="st186" points="125.1 31.248 94.7 32.248 93.8 32.248 124.2 31.248 125.1 31.248" style="fill: rgb(180, 145, 71);"></polygon>
        <polygon class="st364" points="125.9 31.248 95.5 32.248 94.7 32.248 125.1 31.248 125.9 31.248" style="fill: rgb(181, 146, 72);"></polygon>
        <polygon class="st10" points="126.7 31.248 96.3 32.248 95.5 32.248 125.9 31.248 126.7 31.248" style="fill: rgb(182, 147, 72);"></polygon>
        <polygon class="st398" points="127.5 31.248 97.1 32.248 96.3 32.248 126.7 31.248 127.5 31.248" style="fill: rgb(183, 148, 73);"></polygon>
        <polygon class="st225" points="128.4 31.248 98 32.248 97.1 32.248 127.5 31.248 128.4 31.248" style="fill: rgb(184, 149, 74);"></polygon>
        <polygon class="st310" points="129.2 31.248 98.8 32.248 98 32.248 128.4 31.248 129.2 31.248" style="fill: rgb(185, 150, 75);"></polygon>
        <polygon class="st242" points="130 31.248 99.6 32.248 98.8 32.248 129.2 31.248 130 31.248" style="fill: rgb(186, 151, 75);"></polygon>
        <polygon class="st288" points="130.9 31.248 100.5 32.248 99.6 32.248 130 31.248 130.9 31.248" style="fill: rgb(187, 152, 76);"></polygon>
        <polygon class="st181" points="131.7 31.248 101.3 32.248 100.5 32.248 130.9 31.248 131.7 31.248" style="fill: rgb(187, 153, 77);"></polygon>
        <polygon class="st19" points="132.5 31.248 102.1 32.248 101.3 32.248 131.7 31.248 132.5 31.248" style="fill: rgb(188, 154, 77);"></polygon>
        <polygon class="st328" points="133.3 31.248 102.9 32.248 102.1 32.248 132.5 31.248 133.3 31.248" style="fill: rgb(189, 156, 78);"></polygon>
        <polygon class="st89" points="134.2 31.248 103.8 32.248 102.9 32.248 133.3 31.248 134.2 31.248" style="fill: rgb(190, 157, 79);"></polygon>
        <polygon class="st265" points="135 31.248 104.6 32.248 103.8 32.248 134.2 31.248 135 31.248" style="fill: rgb(191, 158, 79);"></polygon>
        <polygon class="st18" points="135.8 31.248 105.4 32.248 104.6 32.248 135 31.248 135.8 31.248" style="fill: rgb(192, 159, 80);"></polygon>
        <polygon class="st157" points="136.7 31.248 106.3 32.248 105.4 32.248 135.8 31.248 136.7 31.248" style="fill: rgb(193, 160, 81);"></polygon>
        <polygon class="st216" points="137.5 31.248 107.1 32.248 106.3 32.248 136.7 31.248 137.5 31.248" style="fill: rgb(194, 161, 82);"></polygon>
        <polygon class="st320" points="138.3 31.248 107.9 32.248 107.1 32.248 137.5 31.248 138.3 31.248" style="fill: rgb(195, 162, 82);"></polygon>
        <polygon class="st91" points="139.1 31.248 108.7 32.248 107.9 32.248 138.3 31.248 139.1 31.248" style="fill: rgb(196, 163, 83);"></polygon>
        <polygon class="st290" points="140 31.248 109.6 32.248 108.7 32.248 139.1 31.248 140 31.248" style="fill: rgb(197, 164, 84);"></polygon>
        <polygon class="st340" points="140.8 31.248 110.4 32.248 109.6 32.248 140 31.248 140.8 31.248" style="fill: rgb(198, 166, 85);"></polygon>
        <polygon class="st183" points="141.6 31.248 111.2 32.248 110.4 32.248 140.8 31.248 141.6 31.248" style="fill: rgb(199, 167, 85);"></polygon>
        <polygon class="st299" points="142.5 31.248 112.1 32.248 111.2 32.248 141.6 31.248 142.5 31.248" style="fill: rgb(200, 168, 86);"></polygon>
        <polygon class="st128" points="143.3 31.248 112.9 32.248 112.1 32.248 142.5 31.248 143.3 31.248" style="fill: rgb(201, 169, 87);"></polygon>
        <polygon class="st368" points="144.1 31.248 113.7 32.248 112.9 32.248 143.3 31.248 144.1 31.248" style="fill: rgb(202, 170, 88);"></polygon>
        <polygon class="st251" points="144.9 31.248 114.5 32.248 113.7 32.248 144.1 31.248 144.9 31.248" style="fill: rgb(203, 171, 88);"></polygon>
        <polygon class="st20" points="145.8 31.248 115.4 32.248 114.5 32.248 144.9 31.248 145.8 31.248" style="fill: rgb(204, 172, 89);"></polygon>
        <polygon class="st159" points="146.6 31.248 116.2 32.248 115.4 32.248 145.8 31.248 146.6 31.248" style="fill: rgb(205, 174, 90);"></polygon>
        <polygon class="st230" points="147.4 31.248 117 32.248 116.2 32.248 146.6 31.248 147.4 31.248" style="fill: rgb(207, 175, 91);"></polygon>
        <polygon class="st164" points="148.3 31.248 117.9 32.248 117 32.248 147.4 31.248 148.3 31.248" style="fill: rgb(208, 176, 92);"></polygon>
        <polygon class="st318" points="149.1 31.248 118.7 32.248 117.9 32.248 148.3 31.248 149.1 31.248" style="fill: rgb(209, 177, 92);"></polygon>
        <polygon class="st147" points="149.9 31.248 119.5 32.248 118.7 32.248 149.1 31.248 149.9 31.248" style="fill: rgb(210, 178, 93);"></polygon>
        <polygon class="st66" points="150.7 31.248 120.3 32.248 119.5 32.248 149.9 31.248 150.7 31.248" style="fill: rgb(211, 179, 94);"></polygon>
        <polygon class="st85" points="151.6 31.248 121.2 32.248 120.3 32.248 150.7 31.248 151.6 31.248" style="fill: rgb(212, 181, 95);"></polygon>
        <polygon class="st142" points="152.4 31.248 122 32.248 121.2 32.248 151.6 31.248 152.4 31.248" style="fill: rgb(213, 182, 95);"></polygon>
        <polygon class="st125" points="153.2 31.248 122.8 32.248 122 32.248 152.4 31.248 153.2 31.248" style="fill: rgb(214, 183, 96);"></polygon>
        <polygon class="st353" points="154.1 31.248 123.7 32.248 122.8 32.248 153.2 31.248 154.1 31.248" style="fill: rgb(215, 184, 97);"></polygon>
        <polygon class="st210" points="154.9 31.248 124.5 32.248 123.7 32.248 154.1 31.248 154.9 31.248" style="fill: rgb(216, 185, 98);"></polygon>
        <polygon class="st151" points="155.7 31.248 125.3 32.248 124.5 32.248 154.9 31.248 155.7 31.248" style="fill: rgb(217, 187, 99);"></polygon>
        <polygon class="st357" points="156.5 31.248 126.1 32.248 125.3 32.248 155.7 31.248 156.5 31.248" style="fill: rgb(219, 188, 99);"></polygon>
        <polygon class="st54" points="157.4 31.248 127 32.248 126.1 32.248 156.5 31.248 157.4 31.248" style="fill: rgb(220, 189, 100);"></polygon>
        <polygon class="st13" points="158.2 31.248 127.8 32.248 127 32.248 157.4 31.248 158.2 31.248" style="fill: rgb(221, 190, 101);"></polygon>
        <polygon class="st39" points="159 31.248 128.6 32.248 127.8 32.248 158.2 31.248 159 31.248" style="fill: rgb(222, 192, 102);"></polygon>
        <polygon class="st168" points="159.9 31.248 129.5 32.248 128.6 32.248 159 31.248 159.9 31.248" style="fill: rgb(223, 193, 103);"></polygon>
        <polygon class="st257" points="160.7 31.248 130.3 32.248 129.5 32.248 159.9 31.248 160.7 31.248" style="fill: rgb(224, 194, 103);"></polygon>
        <polygon class="st199" points="161.5 31.248 131.1 32.248 130.3 32.248 160.7 31.248 161.5 31.248" style="fill: rgb(226, 196, 104);"></polygon>
        <polygon class="st393" points="162.3 31.248 131.9 32.248 131.1 32.248 161.5 31.248 162.3 31.248" style="fill: rgb(227, 197, 105);"></polygon>
        <polygon class="st278" points="163.2 31.248 132.8 32.248 131.9 32.248 162.3 31.248 163.2 31.248" style="fill: rgb(228, 198, 106);"></polygon>
        <polygon class="st131" points="164 31.248 133.6 32.248 132.8 32.248 163.2 31.248 164 31.248" style="fill: rgb(229, 200, 107);"></polygon>
        <polygon class="st269" points="164.8 31.248 134.4 32.248 133.6 32.248 164 31.248 164.8 31.248" style="fill: rgb(230, 201, 108);"></polygon>
        <polygon class="st148" points="165.7 31.248 135.3 32.248 134.4 32.248 164.8 31.248 165.7 31.248" style="fill: rgb(232, 202, 109);"></polygon>
        <polygon class="st313" points="166.5 31.248 136.1 32.248 135.3 32.248 165.7 31.248 166.5 31.248" style="fill: rgb(233, 204, 110);"></polygon>
        <polygon class="st366" points="167.3 31.248 136.9 32.248 136.1 32.248 166.5 31.248 167.3 31.248" style="fill: rgb(234, 205, 110);"></polygon>
        <polygon class="st237" points="168.1 31.248 137.7 32.248 136.9 32.248 167.3 31.248 168.1 31.248" style="fill: rgb(236, 207, 111);"></polygon>
        <polygon class="st90" points="169 31.248 138.6 32.248 137.7 32.248 168.1 31.248 169 31.248" style="fill: rgb(237, 208, 112);"></polygon>
        <polygon class="st180" points="169.8 31.248 139.4 32.248 138.6 32.248 169 31.248 169.8 31.248" style="fill: rgb(239, 210, 113);"></polygon>
        <polygon class="st334" points="170.6 31.248 140.2 32.248 139.4 32.248 169.8 31.248 170.6 31.248" style="fill: rgb(241, 212, 114);"></polygon>
        <polygon class="st280" points="171.5 31.248 141.1 32.248 140.2 32.248 170.6 31.248 171.5 31.248" style="fill: rgb(242, 213, 115);"></polygon>
        <polygon class="st280" points="172.3 31.248 141.9 32.248 141.1 32.248 171.5 31.248 172.3 31.248" style="fill: rgb(242, 213, 115);"></polygon>
        <polygon class="st334" points="173.1 31.248 142.7 32.248 141.9 32.248 172.3 31.248 173.1 31.248" style="fill: rgb(241, 212, 114);"></polygon>
        <polygon class="st180" points="173.9 31.248 143.5 32.248 142.7 32.248 173.1 31.248 173.9 31.248" style="fill: rgb(239, 210, 113);"></polygon>
        <polygon class="st90" points="174.7 31.248 144.3 32.248 143.5 32.248 173.9 31.248 174.7 31.248" style="fill: rgb(237, 208, 112);"></polygon>
        <polygon class="st237" points="175.5 31.248 145.1 32.248 144.3 32.248 174.7 31.248 175.5 31.248" style="fill: rgb(236, 207, 111);"></polygon>
        <polygon class="st366" points="176.3 31.248 145.9 32.248 145.1 32.248 175.5 31.248 176.3 31.248" style="fill: rgb(234, 205, 110);"></polygon>
        <polygon class="st141" points="177.1 31.248 146.7 32.248 145.9 32.248 176.3 31.248 177.1 31.248" style="fill: rgb(233, 204, 109);"></polygon>
        <polygon class="st379" points="177.9 31.248 147.5 32.248 146.7 32.248 177.1 31.248 177.9 31.248" style="fill: rgb(232, 202, 108);"></polygon>
        <polygon class="st350" points="178.8 31.248 148.4 32.248 147.5 32.248 177.9 31.248 178.8 31.248" style="fill: rgb(230, 201, 107);"></polygon>
        <polygon class="st153" points="179.6 31.248 149.2 32.248 148.4 32.248 178.8 31.248 179.6 31.248" style="fill: rgb(229, 199, 106);"></polygon>
        <polygon class="st38" points="180.4 31.248 150 32.248 149.2 32.248 179.6 31.248 180.4 31.248" style="fill: rgb(228, 198, 105);"></polygon>
        <polygon class="st352" points="181.2 31.248 150.8 32.248 150 32.248 180.4 31.248 181.2 31.248" style="fill: rgb(227, 197, 104);"></polygon>
        <polygon class="st226" points="182 31.248 151.6 32.248 150.8 32.248 181.2 31.248 182 31.248" style="fill: rgb(226, 195, 104);"></polygon>
        <polygon class="st257" points="182.8 31.248 152.4 32.248 151.6 32.248 182 31.248 182.8 31.248" style="fill: rgb(224, 194, 103);"></polygon>
        <polygon class="st11" points="183.6 31.248 153.2 32.248 152.4 32.248 182.8 31.248 183.6 31.248" style="fill: rgb(223, 193, 102);"></polygon>
        <polygon class="st249" points="184.4 31.248 154 32.248 153.2 32.248 183.6 31.248 184.4 31.248" style="fill: rgb(222, 191, 101);"></polygon>
        <polygon class="st281" points="185.2 31.248 154.8 32.248 154 32.248 184.4 31.248 185.2 31.248" style="fill: rgb(221, 190, 100);"></polygon>
        <polygon class="st145" points="186.1 31.248 155.7 32.248 154.8 32.248 185.2 31.248 186.1 31.248" style="fill: rgb(220, 189, 99);"></polygon>
        <polygon class="st238" points="186.9 31.248 156.5 32.248 155.7 32.248 186.1 31.248 186.9 31.248" style="fill: rgb(219, 188, 98);"></polygon>
        <polygon class="st155" points="187.7 31.248 157.3 32.248 156.5 32.248 186.9 31.248 187.7 31.248" style="fill: rgb(218, 186, 97);"></polygon>
        <polygon class="st228" points="188.5 31.248 158.1 32.248 157.3 32.248 187.7 31.248 188.5 31.248" style="fill: rgb(216, 185, 97);"></polygon>
        <polygon class="st339" points="189.3 31.248 158.9 32.248 158.1 32.248 188.5 31.248 189.3 31.248" style="fill: rgb(215, 184, 96);"></polygon>
        <polygon class="st211" points="190.1 31.248 159.7 32.248 158.9 32.248 189.3 31.248 190.1 31.248" style="fill: rgb(214, 183, 95);"></polygon>
        <polygon class="st219" points="190.9 31.248 160.5 32.248 159.7 32.248 190.1 31.248 190.9 31.248" style="fill: rgb(213, 181, 94);"></polygon>
        <polygon class="st71" points="191.7 31.248 161.3 32.248 160.5 32.248 190.9 31.248 191.7 31.248" style="fill: rgb(212, 180, 93);"></polygon>
        <polygon class="st59" points="192.5 31.248 162.1 32.248 161.3 32.248 191.7 31.248 192.5 31.248" style="fill: rgb(211, 179, 92);"></polygon>
        <polygon class="st248" points="193.4 31.248 162.9 32.248 162.1 32.248 192.5 31.248 193.4 31.248" style="fill: rgb(210, 178, 91);"></polygon>
        <polygon class="st117" points="194.2 31.248 163.8 32.248 162.9 32.248 193.4 31.248 194.2 31.248" style="fill: rgb(209, 177, 91);"></polygon>
        <polygon class="st1" points="195 31.248 164.6 32.248 163.8 32.248 194.2 31.248 195 31.248" style="fill: rgb(208, 176, 90);"></polygon>
        <polygon class="st24" points="195.8 31.248 165.4 32.248 164.6 32.248 195 31.248 195.8 31.248" style="fill: rgb(207, 174, 89);"></polygon>
        <polygon class="st96" points="196.6 31.248 166.2 32.248 165.4 32.248 195.8 31.248 196.6 31.248" style="fill: rgb(206, 173, 88);"></polygon>
        <polygon class="st79" points="197.4 31.248 167 32.248 166.2 32.248 196.6 31.248 197.4 31.248" style="fill: rgb(205, 172, 87);"></polygon>
        <polygon class="st104" points="198.2 31.248 167.8 32.248 167 32.248 197.4 31.248 198.2 31.248" style="fill: rgb(204, 171, 86);"></polygon>
        <polygon class="st260" points="199 31.248 168.6 32.248 167.8 32.248 198.2 31.248 199 31.248" style="fill: rgb(203, 170, 86);"></polygon>
        <polygon class="st206" points="199.8 31.248 169.4 32.248 168.6 32.248 199 31.248 199.8 31.248" style="fill: rgb(202, 169, 85);"></polygon>
        <polygon class="st294" points="200.7 31.248 170.2 32.248 169.4 32.248 199.8 31.248 200.7 31.248" style="fill: rgb(201, 167, 84);"></polygon>
        <polygon class="st270" points="201.5 31.248 171.1 32.248 170.2 32.248 200.7 31.248 201.5 31.248" style="fill: rgb(200, 166, 83);"></polygon>
        <polygon class="st161" points="202.3 31.248 171.9 32.248 171.1 32.248 201.5 31.248 202.3 31.248" style="fill: rgb(199, 165, 82);"></polygon>
        <polygon class="st235" points="203.1 31.248 172.7 32.248 171.9 32.248 202.3 31.248 203.1 31.248" style="fill: rgb(198, 164, 82);"></polygon>
        <polygon class="st41" points="203.9 31.248 173.5 32.248 172.7 32.248 203.1 31.248 203.9 31.248" style="fill: rgb(197, 163, 81);"></polygon>
        <polygon class="st388" points="204.7 31.248 174.3 32.248 173.5 32.248 203.9 31.248 204.7 31.248" style="fill: rgb(196, 162, 80);"></polygon>
        <polygon class="st93" points="205.5 31.248 175.1 32.248 174.3 32.248 204.7 31.248 205.5 31.248" style="fill: rgb(195, 161, 79);"></polygon>
        <polygon class="st163" points="206.3 31.248 175.9 32.248 175.1 32.248 205.5 31.248 206.3 31.248" style="fill: rgb(194, 159, 78);"></polygon>
        <polygon class="st167" points="207.1 31.248 176.7 32.248 175.9 32.248 206.3 31.248 207.1 31.248" style="fill: rgb(193, 158, 78);"></polygon>
        <polygon class="st105" points="208 31.248 177.5 32.248 176.7 32.248 207.1 31.248 208 31.248" style="fill: rgb(192, 157, 77);"></polygon>
        <polygon class="st282" points="208.8 31.248 178.4 32.248 177.5 32.248 208 31.248 208.8 31.248" style="fill: rgb(191, 156, 76);"></polygon>
        <polygon class="st109" points="209.6 31.248 179.2 32.248 178.4 32.248 208.8 31.248 209.6 31.248" style="fill: rgb(190, 155, 75);"></polygon>
        <polygon class="st97" points="210.4 31.248 180 32.248 179.2 32.248 209.6 31.248 210.4 31.248" style="fill: rgb(189, 154, 75);"></polygon>
        <polygon class="st275" points="211.2 31.248 180.8 32.248 180 32.248 210.4 31.248 211.2 31.248" style="fill: rgb(188, 153, 74);"></polygon>
        <polygon class="st311" points="212 31.248 181.6 32.248 180.8 32.248 211.2 31.248 212 31.248" style="fill: rgb(187, 152, 73);"></polygon>
        <polygon class="st252" points="212.8 31.248 182.4 32.248 181.6 32.248 212 31.248 212.8 31.248" style="fill: rgb(186, 151, 72);"></polygon>
        <polygon class="st337" points="213.6 31.248 183.2 32.248 182.4 32.248 212.8 31.248 213.6 31.248" style="fill: rgb(185, 150, 72);"></polygon>
        <polygon class="st383" points="214.4 31.248 184 32.248 183.2 32.248 213.6 31.248 214.4 31.248" style="fill: rgb(184, 149, 71);"></polygon>
        <polygon class="st266" points="215.2 31.248 184.8 32.248 184 32.248 214.4 31.248 215.2 31.248" style="fill: rgb(183, 148, 70);"></polygon>
        <polygon class="st264" points="216.1 31.248 185.7 32.248 184.8 32.248 215.2 31.248 216.1 31.248" style="fill: rgb(182, 146, 69);"></polygon>
        <polygon class="st204" points="216.9 31.248 186.5 32.248 185.7 32.248 216.1 31.248 216.9 31.248" style="fill: rgb(181, 145, 69);"></polygon>
        <polygon class="st149" points="217.7 31.248 187.3 32.248 186.5 32.248 216.9 31.248 217.7 31.248" style="fill: rgb(180, 144, 68);"></polygon>
        <polygon class="st245" points="218.5 31.248 188.1 32.248 187.3 32.248 217.7 31.248 218.5 31.248" style="fill: rgb(179, 143, 67);"></polygon>
        <polygon class="st67" points="219.3 31.248 188.9 32.248 188.1 32.248 218.5 31.248 219.3 31.248" style="fill: rgb(178, 142, 67);"></polygon>
        <polygon class="st208" points="220.1 31.248 189.7 32.248 188.9 32.248 219.3 31.248 220.1 31.248" style="fill: rgb(177, 141, 66);"></polygon>
        <polygon class="st17" points="220.9 31.248 190.5 32.248 189.7 32.248 220.1 31.248 220.9 31.248" style="fill: rgb(176, 140, 65);"></polygon>
        <polygon class="st314" points="221.7 31.248 191.3 32.248 190.5 32.248 220.9 31.248 221.7 31.248" style="fill: rgb(175, 139, 65);"></polygon>
        <polygon class="st103" points="222.5 31.248 192.1 32.248 191.3 32.248 221.7 31.248 222.5 31.248" style="fill: rgb(175, 138, 64);"></polygon>
        <polygon class="st72" points="223.4 31.248 193 32.248 192.1 32.248 222.5 31.248 223.4 31.248" style="fill: rgb(174, 137, 63);"></polygon>
        <polygon class="st47" points="224.2 31.248 193.8 32.248 193 32.248 223.4 31.248 224.2 31.248" style="fill: rgb(173, 136, 63);"></polygon>
        <polygon class="st387" points="225 31.248 194.6 32.248 193.8 32.248 224.2 31.248 225 31.248" style="fill: rgb(172, 135, 62);"></polygon>
        <polygon class="st293" points="225.8 31.248 195.4 32.248 194.6 32.248 225 31.248 225.8 31.248" style="fill: rgb(171, 134, 61);"></polygon>
        <polygon class="st16" points="226.6 31.248 196.2 32.248 195.4 32.248 225.8 31.248 226.6 31.248" style="fill: rgb(170, 133, 61);"></polygon>
        <polygon class="st49" points="227.4 31.248 197 32.248 196.2 32.248 226.6 31.248 227.4 31.248" style="fill: rgb(169, 132, 60);"></polygon>
        <polygon class="st295" points="228.2 31.248 197.8 32.248 197 32.248 227.4 31.248 228.2 31.248" style="fill: rgb(168, 131, 59);"></polygon>
        <polygon class="st358" points="229 31.248 198.6 32.248 197.8 32.248 228.2 31.248 229 31.248" style="fill: rgb(167, 130, 59);"></polygon>
        <polygon class="st101" points="229.8 31.248 199.4 32.248 198.6 32.248 229 31.248 229.8 31.248" style="fill: rgb(166, 129, 58);"></polygon>
        <polygon class="st287" points="230.7 31.248 200.2 32.248 199.4 32.248 229.8 31.248 230.7 31.248" style="fill: rgb(166, 128, 57);"></polygon>
        <polygon class="st307" points="231.5 31.248 201.1 32.248 200.2 32.248 230.7 31.248 231.5 31.248" style="fill: rgb(165, 127, 57);"></polygon>
        <polygon class="st259" points="232.3 31.248 201.9 32.248 201.1 32.248 231.5 31.248 232.3 31.248" style="fill: rgb(164, 126, 56);"></polygon>
        <polygon class="st100" points="233.1 31.248 202.7 32.248 201.9 32.248 232.3 31.248 233.1 31.248" style="fill: rgb(163, 126, 56);"></polygon>
        <polygon class="st51" points="233.9 31.248 203.5 32.248 202.7 32.248 233.1 31.248 233.9 31.248" style="fill: rgb(162, 125, 55);"></polygon>
        <polygon class="st98" points="234.7 31.248 204.3 32.248 203.5 32.248 233.9 31.248 234.7 31.248" style="fill: rgb(161, 124, 54);"></polygon>
        <polygon class="st7" points="235.5 31.248 205.1 32.248 204.3 32.248 234.7 31.248 235.5 31.248" style="fill: rgb(160, 123, 54);"></polygon>
        <polygon class="st375" points="236.3 31.248 205.9 32.248 205.1 32.248 235.5 31.248 236.3 31.248" style="fill: rgb(159, 122, 53);"></polygon>
        <polygon class="st34" points="237.1 31.248 206.7 32.248 205.9 32.248 236.3 31.248 237.1 31.248" style="fill: rgb(159, 121, 53);"></polygon>
        <polygon class="st150" points="238 31.248 207.5 32.248 206.7 32.248 237.1 31.248 238 31.248" style="fill: rgb(158, 120, 52);"></polygon>
        <polygon class="st84" points="238.8 31.248 208.4 32.248 207.5 32.248 238 31.248 238.8 31.248" style="fill: rgb(157, 119, 52);"></polygon>
        <polygon class="st316" points="239.6 31.248 209.2 32.248 208.4 32.248 238.8 31.248 239.6 31.248" style="fill: rgb(156, 118, 51);"></polygon>
        <polygon class="st232" points="240.4 31.248 210 32.248 209.2 32.248 239.6 31.248 240.4 31.248" style="fill: rgb(155, 117, 51);"></polygon>
        <polygon class="st82" points="241.2 31.248 210.8 32.248 210 32.248 240.4 31.248 241.2 31.248" style="fill: rgb(154, 116, 50);"></polygon>
        <polygon class="st253" points="242 31.248 211.6 32.248 210.8 32.248 241.2 31.248 242 31.248" style="fill: rgb(153, 115, 50);"></polygon>
        <polygon class="st356" points="242.8 31.248 212.4 32.248 211.6 32.248 242 31.248 242.8 31.248" style="fill: rgb(153, 115, 49);"></polygon>
        <polygon class="st377" points="243.6 31.248 213.2 32.248 212.4 32.248 242.8 31.248 243.6 31.248" style="fill: rgb(152, 114, 48);"></polygon>
        <polygon class="st22" points="244.4 31.248 214 32.248 213.2 32.248 243.6 31.248 244.4 31.248" style="fill: rgb(151, 113, 48);"></polygon>
        <polygon class="st115" points="245.2 31.248 214.8 32.248 214 32.248 244.4 31.248 245.2 31.248" style="fill: rgb(150, 112, 47);"></polygon>
        <polygon class="st317" points="246.1 31.248 215.7 32.248 214.8 32.248 245.2 31.248 246.1 31.248" style="fill: rgb(149, 111, 47);"></polygon>
        <polygon class="st63" points="246.9 31.248 216.5 32.248 215.7 32.248 246.1 31.248 246.9 31.248" style="fill: rgb(148, 110, 46);"></polygon>
        <polygon class="st140" points="247.7 31.248 217.3 32.248 216.5 32.248 246.9 31.248 247.7 31.248" style="fill: rgb(148, 109, 46);"></polygon>
        <polygon class="st203" points="248.5 31.248 218.1 32.248 217.3 32.248 247.7 31.248 248.5 31.248" style="fill: rgb(147, 108, 45);"></polygon>
        <polygon class="st196" points="249.3 31.248 218.9 32.248 218.1 32.248 248.5 31.248 249.3 31.248" style="fill: rgb(146, 108, 45);"></polygon>
        <polygon class="st77" points="235.9 31.748 250.8 31.248 250.8 31.748 235.9 31.748" style="fill: rgb(129, 91, 36);"></polygon>
      </g>
    </g>
  </g>
</svg>